SplineFontDB: 1.0
FontName: THKrub
FullName: THKrub
FamilyName: TH Krub
Weight: Book
Copyright: Copyright (c) 2006 by Department of Intellectual Property (DIP), Ministry of Commerce and Software Industry Promotion Agency (Public Organization) (SIPA). All rights reserved.
Version: 1.1
ItalicAngle: 0
UnderlinePosition: -58
UnderlineWidth: 35
Ascent: 800
Descent: 200
Order2: 1
XUID: [1021 375 425136265 6266359]
FSType: 0
OS2Version: 3
OS2_WeightWidthSlopeOnly: 0
OS2_UseTypoMetrics: 1
CreationTime: 1158873825
ModificationTime: 1174406487
PfmFamily: 17
TTFWeight: 400
TTFWidth: 5
LineGap: 20
VLineGap: 0
Panose: 2 0 5 6 4 0 0 2 0 4
OS2TypoAscent: 0
OS2TypoAOffset: 1
OS2TypoDescent: 0
OS2TypoDOffset: 1
OS2TypoLinegap: 0
OS2WinAscent: -107
OS2WinAOffset: 1
OS2WinDescent: -188
OS2WinDOffset: 1
HheadAscent: 0
HheadAOffset: 1
HheadDescent: 150
HheadDOffset: 1
OS2SubXSize: 700
OS2SubYSize: 650
OS2SubXOff: 0
OS2SubYOff: 140
OS2SupXSize: 700
OS2SupYSize: 650
OS2SupXOff: 0
OS2SupYOff: 477
OS2StrikeYSize: 35
OS2StrikeYPos: 250
OS2FamilyClass: 2053
OS2Vendor: 'b513'
ScriptLang: 2
 1 latn 1 dflt 
 0 
ChainSub: coverage 0 0 'liga' 0 0 0 1
 1 1 0
  Coverage: 7 uni0E47
  BCoverage: 12 uni0E2C.alt1
 1
  SeqLookup: 0 'L030'
EndFPST
ChainSub: coverage 0 0 'liga' 0 0 0 1
 1 0 1
  Coverage: 7 uni0E2C
  FCoverage: 39 uni0E34 uni0E35 uni0E36 uni0E37 uni0E47
 1
  SeqLookup: 0 'L030'
EndFPST
ChainSub: coverage 0 0 'liga' 0 0 0 1
 1 0 1
  Coverage: 15 uni0E0E uni0E0F
  FCoverage: 38 uni0E38.alt1 uni0E39.alt1 uni0E3A.alt1
 1
  SeqLookup: 0 'L030'
EndFPST
ChainSub: coverage 0 0 'liga' 0 0 0 1
 1 1 0
  Coverage: 5 a b c
  BCoverage: 23 uni0E1B uni0E1D uni0E1F
 1
  SeqLookup: 0 'L030'
EndFPST
ChainSub: coverage 0 0 'liga' 0 0 0 1
 1 0 1
  Coverage: 5 a b c
  FCoverage: 64 uni0E48.alt1 uni0E49.alt1 uni0E4A.alt1 uni0E4B.alt1 uni0E4C.alt1
 1
  SeqLookup: 0 'L030'
EndFPST
ChainSub: coverage 0 0 'liga' 0 0 0 1
 1 1 0
  Coverage: 64 uni0E48.alt2 uni0E49.alt2 uni0E4A.alt2 uni0E4B.alt2 uni0E4C.alt2

StartChar: exclam
Encoding: 33 33 2
Width: 171
Flags: W
Fore
119 486 m 1,0,-1
 105 143 l 1,1,-1
 66 143 l 1,2,-1
 52 486 l 1,3,-1
 119 486 l 1,0,-1
52 0 m 1,4,-1
 52 69 l 1,5,-1
 119 69 l 1,6,-1
 119 0 l 1,7,-1
 52 0 l 1,4,-1
EndSplineSet
EndChar
StartChar: quotedbl
Encoding: 34 34 3
Width: 225
Flags: W
Fore
55 512 m 1,0,-1
 90 512 l 1,1,-1
 90 351 l 1,2,-1
 55 351 l 1,3,-1
 55 512 l 1,0,-1
135 512 m 1,4,-1
 170 512 l 1,5,-1
 170 351 l 1,6,-1
 135 351 l 1,7,-1
 135 512 l 1,4,-1
EndSplineSet
EndChar
StartChar: numbersign
Encoding: 35 35 4
Width: 360
Flags: W
Fore
326 153 m 1,0,-1
 252 153 l 1,1,-1
 230 0 l 1,2,-1
 198 0 l 1,3,-1
 220 153 l 1,4,-1
 125 153 l 1,5,-1
 103 0 l 1,6,-1
 71 0 l 1,7,-1
 93 153 l 1,8,-1
 17 153 l 1,9,-1
 17 184 l 1,10,-1
 97 184 l 1,11,-1
 112 285 l 1,12,-1
 35 285 l 1,13,-1
 35 316 l 1,14,-1
 115 316 l 1,15,-1
 137 468 l 1,16,-1
 170 468 l 1,17,-1
 148 316 l 1,18,-1
 243 316 l 1,19,-1
 264 468 l 1,20,-1
 297 468 l 1,21,-1
 276 316 l 1,22,-1
 344 316 l 1,23,-1
 344 285 l 1,24,-1
 270 285 l 1,25,-1
 256 184 l 1,26,-1
 326 184 l 1,27,-1
 326 153 l 1,0,-1
143 285 m 1,28,-1
 129 184 l 1,29,-1
 224 184 l 1,30,-1
 239 285 l 1,31,-1
 143 285 l 1,28,-1
EndSplineSet
EndChar
StartChar: dollar
Encoding: 36 36 5
Width: 423
Flags: W
Fore
194 562 m 1,0,-1
 230 562 l 1,1,-1
 230 489 l 1,2,3
 256 488 256 488 279 479.5 c 128,-1,4
 302 471 302 471 321 458 c 128,-1,5
 340 445 340 445 353.5 429.5 c 128,-1,6
 367 414 367 414 374 399 c 1,7,8
 373 399 373 399 368.5 395 c 128,-1,9
 364 391 364 391 358.5 386.5 c 128,-1,10
 353 382 353 382 348 378 c 128,-1,11
 343 374 343 374 341 373 c 1,12,13
 323 406 323 406 295.5 426 c 128,-1,14
 268 446 268 446 230 451 c 1,15,-1
 230 267 l 1,16,17
 259 259 259 259 288 249 c 128,-1,18
 317 239 317 239 340.5 223 c 128,-1,19
 364 207 364 207 379 183 c 128,-1,20
 394 159 394 159 394 123 c 0,21,22
 394 88 394 88 380.5 64.5 c 128,-1,23
 367 41 367 41 344 27 c 128,-1,24
 321 13 321 13 291.5 6.5 c 128,-1,25
 262 0 262 0 230 0 c 1,26,-1
 230 -90 l 1,27,-1
 194 -90 l 1,28,-1
 194 0 l 1,29,30
 138 2 138 2 92 31 c 128,-1,31
 46 60 46 60 22 111 c 1,32,-1
 58 136 l 1,33,34
 76 95 76 95 111 65.5 c 128,-1,35
 146 36 146 36 194 36 c 1,36,-1
 194 232 l 1,37,38
 167 240 167 240 139.5 249 c 128,-1,39
 112 258 112 258 90.5 272.5 c 128,-1,40
 69 287 69 287 55.5 309 c 128,-1,41
 42 331 42 331 42 364 c 0,42,43
 42 399 42 399 53.5 422.5 c 128,-1,44
 65 446 65 446 85.5 460.5 c 128,-1,45
 106 475 106 475 134 481.5 c 128,-1,46
 162 488 162 488 194 489 c 1,47,-1
 194 562 l 1,0,-1
194 452 m 1,48,49
 172 452 172 452 152 447.5 c 128,-1,50
 132 443 132 443 116.5 433 c 128,-1,51
 101 423 101 423 92 406.5 c 128,-1,52
 83 390 83 390 83 367 c 0,53,54
 83 342 83 342 92.5 327 c 128,-1,55
 102 312 102 312 118 303 c 128,-1,56
 134 294 134 294 153.5 288.5 c 128,-1,57
 173 283 173 283 194 278 c 1,58,-1
 194 452 l 1,48,49
230 36 m 1,59,60
 254 36 254 36 276 41.5 c 128,-1,61
 298 47 298 47 315 57.5 c 128,-1,62
 332 68 332 68 342.5 85 c 128,-1,63
 353 102 353 102 353 125 c 0,64,65
 353 150 353 150 341.5 165.5 c 128,-1,66
 330 181 330 181 312 191.5 c 128,-1,67
 294 202 294 202 272.5 209 c 128,-1,68
 251 216 251 216 230 223 c 1,69,-1
 230 36 l 1,59,60
EndSplineSet
EndChar
StartChar: percent
Encoding: 37 37 6
Width: 597
Flags: W
Fore
164 486 m 0,0,1
 187 486 187 486 207.5 477 c 128,-1,2
 228 468 228 468 243 453 c 128,-1,3
 258 438 258 438 266.5 418 c 128,-1,4
 275 398 275 398 275 375 c 256,5,6
 275 352 275 352 266.5 332 c 128,-1,7
 258 312 258 312 243 297 c 128,-1,8
 228 282 228 282 207.5 273.5 c 128,-1,9
 187 265 187 265 164 265 c 0,10,11
 142 265 142 265 122 273.5 c 128,-1,12
 102 282 102 282 87 297 c 128,-1,13
 72 312 72 312 63.5 332 c 128,-1,14
 55 352 55 352 55 375 c 256,15,16
 55 398 55 398 63.5 418 c 128,-1,17
 72 438 72 438 87 453 c 128,-1,18
 102 468 102 468 122 477 c 128,-1,19
 142 486 142 486 164 486 c 0,0,1
164 449 m 0,20,21
 134 449 134 449 112 428 c 128,-1,22
 90 407 90 407 91 375 c 0,23,24
 90 344 90 344 112 322.5 c 128,-1,25
 134 301 134 301 164 301 c 0,26,27
 196 301 196 301 217.5 322.5 c 128,-1,28
 239 344 239 344 239 375 c 0,29,30
 239 407 239 407 217.5 428 c 128,-1,31
 196 449 196 449 164 449 c 0,20,21
431 220 m 0,32,33
 454 220 454 220 474 211.5 c 128,-1,34
 494 203 494 203 509 188 c 128,-1,35
 524 173 524 173 533 153 c 128,-1,36
 542 133 542 133 542 110 c 0,37,38
 542 88 542 88 533 68 c 128,-1,39
 524 48 524 48 509 33 c 128,-1,40
 494 18 494 18 474 9 c 128,-1,41
 454 0 454 0 431 0 c 0,42,43
 409 0 409 0 389 9 c 128,-1,44
 369 18 369 18 354 33 c 128,-1,45
 339 48 339 48 330 68 c 128,-1,46
 321 88 321 88 321 110 c 0,47,48
 321 133 321 133 330 153 c 128,-1,49
 339 173 339 173 354 188 c 128,-1,50
 369 203 369 203 389 211.5 c 128,-1,51
 409 220 409 220 431 220 c 0,32,33
431 185 m 0,52,53
 400 185 400 185 378.5 163 c 128,-1,54
 357 141 357 141 358 110 c 0,55,56
 357 79 357 79 378.5 57.5 c 128,-1,57
 400 36 400 36 431 36 c 0,58,59
 463 36 463 36 485 57.5 c 128,-1,60
 507 79 507 79 506 110 c 0,61,62
 507 141 507 141 485 163 c 128,-1,63
 463 185 463 185 431 185 c 0,52,53
180 -7 m 1,64,-1
 139 -7 l 1,65,-1
 417 493 l 1,66,-1
 459 493 l 1,67,-1
 180 -7 l 1,64,-1
EndSplineSet
EndChar
StartChar: ampersand
Encoding: 38 38 7
Width: 477
Flags: W
Fore
73 116 m 0,0,1
 73 95 73 95 82 78.5 c 128,-1,2
 91 62 91 62 106 51 c 128,-1,3
 121 40 121 40 139.5 34.5 c 128,-1,4
 158 29 158 29 177 29 c 0,5,6
 198 29 198 29 215.5 34 c 128,-1,7
 233 39 233 39 246.5 46 c 128,-1,8
 260 53 260 53 269.5 61.5 c 128,-1,9
 279 70 279 70 285 76 c 1,10,11
 273 88 273 88 256 109 c 128,-1,12
 239 130 239 130 221.5 154 c 128,-1,13
 204 178 204 178 188 201.5 c 128,-1,14
 172 225 172 225 161 242 c 1,15,16
 121 219 121 219 97 192 c 128,-1,17
 73 165 73 165 73 116 c 0,0,1
146 386 m 0,18,19
 146 363 146 363 154.5 340 c 128,-1,20
 163 317 163 317 177 297 c 1,21,22
 209 315 209 315 231.5 343.5 c 128,-1,23
 254 372 254 372 254 402 c 0,24,25
 254 425 254 425 241 440.5 c 128,-1,26
 228 456 228 456 200 456 c 0,27,28
 176 456 176 456 161 439.5 c 128,-1,29
 146 423 146 423 146 386 c 0,18,19
404 220 m 1,30,31
 387 141 387 141 343 77 c 1,32,33
 360 60 360 60 380.5 47.5 c 128,-1,34
 401 35 401 35 427 34 c 1,35,-1
 427 -7 l 1,36,37
 394 -5 394 -5 365.5 9 c 128,-1,38
 337 23 337 23 313 46 c 1,39,40
 286 20 286 20 250 6.5 c 128,-1,41
 214 -7 214 -7 175 -7 c 0,42,43
 147 -7 147 -7 120 1 c 128,-1,44
 93 9 93 9 73 24.5 c 128,-1,45
 53 40 53 40 40.5 64 c 128,-1,46
 28 88 28 88 28 119 c 0,47,48
 28 146 28 146 34.5 166.5 c 128,-1,49
 41 187 41 187 54.5 205 c 128,-1,50
 68 223 68 223 89.5 240.5 c 128,-1,51
 111 258 111 258 141 278 c 1,52,53
 124 304 124 304 113.5 332.5 c 128,-1,54
 103 361 103 361 103 391 c 0,55,56
 103 440 103 440 129.5 466.5 c 128,-1,57
 156 493 156 493 202 493 c 0,58,59
 244 493 244 493 271 468.5 c 128,-1,60
 298 444 298 444 298 399 c 0,61,62
 298 375 298 375 289.5 355 c 128,-1,63
 281 335 281 335 267 318.5 c 128,-1,64
 253 302 253 302 235 288 c 128,-1,65
 217 274 217 274 199 261 c 1,66,67
 228 220 228 220 254.5 179.5 c 128,-1,68
 281 139 281 139 312 106 c 1,69,70
 330 134 330 134 343 165 c 128,-1,71
 356 196 356 196 362 228 c 1,72,-1
 404 220 l 1,30,31
EndSplineSet
EndChar
StartChar: quotesingle
Encoding: 39 39 8
Width: 155
Flags: W
Fore
60 512 m 1,0,-1
 95 512 l 1,1,-1
 95 351 l 1,2,-1
 60 351 l 1,3,-1
 60 512 l 1,0,-1
EndSplineSet
EndChar
StartChar: parenleft
Encoding: 40 40 9
Width: 270
Flags: W
Fore
225 593 m 1,0,1
 194 556 194 556 171 514.5 c 128,-1,2
 148 473 148 473 133 430.5 c 128,-1,3
 118 388 118 388 111 345.5 c 128,-1,4
 104 303 104 303 104 264 c 0,5,6
 104 224 104 224 111 181.5 c 128,-1,7
 118 139 118 139 133 96.5 c 128,-1,8
 148 54 148 54 171 12 c 128,-1,9
 194 -30 194 -30 225 -67 c 1,10,-1
 167 -67 l 1,11,12
 139 -30 139 -30 118 12 c 128,-1,13
 97 54 97 54 83 96.5 c 128,-1,14
 69 139 69 139 62 181.5 c 128,-1,15
 55 224 55 224 55 264 c 0,16,17
 55 303 55 303 62 345.5 c 128,-1,18
 69 388 69 388 83 430.5 c 128,-1,19
 97 473 97 473 118 514.5 c 128,-1,20
 139 556 139 556 167 593 c 1,21,-1
 225 593 l 1,0,1
EndSplineSet
EndChar
StartChar: parenright
Encoding: 41 41 10
Width: 270
Flags: W
Fore
45 -67 m 1,0,1
 77 -30 77 -30 100 12 c 128,-1,2
 123 54 123 54 138 96.5 c 128,-1,3
 153 139 153 139 160 181.5 c 128,-1,4
 167 224 167 224 167 264 c 0,5,6
 167 303 167 303 160 345.5 c 128,-1,7
 153 388 153 388 138 430.5 c 128,-1,8
 123 473 123 473 100 514.5 c 128,-1,9
 77 556 77 556 45 593 c 1,10,-1
 103 593 l 1,11,12
 131 556 131 556 152 514.5 c 128,-1,13
 173 473 173 473 187 430.5 c 128,-1,14
 201 388 201 388 208 345.5 c 128,-1,15
 215 303 215 303 215 264 c 0,16,17
 215 224 215 224 208 181.5 c 128,-1,18
 201 139 201 139 187 96.5 c 128,-1,19
 173 54 173 54 152 12 c 128,-1,20
 131 -30 131 -30 103 -67 c 1,21,-1
 45 -67 l 1,0,1
EndSplineSet
EndChar
StartChar: asterisk
Encoding: 42 42 11
Width: 429
Flags: W
Fore
229 514 m 1,0,-1
 344 561 l 1,1,-1
 359 517 l 1,2,-1
 235 487 l 1,3,-1
 315 396 l 1,4,-1
 276 365 l 1,5,-1
 216 474 l 1,6,-1
 154 365 l 1,7,-1
 114 391 l 1,8,-1
 197 487 l 1,9,-1
 70 513 l 1,10,-1
 86 559 l 1,11,-1
 203 514 l 1,12,-1
 191 639 l 1,13,-1
 239 639 l 1,14,-1
 229 514 l 1,0,-1
EndSplineSet
EndChar
StartChar: plus
Encoding: 43 43 12
Width: 510
Flags: W
Fore
233 429 m 1,0,-1
 273 429 l 1,1,-1
 273 246 l 1,2,-1
 456 246 l 1,3,-1
 456 204 l 1,4,-1
 273 204 l 1,5,-1
 273 21 l 1,6,-1
 233 21 l 1,7,-1
 233 204 l 1,8,-1
 50 204 l 1,9,-1
 50 246 l 1,10,-1
 233 246 l 1,11,-1
 233 429 l 1,0,-1
EndSplineSet
EndChar
StartChar: comma
Encoding: 44 44 13
Width: 214
Flags: W
Fore
141 69 m 1,0,-1
 141 0 l 1,1,-1
 91 -116 l 1,2,-1
 62 -116 l 1,3,-1
 106 0 l 1,4,-1
 73 0 l 1,5,-1
 73 69 l 1,6,-1
 141 69 l 1,0,-1
EndSplineSet
EndChar
StartChar: hyphen
Encoding: 45 45 14
Width: 333
Flags: W
Fore
42 213 m 1,0,-1
 42 258 l 1,1,-1
 291 258 l 1,2,-1
 291 213 l 1,3,-1
 42 213 l 1,0,-1
EndSplineSet
EndChar
StartChar: period
Encoding: 46 46 15
Width: 214
Flags: W
Fore
73 0 m 1,0,-1
 73 69 l 1,1,-1
 141 69 l 1,2,-1
 141 0 l 1,3,-1
 73 0 l 1,0,-1
EndSplineSet
EndChar
StartChar: slash
Encoding: 47 47 16
Width: 225
Flags: W
Fore
48 -38 m 1,0,-1
 0 -38 l 1,1,-1
 201 563 l 1,2,-1
 245 563 l 1,3,-1
 48 -38 l 1,0,-1
EndSplineSet
EndChar
StartChar: zero
Encoding: 48 48 17
Width: 418
Flags: W
Fore
209 36 m 256,0,1
 248 36 248 36 273.5 48 c 128,-1,2
 299 60 299 60 314 83.5 c 128,-1,3
 329 107 329 107 335.5 142 c 128,-1,4
 342 177 342 177 342 223 c 0,5,6
 342 273 342 273 335.5 310 c 128,-1,7
 329 347 329 347 314 371 c 128,-1,8
 299 395 299 395 273.5 407 c 128,-1,9
 248 419 248 419 209 419 c 256,10,11
 170 419 170 419 144.5 407 c 128,-1,12
 119 395 119 395 103.5 371 c 128,-1,13
 88 347 88 347 82 310 c 128,-1,14
 76 273 76 273 76 223 c 0,15,16
 76 177 76 177 82 142 c 128,-1,17
 88 107 88 107 103.5 83.5 c 128,-1,18
 119 60 119 60 144.5 48 c 128,-1,19
 170 36 170 36 209 36 c 256,0,1
209 -5 m 256,20,21
 161 -5 161 -5 127 10.5 c 128,-1,22
 93 26 93 26 71.5 55.5 c 128,-1,23
 50 85 50 85 40.5 127.5 c 128,-1,24
 31 170 31 170 31 223 c 0,25,26
 31 280 31 280 40.5 324 c 128,-1,27
 50 368 50 368 71 398 c 128,-1,28
 92 428 92 428 126 443.5 c 128,-1,29
 160 459 160 459 209 459 c 0,30,31
 306 459 306 459 346.5 398 c 128,-1,32
 387 337 387 337 387 223 c 0,33,34
 387 170 387 170 377.5 127.5 c 128,-1,35
 368 85 368 85 346.5 55.5 c 128,-1,36
 325 26 325 26 291 10.5 c 128,-1,37
 257 -5 257 -5 209 -5 c 256,20,21
EndSplineSet
EndChar
StartChar: one
Encoding: 49 49 18
Width: 319
Flags: W
Fore
54 0 m 1,0,-1
 54 38 l 1,1,-1
 139 38 l 1,2,-1
 139 397 l 1,3,-1
 59 379 l 1,4,-1
 59 414 l 1,5,-1
 160 457 l 1,6,-1
 184 457 l 1,7,-1
 184 38 l 1,8,-1
 265 38 l 1,9,-1
 265 0 l 1,10,-1
 54 0 l 1,0,-1
EndSplineSet
EndChar
StartChar: two
Encoding: 50 50 19
Width: 373
Flags: W
Fore
41 331 m 1,0,1
 52 393 52 393 92.5 427 c 128,-1,2
 133 461 133 461 192 461 c 0,3,4
 261 461 261 461 294 426.5 c 128,-1,5
 327 392 327 392 327 332 c 0,6,7
 327 277 327 277 298 241 c 128,-1,8
 269 205 269 205 206 169 c 0,9,10
 164 145 164 145 139 126.5 c 128,-1,11
 114 108 114 108 101 93 c 128,-1,12
 88 78 88 78 84 65.5 c 128,-1,13
 80 53 80 53 80 41 c 1,14,-1
 327 41 l 1,15,-1
 327 0 l 1,16,-1
 36 0 l 1,17,-1
 36 39 l 2,18,19
 36 56 36 56 39 72 c 128,-1,20
 42 88 42 88 56 107 c 128,-1,21
 70 126 70 126 99 148.5 c 128,-1,22
 128 171 128 171 180 200 c 0,23,24
 213 218 213 218 233 233.5 c 128,-1,25
 253 249 253 249 264 264 c 128,-1,26
 275 279 275 279 278.5 295.5 c 128,-1,27
 282 312 282 312 282 331 c 0,28,29
 282 373 282 373 261 397 c 128,-1,30
 240 421 240 421 187 421 c 0,31,32
 153 421 153 421 125.5 398.5 c 128,-1,33
 98 376 98 376 86 325 c 1,34,-1
 41 331 l 1,0,1
EndSplineSet
EndChar
StartChar: three
Encoding: 51 51 20
Width: 381
Flags: W
Fore
67 104 m 1,0,1
 78 82 78 82 88.5 68 c 128,-1,2
 99 54 99 54 112.5 46.5 c 128,-1,3
 126 39 126 39 143 36.5 c 128,-1,4
 160 34 160 34 182 34 c 0,5,6
 239 34 239 34 265 56.5 c 128,-1,7
 291 79 291 79 291 127 c 0,8,9
 291 177 291 177 259 199.5 c 128,-1,10
 227 222 227 222 163 222 c 2,11,-1
 122 222 l 1,12,-1
 122 263 l 1,13,-1
 156 263 l 2,14,15
 218 263 218 263 247 283 c 128,-1,16
 276 303 276 303 276 349 c 0,17,18
 276 391 276 391 254 406 c 128,-1,19
 232 421 232 421 185 421 c 0,20,21
 153 421 153 421 129 407 c 128,-1,22
 105 393 105 393 81 364 c 1,23,-1
 47 390 l 1,24,25
 79 428 79 428 115.5 444.5 c 128,-1,26
 152 461 152 461 189 461 c 0,27,28
 215 461 215 461 238.5 456 c 128,-1,29
 262 451 262 451 280.5 438.5 c 128,-1,30
 299 426 299 426 310 405 c 128,-1,31
 321 384 321 384 321 352 c 0,32,33
 321 306 321 306 305 280.5 c 128,-1,34
 289 255 289 255 248 244 c 1,35,36
 286 236 286 236 311 209.5 c 128,-1,37
 336 183 336 183 336 129 c 0,38,39
 336 57 336 57 295.5 25.5 c 128,-1,40
 255 -6 255 -6 180 -6 c 0,41,42
 124 -6 124 -6 85.5 16 c 128,-1,43
 47 38 47 38 27 85 c 1,44,-1
 67 104 l 1,0,1
EndSplineSet
EndChar
StartChar: four
Encoding: 52 52 21
Width: 355
Flags: W
Fore
59 140 m 1,0,-1
 222 140 l 1,1,-1
 222 410 l 1,2,-1
 218 410 l 1,3,-1
 59 140 l 1,0,-1
9 138 m 1,4,-1
 209 457 l 1,5,-1
 267 457 l 1,6,-1
 267 140 l 1,7,-1
 337 140 l 1,8,-1
 337 99 l 1,9,-1
 267 99 l 1,10,-1
 267 0 l 1,11,-1
 222 0 l 1,12,-1
 222 99 l 1,13,-1
 9 99 l 1,14,-1
 9 138 l 1,4,-1
EndSplineSet
EndChar
StartChar: five
Encoding: 53 53 22
Width: 386
Flags: W
Fore
61 207 m 1,0,-1
 82 457 l 1,1,-1
 317 457 l 1,2,-1
 317 417 l 1,3,-1
 120 417 l 1,4,-1
 107 265 l 1,5,6
 128 285 128 285 154.5 292 c 128,-1,7
 181 299 181 299 212 299 c 0,8,9
 278 299 278 299 314 260.5 c 128,-1,10
 350 222 350 222 350 153 c 0,11,12
 350 78 350 78 310 36 c 128,-1,13
 270 -6 270 -6 192 -6 c 0,14,15
 171 -6 171 -6 149 -0.5 c 128,-1,16
 127 5 127 5 107.5 15.5 c 128,-1,17
 88 26 88 26 71.5 42 c 128,-1,18
 55 58 55 58 45 79 c 1,19,-1
 79 101 l 1,20,21
 98 63 98 63 129.5 48.5 c 128,-1,22
 161 34 161 34 196 34 c 0,23,24
 227 34 227 34 248 42.5 c 128,-1,25
 269 51 269 51 281.5 66 c 128,-1,26
 294 81 294 81 299.5 102.5 c 128,-1,27
 305 124 305 124 305 150 c 0,28,29
 305 211 305 211 281 234.5 c 128,-1,30
 257 258 257 258 205 258 c 0,31,32
 191 258 191 258 174.5 254.5 c 128,-1,33
 158 251 158 251 142.5 244.5 c 128,-1,34
 127 238 127 238 114 227.5 c 128,-1,35
 101 217 101 217 95 202 c 1,36,-1
 61 207 l 1,0,-1
EndSplineSet
EndChar
StartChar: six
Encoding: 54 54 23
Width: 401
Flags: W
Fore
307 388 m 1,0,1
 287 406 287 406 263 413.5 c 128,-1,2
 239 421 239 421 212 421 c 0,3,4
 173 421 173 421 149 409 c 128,-1,5
 125 397 125 397 111.5 372 c 128,-1,6
 98 347 98 347 93.5 310.5 c 128,-1,7
 89 274 89 274 89 224 c 1,8,9
 112 250 112 250 147.5 267 c 128,-1,10
 183 284 183 284 218 284 c 256,11,12
 253 284 253 284 280.5 272.5 c 128,-1,13
 308 261 308 261 326.5 241 c 128,-1,14
 345 221 345 221 355 194 c 128,-1,15
 365 167 365 167 365 135 c 0,16,17
 365 102 365 102 352.5 76 c 128,-1,18
 340 50 340 50 319 32 c 128,-1,19
 298 14 298 14 270 4 c 128,-1,20
 242 -6 242 -6 211 -6 c 0,21,22
 163 -6 163 -6 131.5 9.5 c 128,-1,23
 100 25 100 25 80.5 53 c 128,-1,24
 61 81 61 81 53 121.5 c 128,-1,25
 45 162 45 162 45 211 c 0,26,27
 45 271 45 271 53.5 317.5 c 128,-1,28
 62 364 62 364 81.5 396 c 128,-1,29
 101 428 101 428 133 444.5 c 128,-1,30
 165 461 165 461 213 461 c 0,31,32
 243 461 243 461 277 451.5 c 128,-1,33
 311 442 311 442 335 423 c 1,34,-1
 307 388 l 1,0,1
320 142 m 0,35,36
 320 189 320 189 293 216.5 c 128,-1,37
 266 244 266 244 212 244 c 0,38,39
 187 244 187 244 164.5 233.5 c 128,-1,40
 142 223 142 223 126 209 c 128,-1,41
 110 195 110 195 100.5 181.5 c 128,-1,42
 91 168 91 168 91 162 c 0,43,44
 91 125 91 125 100 100 c 128,-1,45
 109 75 109 75 125 61 c 128,-1,46
 141 47 141 47 163.5 41 c 128,-1,47
 186 35 186 35 212 35 c 0,48,49
 320 35 320 35 320 142 c 0,35,36
EndSplineSet
EndChar
StartChar: seven
Encoding: 55 55 24
Width: 335
Flags: W
Fore
36 457 m 1,0,-1
 317 457 l 1,1,-1
 317 426 l 1,2,-1
 123 0 l 1,3,-1
 72 0 l 1,4,-1
 266 417 l 1,5,-1
 36 417 l 1,6,-1
 36 457 l 1,0,-1
EndSplineSet
EndChar
StartChar: eight
Encoding: 56 56 25
Width: 392
Flags: W
Fore
196 462 m 0,0,1
 262 462 262 462 300 432 c 128,-1,2
 338 402 338 402 338 344 c 0,3,4
 338 314 338 314 316 285.5 c 128,-1,5
 294 257 294 257 251 242 c 1,6,7
 310 216 310 216 333 184 c 128,-1,8
 356 152 356 152 356 117 c 0,9,10
 356 55 356 55 312 24.5 c 128,-1,11
 268 -6 268 -6 196 -6 c 0,12,13
 125 -6 125 -6 80.5 24.5 c 128,-1,14
 36 55 36 55 36 117 c 0,15,16
 36 152 36 152 58.5 184 c 128,-1,17
 81 216 81 216 140 242 c 1,18,19
 98 257 98 257 75.5 285.5 c 128,-1,20
 53 314 53 314 53 344 c 0,21,22
 53 402 53 402 92 432 c 128,-1,23
 131 462 131 462 196 462 c 0,0,1
81 117 m 0,24,25
 81 77 81 77 113 55.5 c 128,-1,26
 145 34 145 34 196 34 c 256,27,28
 247 34 247 34 279 55.5 c 128,-1,29
 311 77 311 77 311 117 c 0,30,31
 311 154 311 154 281.5 177.5 c 128,-1,32
 252 201 252 201 196 223 c 1,33,34
 140 201 140 201 110.5 177.5 c 128,-1,35
 81 154 81 154 81 117 c 0,24,25
97 346 m 0,36,37
 97 317 97 317 125.5 294 c 128,-1,38
 154 271 154 271 196 259 c 1,39,40
 239 271 239 271 266.5 294 c 128,-1,41
 294 317 294 317 294 346 c 0,42,43
 294 380 294 380 267.5 401 c 128,-1,44
 241 422 241 422 196 422 c 256,45,46
 151 422 151 422 124 401 c 128,-1,47
 97 380 97 380 97 346 c 0,36,37
EndSplineSet
EndChar
StartChar: nine
Encoding: 57 57 26
Width: 401
Flags: W
Fore
94 68 m 1,0,1
 114 49 114 49 138 41.5 c 128,-1,2
 162 34 162 34 188 34 c 0,3,4
 227 34 227 34 251 46.5 c 128,-1,5
 275 59 275 59 288.5 83.5 c 128,-1,6
 302 108 302 108 306.5 145.5 c 128,-1,7
 311 183 311 183 311 232 c 1,8,9
 288 206 288 206 253 188.5 c 128,-1,10
 218 171 218 171 183 171 c 256,11,12
 148 171 148 171 120.5 182.5 c 128,-1,13
 93 194 93 194 74.5 214 c 128,-1,14
 56 234 56 234 46 261.5 c 128,-1,15
 36 289 36 289 36 321 c 0,16,17
 36 354 36 354 48.5 380 c 128,-1,18
 61 406 61 406 82 424 c 128,-1,19
 103 442 103 442 131 452 c 128,-1,20
 159 462 159 462 190 462 c 0,21,22
 238 462 238 462 269.5 446.5 c 128,-1,23
 301 431 301 431 320.5 402.5 c 128,-1,24
 340 374 340 374 348 334 c 128,-1,25
 356 294 356 294 356 245 c 0,26,27
 356 185 356 185 347.5 138.5 c 128,-1,28
 339 92 339 92 319.5 60 c 128,-1,29
 300 28 300 28 267.5 11.5 c 128,-1,30
 235 -5 235 -5 187 -5 c 0,31,32
 158 -5 158 -5 123.5 4.5 c 128,-1,33
 89 14 89 14 66 32 c 1,34,-1
 94 68 l 1,0,1
81 313 m 0,35,36
 81 266 81 266 108 239 c 128,-1,37
 135 212 135 212 189 212 c 0,38,39
 215 212 215 212 237 222.5 c 128,-1,40
 259 233 259 233 275 246.5 c 128,-1,41
 291 260 291 260 300.5 274 c 128,-1,42
 310 288 310 288 310 294 c 0,43,44
 310 332 310 332 301 356.5 c 128,-1,45
 292 381 292 381 275.5 395 c 128,-1,46
 259 409 259 409 237 415 c 128,-1,47
 215 421 215 421 189 421 c 0,48,49
 81 421 81 421 81 313 c 0,35,36
EndSplineSet
EndChar
StartChar: colon
Encoding: 58 58 27
Width: 225
Flags: W
Fore
77 0 m 1,0,-1
 77 73 l 1,1,-1
 148 73 l 1,2,-1
 148 0 l 1,3,-1
 77 0 l 1,0,-1
77 247 m 1,4,-1
 77 320 l 1,5,-1
 148 320 l 1,6,-1
 148 247 l 1,7,-1
 77 247 l 1,4,-1
EndSplineSet
EndChar
StartChar: semicolon
Encoding: 59 59 28
Width: 225
Flags: W
Fore
148 73 m 1,0,-1
 148 0 l 1,1,-1
 96 -122 l 1,2,-1
 65 -122 l 1,3,-1
 112 0 l 1,4,-1
 77 0 l 1,5,-1
 77 73 l 1,6,-1
 148 73 l 1,0,-1
77 247 m 1,7,-1
 77 320 l 1,8,-1
 148 320 l 1,9,-1
 148 247 l 1,10,-1
 77 247 l 1,7,-1
EndSplineSet
EndChar
StartChar: less
Encoding: 60 60 29
Width: 486
Flags: W
Fore
454 -5 m 1,0,-1
 32 188 l 1,1,-1
 32 233 l 1,2,-1
 454 426 l 1,3,-1
 454 379 l 1,4,-1
 87 211 l 1,5,-1
 454 42 l 1,6,-1
 454 -5 l 1,0,-1
EndSplineSet
EndChar
StartChar: equal
Encoding: 61 61 30
Width: 392
Flags: W
Fore
357 280 m 1,0,-1
 35 280 l 1,1,-1
 35 323 l 1,2,-1
 357 323 l 1,3,-1
 357 280 l 1,0,-1
357 138 m 1,4,-1
 35 138 l 1,5,-1
 35 181 l 1,6,-1
 357 181 l 1,7,-1
 357 138 l 1,4,-1
EndSplineSet
EndChar
StartChar: greater
Encoding: 62 62 31
Width: 486
Flags: W
Fore
32 42 m 1,0,-1
 399 211 l 1,1,-1
 32 379 l 1,2,-1
 32 426 l 1,3,-1
 454 233 l 1,4,-1
 454 188 l 1,5,-1
 32 -5 l 1,6,-1
 32 42 l 1,0,-1
EndSplineSet
EndChar
StartChar: question
Encoding: 63 63 32
Width: 330
Flags: W
Fore
23 443 m 1,0,1
 40 489 40 489 77.5 518.5 c 128,-1,2
 115 548 115 548 168 548 c 0,3,4
 194 548 194 548 218.5 539.5 c 128,-1,5
 243 531 243 531 262.5 514.5 c 128,-1,6
 282 498 282 498 294 473 c 128,-1,7
 306 448 306 448 306 416 c 0,8,9
 306 389 306 389 296 368 c 128,-1,10
 286 347 286 347 271.5 328.5 c 128,-1,11
 257 310 257 310 239.5 293.5 c 128,-1,12
 222 277 222 277 207.5 259.5 c 128,-1,13
 193 242 193 242 183 222 c 128,-1,14
 173 202 173 202 173 177 c 2,15,-1
 173 138 l 1,16,-1
 130 138 l 1,17,-1
 130 187 l 2,18,19
 130 222 130 222 150.5 252.5 c 128,-1,20
 171 283 171 283 195 310.5 c 128,-1,21
 219 338 219 338 239.5 364 c 128,-1,22
 260 390 260 390 260 417 c 0,23,24
 260 440 260 440 252 456 c 128,-1,25
 244 472 244 472 230.5 483 c 128,-1,26
 217 494 217 494 200.5 499 c 128,-1,27
 184 504 184 504 167 504 c 0,28,29
 147 504 147 504 130 496 c 128,-1,30
 113 488 113 488 100 476 c 128,-1,31
 87 464 87 464 78 450 c 128,-1,32
 69 436 69 436 64 423 c 1,33,-1
 23 443 l 1,0,1
114 0 m 1,34,-1
 114 73 l 1,35,-1
 184 73 l 1,36,-1
 184 0 l 1,37,-1
 114 0 l 1,34,-1
EndSplineSet
EndChar
StartChar: at
Encoding: 64 64 33
Width: 579
Flags: W
Fore
247 128 m 0,0,1
 271 128 271 128 292 145.5 c 128,-1,2
 313 163 313 163 328.5 188.5 c 128,-1,3
 344 214 344 214 353 243 c 128,-1,4
 362 272 362 272 362 295 c 0,5,6
 362 307 362 307 357.5 319 c 128,-1,7
 353 331 353 331 345.5 340.5 c 128,-1,8
 338 350 338 350 328 355.5 c 128,-1,9
 318 361 318 361 308 361 c 0,10,11
 281 361 281 361 259 345 c 128,-1,12
 237 329 237 329 221.5 304.5 c 128,-1,13
 206 280 206 280 197 251.5 c 128,-1,14
 188 223 188 223 188 198 c 0,15,16
 188 167 188 167 204.5 147.5 c 128,-1,17
 221 128 221 128 247 128 c 0,0,1
402 383 m 1,18,-1
 439 383 l 1,19,-1
 373 182 l 2,20,21
 369 171 369 171 366 161.5 c 128,-1,22
 363 152 363 152 363 144 c 0,23,24
 363 126 363 126 382 126 c 0,25,26
 402 126 402 126 422 140.5 c 128,-1,27
 442 155 442 155 458 178.5 c 128,-1,28
 474 202 474 202 484 231.5 c 128,-1,29
 494 261 494 261 494 290 c 0,30,31
 494 331 494 331 478 363.5 c 128,-1,32
 462 396 462 396 435.5 419.5 c 128,-1,33
 409 443 409 443 374 455.5 c 128,-1,34
 339 468 339 468 301 468 c 0,35,36
 255 468 255 468 215 450 c 128,-1,37
 175 432 175 432 146.5 401.5 c 128,-1,38
 118 371 118 371 101.5 330 c 128,-1,39
 85 289 85 289 85 243 c 0,40,41
 85 198 85 198 102 158 c 128,-1,42
 119 118 119 118 148.5 88.5 c 128,-1,43
 178 59 178 59 217.5 41.5 c 128,-1,44
 257 24 257 24 302 24 c 0,45,46
 354 24 354 24 403.5 48.5 c 128,-1,47
 453 73 453 73 483 118 c 1,48,-1
 518 118 l 1,49,50
 502 89 502 89 479 66 c 128,-1,51
 456 43 456 43 427.5 26.5 c 128,-1,52
 399 10 399 10 367 1.5 c 128,-1,53
 335 -7 335 -7 302 -7 c 0,54,55
 248 -7 248 -7 202 13 c 128,-1,56
 156 33 156 33 122.5 68 c 128,-1,57
 89 103 89 103 69.5 149.5 c 128,-1,58
 50 196 50 196 50 248 c 256,59,60
 50 300 50 300 70 345.5 c 128,-1,61
 90 391 90 391 124 425 c 128,-1,62
 158 459 158 459 203.5 478.5 c 128,-1,63
 249 498 249 498 300 498 c 0,64,65
 348 498 348 498 390 482.5 c 128,-1,66
 432 467 432 467 463 439.5 c 128,-1,67
 494 412 494 412 511.5 373.5 c 128,-1,68
 529 335 529 335 529 289 c 0,69,70
 529 249 529 249 515 213.5 c 128,-1,71
 501 178 501 178 478.5 151 c 128,-1,72
 456 124 456 124 428.5 108.5 c 128,-1,73
 401 93 401 93 375 93 c 0,74,75
 357 93 357 93 343.5 105.5 c 128,-1,76
 330 118 330 118 329 141 c 1,77,-1
 328 141 l 1,78,79
 311 124 311 124 287.5 108.5 c 128,-1,80
 264 93 264 93 238 93 c 0,81,82
 194 93 194 93 169 123.5 c 128,-1,83
 144 154 144 154 144 194 c 0,84,85
 144 231 144 231 156 267 c 128,-1,86
 168 303 168 303 190 331.5 c 128,-1,87
 212 360 212 360 243 378 c 128,-1,88
 274 396 274 396 311 396 c 0,89,90
 334 396 334 396 353.5 383 c 128,-1,91
 373 370 373 370 384 338 c 1,92,-1
 402 383 l 1,18,-1
EndSplineSet
EndChar
StartChar: A
Encoding: 65 65 34
Width: 463
Flags: W
Fore
325 185 m 1,0,-1
 232 445 l 1,1,-1
 232 445 l 1,2,-1
 139 185 l 1,3,-1
 325 185 l 1,0,-1
206 485 m 1,4,-1
 258 485 l 1,5,-1
 443 0 l 1,6,-1
 389 0 l 1,7,-1
 338 141 l 1,8,-1
 125 141 l 1,9,-1
 74 0 l 1,10,-1
 20 0 l 1,11,-1
 206 485 l 1,4,-1
EndSplineSet
EndChar
StartChar: B
Encoding: 66 66 35
Width: 427
Flags: W
Fore
310 271 m 1,0,1
 329 267 329 267 345 254.5 c 128,-1,2
 361 242 361 242 372.5 225.5 c 128,-1,3
 384 209 384 209 390.5 189.5 c 128,-1,4
 397 170 397 170 397 150 c 0,5,6
 397 117 397 117 388 89.5 c 128,-1,7
 379 62 379 62 359.5 42 c 128,-1,8
 340 22 340 22 308.5 11 c 128,-1,9
 277 0 277 0 231 0 c 2,10,-1
 60 0 l 1,11,-1
 60 486 l 1,12,-1
 233 486 l 2,13,14
 271 486 271 486 297 477 c 128,-1,15
 323 468 323 468 339 452.5 c 128,-1,16
 355 437 355 437 362 416.5 c 128,-1,17
 369 396 369 396 369 373 c 0,18,19
 369 333 369 333 352.5 306.5 c 128,-1,20
 336 280 336 280 310 271 c 1,0,1
112 441 m 1,21,-1
 112 289 l 1,22,-1
 213 289 l 2,23,24
 252 289 252 289 273 296 c 128,-1,25
 294 303 294 303 304.5 314.5 c 128,-1,26
 315 326 315 326 317 341 c 128,-1,27
 319 356 319 356 319 373 c 0,28,29
 319 402 319 402 301.5 421.5 c 128,-1,30
 284 441 284 441 233 441 c 2,31,-1
 112 441 l 1,21,-1
221 42 m 2,32,33
 291 42 291 42 319 66.5 c 128,-1,34
 347 91 347 91 347 150 c 0,35,36
 347 199 347 199 317.5 224 c 128,-1,37
 288 249 288 249 211 249 c 2,38,-1
 110 249 l 1,39,-1
 110 42 l 1,40,-1
 221 42 l 2,32,33
EndSplineSet
EndChar
StartChar: C
Encoding: 67 67 36
Width: 379
Flags: W
Fore
40 242 m 256,0,1
 40 308 40 308 49 355 c 128,-1,2
 58 402 58 402 79.5 432.5 c 128,-1,3
 101 463 101 463 136.5 477 c 128,-1,4
 172 491 172 491 224 491 c 0,5,6
 257 491 257 491 294.5 480.5 c 128,-1,7
 332 470 332 470 359 449 c 1,8,-1
 328 411 l 1,9,10
 305 431 305 431 279 439 c 128,-1,11
 253 447 253 447 223 447 c 0,12,13
 181 447 181 447 154.5 435.5 c 128,-1,14
 128 424 128 424 113 399.5 c 128,-1,15
 98 375 98 375 93 336 c 128,-1,16
 88 297 88 297 88 242 c 256,17,18
 88 187 88 187 93 148.5 c 128,-1,19
 98 110 98 110 113 85 c 128,-1,20
 128 60 128 60 154.5 48.5 c 128,-1,21
 181 37 181 37 223 37 c 0,22,23
 253 37 253 37 279 45 c 128,-1,24
 305 53 305 53 328 73 c 1,25,-1
 359 35 l 1,26,27
 332 14 332 14 294.5 3.5 c 128,-1,28
 257 -7 257 -7 224 -7 c 0,29,30
 172 -7 172 -7 136.5 7 c 128,-1,31
 101 21 101 21 79.5 51.5 c 128,-1,32
 58 82 58 82 49 129 c 128,-1,33
 40 176 40 176 40 242 c 256,0,1
EndSplineSet
EndChar
StartChar: D
Encoding: 68 68 37
Width: 467
Flags: W
Fore
110 444 m 1,0,-1
 110 42 l 1,1,-1
 231 42 l 2,2,3
 273 42 273 42 301 53.5 c 128,-1,4
 329 65 329 65 345.5 88.5 c 128,-1,5
 362 112 362 112 368.5 148.5 c 128,-1,6
 375 185 375 185 375 236 c 0,7,8
 375 292 375 292 368.5 331 c 128,-1,9
 362 370 362 370 345.5 395.5 c 128,-1,10
 329 421 329 421 301 432.5 c 128,-1,11
 273 444 273 444 231 444 c 2,12,-1
 110 444 l 1,0,-1
60 0 m 1,13,-1
 60 486 l 1,14,-1
 231 486 l 2,15,16
 284 486 284 486 321.5 470.5 c 128,-1,17
 359 455 359 455 382.5 423.5 c 128,-1,18
 406 392 406 392 416.5 345 c 128,-1,19
 427 298 427 298 427 236 c 0,20,21
 427 178 427 178 416.5 133.5 c 128,-1,22
 406 89 406 89 382.5 59.5 c 128,-1,23
 359 30 359 30 321.5 15 c 128,-1,24
 284 0 284 0 231 0 c 2,25,-1
 60 0 l 1,13,-1
EndSplineSet
EndChar
StartChar: E
Encoding: 69 69 38
Width: 366
Flags: W
Fore
110 42 m 1,0,-1
 343 42 l 1,1,-1
 343 0 l 1,2,-1
 60 0 l 1,3,-1
 60 486 l 1,4,-1
 346 486 l 1,5,-1
 346 444 l 1,6,-1
 110 444 l 1,7,-1
 110 280 l 1,8,-1
 316 280 l 1,9,-1
 316 238 l 1,10,-1
 110 238 l 1,11,-1
 110 42 l 1,0,-1
EndSplineSet
EndChar
StartChar: F
Encoding: 70 70 39
Width: 366
Flags: W
Fore
110 0 m 1,0,-1
 60 0 l 1,1,-1
 60 486 l 1,2,-1
 346 486 l 1,3,-1
 346 444 l 1,4,-1
 110 444 l 1,5,-1
 110 280 l 1,6,-1
 316 280 l 1,7,-1
 316 238 l 1,8,-1
 110 238 l 1,9,-1
 110 0 l 1,0,-1
EndSplineSet
EndChar
StartChar: G
Encoding: 71 71 40
Width: 435
Flags: W
Fore
338 216 m 1,0,-1
 297 216 l 2,1,2
 278 216 278 216 267 214 c 128,-1,3
 256 212 256 212 250 211 c 128,-1,4
 244 210 244 210 241.5 211 c 128,-1,5
 239 212 239 212 236 218 c 0,6,7
 231 228 231 228 230 240.5 c 128,-1,8
 229 253 229 253 232 259 c 1,9,-1
 385 259 l 1,10,-1
 385 54 l 1,11,12
 365 33 365 33 327.5 13 c 128,-1,13
 290 -7 290 -7 234 -7 c 0,14,15
 182 -7 182 -7 146.5 7 c 128,-1,16
 111 21 111 21 89.5 51.5 c 128,-1,17
 68 82 68 82 59 129 c 128,-1,18
 50 176 50 176 50 242 c 256,19,20
 50 308 50 308 59 355 c 128,-1,21
 68 402 68 402 89.5 432.5 c 128,-1,22
 111 463 111 463 146.5 477 c 128,-1,23
 182 491 182 491 234 491 c 0,24,25
 267 491 267 491 304.5 480.5 c 128,-1,26
 342 470 342 470 369 449 c 1,27,-1
 338 411 l 1,28,29
 315 431 315 431 289 439 c 128,-1,30
 263 447 263 447 233 447 c 0,31,32
 191 447 191 447 164.5 435.5 c 128,-1,33
 138 424 138 424 123 399.5 c 128,-1,34
 108 375 108 375 103 336 c 128,-1,35
 98 297 98 297 98 242 c 256,36,37
 98 187 98 187 103 148.5 c 128,-1,38
 108 110 108 110 123 85 c 128,-1,39
 138 60 138 60 164.5 48.5 c 128,-1,40
 191 37 191 37 233 37 c 0,41,42
 263 37 263 37 289 45 c 128,-1,43
 315 53 315 53 338 73 c 1,44,-1
 338 216 l 1,0,-1
EndSplineSet
EndChar
StartChar: H
Encoding: 72 72 41
Width: 456
Flags: W
Fore
346 280 m 1,0,-1
 346 486 l 1,1,-1
 396 486 l 1,2,-1
 396 0 l 1,3,-1
 346 0 l 1,4,-1
 346 238 l 1,5,-1
 110 238 l 1,6,-1
 110 0 l 1,7,-1
 60 0 l 1,8,-1
 60 486 l 1,9,-1
 110 486 l 1,10,-1
 110 280 l 1,11,-1
 346 280 l 1,0,-1
EndSplineSet
EndChar
StartChar: I
Encoding: 73 73 42
Width: 276
Flags: W
Fore
161 42 m 1,0,-1
 253 42 l 1,1,-1
 253 0 l 1,2,-1
 20 0 l 1,3,-1
 20 42 l 1,4,-1
 112 42 l 1,5,-1
 112 444 l 1,6,-1
 23 444 l 1,7,-1
 23 486 l 1,8,-1
 256 486 l 1,9,-1
 256 444 l 1,10,-1
 161 444 l 1,11,-1
 161 42 l 1,0,-1
EndSplineSet
EndChar
StartChar: J
Encoding: 74 74 43
Width: 331
Flags: W
Fore
271 239 m 2,0,1
 271 173 271 173 266.5 126.5 c 128,-1,2
 262 80 262 80 248 50 c 128,-1,3
 234 20 234 20 207 6.5 c 128,-1,4
 180 -7 180 -7 135 -7 c 0,5,6
 102 -7 102 -7 69.5 3.5 c 128,-1,7
 37 14 37 14 10 35 c 1,8,-1
 41 73 l 1,9,10
 64 53 64 53 85 45 c 128,-1,11
 106 37 106 37 136 37 c 0,12,13
 167 37 167 37 184 48 c 128,-1,14
 201 59 201 59 209.5 83 c 128,-1,15
 218 107 218 107 219.5 145.5 c 128,-1,16
 221 184 221 184 221 239 c 2,17,-1
 221 486 l 1,18,-1
 271 486 l 1,19,-1
 271 239 l 2,0,1
EndSplineSet
EndChar
StartChar: K
Encoding: 75 75 44
Width: 437
Flags: W
Fore
60 0 m 1,0,-1
 60 486 l 1,1,-1
 110 486 l 1,2,-1
 110 260 l 1,3,-1
 336 486 l 1,4,-1
 395 486 l 1,5,-1
 188 278 l 1,6,-1
 397 0 l 1,7,-1
 343 0 l 1,8,-1
 157 246 l 1,9,-1
 110 200 l 1,10,-1
 110 0 l 1,11,-1
 60 0 l 1,0,-1
EndSplineSet
EndChar
StartChar: L
Encoding: 76 76 45
Width: 356
Flags: W
Fore
110 42 m 1,0,-1
 346 42 l 1,1,-1
 346 0 l 1,2,-1
 60 0 l 1,3,-1
 60 486 l 1,4,-1
 110 486 l 1,5,-1
 110 42 l 1,0,-1
EndSplineSet
EndChar
StartChar: M
Encoding: 77 77 46
Width: 562
Flags: W
Fore
419 486 m 1,0,-1
 502 486 l 1,1,-1
 502 0 l 1,2,-1
 452 0 l 1,3,-1
 452 444 l 1,4,-1
 306 0 l 1,5,-1
 256 0 l 1,6,-1
 110 444 l 1,7,-1
 110 0 l 1,8,-1
 60 0 l 1,9,-1
 60 486 l 1,10,-1
 143 486 l 1,11,-1
 281 50 l 1,12,-1
 419 486 l 1,0,-1
EndSplineSet
EndChar
StartChar: N
Encoding: 78 78 47
Width: 476
Flags: W
Fore
60 0 m 1,0,-1
 60 486 l 1,1,-1
 143 486 l 1,2,-1
 366 90 l 1,3,-1
 366 486 l 1,4,-1
 416 486 l 1,5,-1
 416 0 l 1,6,-1
 366 0 l 1,7,-1
 110 444 l 1,8,-1
 110 0 l 1,9,-1
 60 0 l 1,0,-1
EndSplineSet
EndChar
StartChar: O
Encoding: 79 79 48
Width: 472
Flags: W
Fore
236 41 m 0,0,1
 278 41 278 41 306 52.5 c 128,-1,2
 334 64 334 64 350.5 88 c 128,-1,3
 367 112 367 112 373.5 149 c 128,-1,4
 380 186 380 186 380 237 c 0,5,6
 380 293 380 293 373.5 332 c 128,-1,7
 367 371 367 371 350.5 396 c 128,-1,8
 334 421 334 421 306 432.5 c 128,-1,9
 278 444 278 444 236 444 c 0,10,11
 193 444 193 444 165.5 432.5 c 128,-1,12
 138 421 138 421 121.5 396 c 128,-1,13
 105 371 105 371 98.5 332 c 128,-1,14
 92 293 92 293 92 237 c 0,15,16
 92 186 92 186 98.5 149 c 128,-1,17
 105 112 105 112 121.5 88 c 128,-1,18
 138 64 138 64 165.5 52.5 c 128,-1,19
 193 41 193 41 236 41 c 0,0,1
236 -6 m 0,20,21
 130 -6 130 -6 85 57 c 128,-1,22
 40 120 40 120 40 237 c 0,23,24
 40 362 40 362 84.5 425.5 c 128,-1,25
 129 489 129 489 236 489 c 0,26,27
 289 489 289 489 326.5 473 c 128,-1,28
 364 457 364 457 387.5 425.5 c 128,-1,29
 411 394 411 394 421.5 346.5 c 128,-1,30
 432 299 432 299 432 237 c 0,31,32
 432 179 432 179 421.5 133.5 c 128,-1,33
 411 88 411 88 387.5 57 c 128,-1,34
 364 26 364 26 326.5 10 c 128,-1,35
 289 -6 289 -6 236 -6 c 0,20,21
EndSplineSet
EndChar
StartChar: P
Encoding: 80 80 49
Width: 427
Flags: W
Fore
110 444 m 1,0,-1
 110 222 l 1,1,-1
 211 222 l 2,2,3
 288 222 288 222 317.5 248.5 c 128,-1,4
 347 275 347 275 347 331 c 0,5,6
 347 364 347 364 340.5 386 c 128,-1,7
 334 408 334 408 319 420.5 c 128,-1,8
 304 433 304 433 280 438.5 c 128,-1,9
 256 444 256 444 221 444 c 2,10,-1
 110 444 l 1,0,-1
110 180 m 1,11,-1
 110 0 l 1,12,-1
 60 0 l 1,13,-1
 60 486 l 1,14,-1
 221 486 l 2,15,16
 271 486 271 486 304.5 476.5 c 128,-1,17
 338 467 338 467 358.5 448 c 128,-1,18
 379 429 379 429 388 400 c 128,-1,19
 397 371 397 371 397 331 c 0,20,21
 397 295 397 295 386.5 267 c 128,-1,22
 376 239 376 239 352.5 219.5 c 128,-1,23
 329 200 329 200 291.5 190 c 128,-1,24
 254 180 254 180 201 180 c 2,25,-1
 110 180 l 1,11,-1
EndSplineSet
EndChar
StartChar: Q
Encoding: 81 81 50
Width: 512
Flags: W
Fore
256 41 m 0,0,1
 298 41 298 41 326 52.5 c 128,-1,2
 354 64 354 64 370.5 88 c 128,-1,3
 387 112 387 112 393.5 149 c 128,-1,4
 400 186 400 186 400 237 c 0,5,6
 400 293 400 293 393.5 332 c 128,-1,7
 387 371 387 371 370.5 396 c 128,-1,8
 354 421 354 421 326 432.5 c 128,-1,9
 298 444 298 444 256 444 c 0,10,11
 213 444 213 444 185.5 432.5 c 128,-1,12
 158 421 158 421 141.5 396 c 128,-1,13
 125 371 125 371 118.5 332 c 128,-1,14
 112 293 112 293 112 237 c 0,15,16
 112 186 112 186 118.5 149 c 128,-1,17
 125 112 125 112 141.5 88 c 128,-1,18
 158 64 158 64 185.5 52.5 c 128,-1,19
 213 41 213 41 256 41 c 0,0,1
256 -6 m 0,20,21
 150 -6 150 -6 105 57 c 128,-1,22
 60 120 60 120 60 237 c 0,23,24
 60 362 60 362 104.5 425.5 c 128,-1,25
 149 489 149 489 256 489 c 0,26,27
 309 489 309 489 346.5 473 c 128,-1,28
 384 457 384 457 407.5 425.5 c 128,-1,29
 431 394 431 394 441.5 346.5 c 128,-1,30
 452 299 452 299 452 237 c 0,31,32
 452 179 452 179 441.5 133.5 c 128,-1,33
 431 88 431 88 407.5 57 c 128,-1,34
 384 26 384 26 346.5 10 c 128,-1,35
 309 -6 309 -6 256 -6 c 0,20,21
302 146 m 1,36,-1
 452 -36 l 1,37,-1
 402 -52 l 1,38,-1
 260 131 l 1,39,-1
 302 146 l 1,36,-1
EndSplineSet
EndChar
StartChar: R
Encoding: 82 82 51
Width: 437
Flags: W
Fore
221 486 m 2,0,1
 271 486 271 486 304.5 477 c 128,-1,2
 338 468 338 468 358.5 450 c 128,-1,3
 379 432 379 432 388 406 c 128,-1,4
 397 380 397 380 397 346 c 0,5,6
 397 292 397 292 366 260.5 c 128,-1,7
 335 229 335 229 290 223 c 1,8,-1
 395 0 l 1,9,-1
 338 0 l 1,10,-1
 244 220 l 1,11,-1
 110 220 l 1,12,-1
 110 0 l 1,13,-1
 60 0 l 1,14,-1
 60 486 l 1,15,-1
 221 486 l 2,0,1
110 262 m 1,16,-1
 231 262 l 2,17,18
 251 262 251 262 271 266 c 128,-1,19
 291 270 291 270 307.5 279.5 c 128,-1,20
 324 289 324 289 334.5 305.5 c 128,-1,21
 345 322 345 322 345 346 c 0,22,23
 345 375 345 375 335.5 394 c 128,-1,24
 326 413 326 413 309.5 424 c 128,-1,25
 293 435 293 435 270 439.5 c 128,-1,26
 247 444 247 444 221 444 c 2,27,-1
 110 444 l 1,28,-1
 110 262 l 1,16,-1
EndSplineSet
EndChar
StartChar: S
Encoding: 83 83 52
Width: 446
Flags: W
Fore
87 158 m 1,0,1
 103 94 103 94 141 65 c 128,-1,2
 179 36 179 36 245 36 c 0,3,4
 297 36 297 36 326.5 58 c 128,-1,5
 356 80 356 80 356 130 c 0,6,7
 356 163 356 163 333.5 181.5 c 128,-1,8
 311 200 311 200 278 212 c 128,-1,9
 245 224 245 224 205.5 234 c 128,-1,10
 166 244 166 244 133 259.5 c 128,-1,11
 100 275 100 275 77.5 300.5 c 128,-1,12
 55 326 55 326 55 370 c 0,13,14
 55 427 55 427 96 457.5 c 128,-1,15
 137 488 137 488 215 488 c 0,16,17
 281 488 281 488 327 454 c 128,-1,18
 373 420 373 420 393 355 c 1,19,-1
 349 342 l 1,20,21
 334 389 334 389 301.5 418 c 128,-1,22
 269 447 269 447 215 447 c 0,23,24
 105 447 105 447 105 370 c 0,25,26
 105 337 105 337 127.5 318.5 c 128,-1,27
 150 300 150 300 183 287.5 c 128,-1,28
 216 275 216 275 255.5 265.5 c 128,-1,29
 295 256 295 256 328 241 c 128,-1,30
 361 226 361 226 383.5 202 c 128,-1,31
 406 178 406 178 406 137 c 0,32,33
 406 65 406 65 364 29.5 c 128,-1,34
 322 -6 322 -6 244 -6 c 0,35,36
 159 -6 159 -6 111 30 c 128,-1,37
 63 66 63 66 40 144 c 1,38,-1
 87 158 l 1,0,1
EndSplineSet
EndChar
StartChar: T
Encoding: 84 84 53
Width: 370
Flags: W
Fore
210 0 m 1,0,-1
 160 0 l 1,1,-1
 160 444 l 1,2,-1
 10 444 l 1,3,-1
 10 486 l 1,4,-1
 360 486 l 1,5,-1
 360 444 l 1,6,-1
 210 444 l 1,7,-1
 210 0 l 1,0,-1
EndSplineSet
EndChar
StartChar: U
Encoding: 85 85 54
Width: 492
Flags: W
Fore
60 486 m 1,0,-1
 110 486 l 1,1,-1
 110 239 l 2,2,3
 110 209 110 209 109 184.5 c 128,-1,4
 108 160 108 160 108 140 c 0,5,6
 108 117 108 117 111 98.5 c 128,-1,7
 114 80 114 80 125 69 c 0,8,9
 141 52 141 52 173.5 44 c 128,-1,10
 206 36 206 36 244 36 c 0,11,12
 281 36 281 36 316.5 44 c 128,-1,13
 352 52 352 52 367 69 c 0,14,15
 378 80 378 80 381 98.5 c 128,-1,16
 384 117 384 117 384 140 c 0,17,18
 384 160 384 160 383 184.5 c 128,-1,19
 382 209 382 209 382 239 c 2,20,-1
 382 486 l 1,21,-1
 432 486 l 1,22,-1
 432 161 l 2,23,24
 432 114 432 114 427 88.5 c 128,-1,25
 422 63 422 63 406 43 c 0,26,27
 391 27 391 27 370 17.5 c 128,-1,28
 349 8 349 8 326.5 2.5 c 128,-1,29
 304 -3 304 -3 282 -4.5 c 128,-1,30
 260 -6 260 -6 244 -6 c 256,31,32
 228 -6 228 -6 206.5 -4.5 c 128,-1,33
 185 -3 185 -3 163 2 c 128,-1,34
 141 7 141 7 120.5 17 c 128,-1,35
 100 27 100 27 86 43 c 0,36,37
 69 62 69 62 64.5 88 c 128,-1,38
 60 114 60 114 60 161 c 2,39,-1
 60 486 l 1,0,-1
EndSplineSet
EndChar
StartChar: V
Encoding: 86 86 55
Width: 443
Flags: W
Fore
369 486 m 1,0,-1
 423 486 l 1,1,-1
 248 0 l 1,2,-1
 196 0 l 1,3,-1
 20 486 l 1,4,-1
 74 486 l 1,5,-1
 222 41 l 1,6,-1
 369 486 l 1,0,-1
EndSplineSet
EndChar
StartChar: W
Encoding: 87 87 56
Width: 566
Flags: W
Fore
307 486 m 1,0,-1
 414 51 l 1,1,-1
 414 51 l 1,2,-1
 492 486 l 1,3,-1
 546 486 l 1,4,-1
 445 0 l 1,5,-1
 388 0 l 1,6,-1
 283 436 l 1,7,-1
 178 0 l 1,8,-1
 121 0 l 1,9,-1
 20 486 l 1,10,-1
 74 486 l 1,11,-1
 152 51 l 1,12,-1
 152 51 l 1,13,-1
 259 486 l 1,14,-1
 307 486 l 1,0,-1
EndSplineSet
EndChar
StartChar: X
Encoding: 88 88 57
Width: 409
Flags: W
Fore
20 486 m 1,0,-1
 80 486 l 1,1,-1
 202 269 l 1,2,-1
 323 486 l 1,3,-1
 383 486 l 1,4,-1
 233 241 l 1,5,-1
 399 0 l 1,6,-1
 338 0 l 1,7,-1
 202 208 l 1,8,-1
 69 0 l 1,9,-1
 10 0 l 1,10,-1
 172 241 l 1,11,-1
 20 486 l 1,0,-1
EndSplineSet
EndChar
StartChar: Y
Encoding: 89 89 58
Width: 423
Flags: W
Fore
236 0 m 1,0,-1
 186 0 l 1,1,-1
 186 190 l 1,2,-1
 20 486 l 1,3,-1
 74 486 l 1,4,-1
 212 231 l 1,5,-1
 349 486 l 1,6,-1
 403 486 l 1,7,-1
 236 190 l 1,8,-1
 236 0 l 1,0,-1
EndSplineSet
EndChar
StartChar: Z
Encoding: 90 90 59
Width: 396
Flags: W
Fore
296 443 m 1,0,-1
 40 443 l 1,1,-1
 40 486 l 1,2,-1
 351 486 l 1,3,-1
 351 440 l 1,4,-1
 100 42 l 1,5,-1
 356 42 l 1,6,-1
 356 0 l 1,7,-1
 42 0 l 1,8,-1
 42 42 l 1,9,-1
 296 443 l 1,0,-1
EndSplineSet
EndChar
StartChar: bracketleft
Encoding: 91 91 60
Width: 270
Flags: W
Fore
222 585 m 1,0,-1
 222 555 l 1,1,-1
 120 555 l 1,2,-1
 120 -29 l 1,3,-1
 222 -29 l 1,4,-1
 222 -59 l 1,5,-1
 71 -59 l 1,6,-1
 71 585 l 1,7,-1
 222 585 l 1,0,-1
EndSplineSet
EndChar
StartChar: backslash
Encoding: 92 92 61
Width: 225
Flags: W
Fore
-10 593 m 1,0,-1
 35 593 l 1,1,-1
 235 -8 l 1,2,-1
 187 -8 l 1,3,-1
 -10 593 l 1,0,-1
EndSplineSet
EndChar
StartChar: bracketright
Encoding: 93 93 62
Width: 270
Flags: W
Fore
48 -59 m 1,0,-1
 48 -29 l 1,1,-1
 150 -29 l 1,2,-1
 150 555 l 1,3,-1
 48 555 l 1,4,-1
 48 585 l 1,5,-1
 199 585 l 1,6,-1
 199 -59 l 1,7,-1
 48 -59 l 1,0,-1
EndSplineSet
EndChar
StartChar: asciicircum
Encoding: 94 94 63
Width: 456
Flags: W
Fore
248 549 m 1,0,-1
 413 225 l 1,1,-1
 363 225 l 1,2,-1
 226 494 l 1,3,-1
 93 225 l 1,4,-1
 43 225 l 1,5,-1
 207 549 l 1,6,-1
 248 549 l 1,0,-1
EndSplineSet
EndChar
StartChar: underscore
Encoding: 95 95 64
Width: 475
Flags: W
Fore
0 -119 m 1,0,-1
 0 -71 l 1,1,-1
 475 -71 l 1,2,-1
 475 -119 l 1,3,-1
 0 -119 l 1,0,-1
EndSplineSet
EndChar
StartChar: grave
Encoding: 96 96 65
Width: 169
Flags: W
Fore
48 544 m 1,0,-1
 132 439 l 1,1,-1
 93 439 l 1,2,-1
 -10 544 l 1,3,-1
 48 544 l 1,0,-1
EndSplineSet
EndChar
StartChar: a
Encoding: 97 97 66
Width: 380
Flags: W
Fore
273 48 m 1,0,1
 238 19 238 19 206 5.5 c 128,-1,2
 174 -8 174 -8 128 -8 c 256,3,4
 82 -8 82 -8 51 24 c 128,-1,5
 20 56 20 56 20 106 c 0,6,7
 20 146 20 146 36.5 171 c 128,-1,8
 53 196 53 196 85 210.5 c 128,-1,9
 117 225 117 225 164 231 c 128,-1,10
 211 237 211 237 273 240 c 1,11,-1
 273 287 l 2,12,13
 273 327 273 327 253 347 c 128,-1,14
 233 367 233 367 182 367 c 0,15,16
 145 367 145 367 116.5 347.5 c 128,-1,17
 88 328 88 328 62 295 c 0,18,19
 58 290 58 290 51 293 c 128,-1,20
 44 296 44 296 37 301 c 0,21,22
 29 307 29 307 21 317 c 1,23,24
 62 365 62 365 102.5 384 c 128,-1,25
 143 403 143 403 184 403 c 0,26,27
 252 403 252 403 284 374 c 128,-1,28
 316 345 316 345 316 279 c 2,29,-1
 316 72 l 2,30,31
 316 49 316 49 319.5 32.5 c 128,-1,32
 323 16 323 16 326 8 c 1,33,34
 308 0 308 0 293 0 c 0,35,36
 284 0 284 0 279 8 c 1,37,38
 276 16 276 16 274 31 c 0,39,40
 273 39 273 39 273 48 c 1,0,1
271 203 m 1,41,42
 205 202 205 202 164 193.5 c 128,-1,43
 123 185 123 185 100.5 172 c 128,-1,44
 78 159 78 159 70 142 c 128,-1,45
 62 125 62 125 62 107 c 0,46,47
 62 74 62 74 83.5 51.5 c 128,-1,48
 105 29 105 29 136 29 c 0,49,50
 168 29 168 29 204.5 46.5 c 128,-1,51
 241 64 241 64 271 94 c 1,52,-1
 271 203 l 1,41,42
EndSplineSet
Substitution: 0 65534 'L030' uni0E38
Substitution: 0 65534 'L030' uni0E38
EndChar
StartChar: b
Encoding: 98 98 67
Width: 415
Flags: W
Fore
113 549 m 1,0,-1
 113 354 l 1,1,2
 148 375 148 375 179.5 389 c 128,-1,3
 211 403 211 403 251 403 c 0,4,5
 321 403 321 403 354 349 c 128,-1,6
 387 295 387 295 387 200 c 0,7,8
 387 91 387 91 350 41.5 c 128,-1,9
 313 -8 313 -8 244 -8 c 0,10,11
 202 -8 202 -8 172 6 c 128,-1,12
 142 20 142 20 112 51 c 1,13,14
 110 33 l 0,15,16
 109 25 109 25 107.5 18.5 c 128,-1,17
 106 12 106 12 104 8 c 0,18,19
 99 0 99 0 90 0 c 0,20,21
 75 0 75 0 57 8 c 1,22,23
 60 19 60 19 65 37 c 128,-1,24
 70 55 70 55 70 92 c 2,25,-1
 70 549 l 1,26,-1
 113 549 l 1,0,-1
113 101 m 1,27,28
 135 70 135 70 167 49.5 c 128,-1,29
 199 29 199 29 241 29 c 0,30,31
 271 29 271 29 290.5 40.5 c 128,-1,32
 310 52 310 52 321.5 73 c 128,-1,33
 333 94 333 94 337.5 124 c 128,-1,34
 342 154 342 154 342 192 c 0,35,36
 342 234 342 234 337.5 267 c 128,-1,37
 333 300 333 300 321.5 322 c 128,-1,38
 310 344 310 344 290 355.5 c 128,-1,39
 270 367 270 367 239 367 c 0,40,41
 222 367 222 367 205 361 c 128,-1,42
 188 355 188 355 171.5 346 c 128,-1,43
 155 337 155 337 140 326 c 128,-1,44
 125 315 125 315 113 305 c 1,45,-1
 113 101 l 1,27,28
EndSplineSet
Substitution: 0 65534 'L030' uni0E39
Substitution: 0 65534 'L030' uni0E39
EndChar
StartChar: c
Encoding: 99 99 68
Width: 380
Flags: W
Fore
292 304 m 1,0,1
 276 331 276 331 254 349 c 128,-1,2
 232 367 232 367 193 367 c 0,3,4
 158 367 158 367 134.5 358 c 128,-1,5
 111 349 111 349 97.5 328.5 c 128,-1,6
 84 308 84 308 78.5 276 c 128,-1,7
 73 244 73 244 73 198 c 0,8,9
 73 160 73 160 77.5 129 c 128,-1,10
 82 98 82 98 95 75.5 c 128,-1,11
 108 53 108 53 131.5 41 c 128,-1,12
 155 29 155 29 192 29 c 0,13,14
 234 29 234 29 258.5 50 c 128,-1,15
 283 71 283 71 296 94 c 1,16,-1
 331 74 l 1,17,18
 322 58 322 58 309.5 43.5 c 128,-1,19
 297 29 297 29 280.5 17.5 c 128,-1,20
 264 6 264 6 242 -1 c 128,-1,21
 220 -8 220 -8 192 -8 c 0,22,23
 143 -8 143 -8 111 7.5 c 128,-1,24
 79 23 79 23 60.5 50 c 128,-1,25
 42 77 42 77 35 115 c 128,-1,26
 28 153 28 153 28 198 c 0,27,28
 28 299 28 299 65 351 c 128,-1,29
 102 403 102 403 193 403 c 0,30,31
 244 403 244 403 275.5 381.5 c 128,-1,32
 307 360 307 360 331 318 c 1,33,-1
 292 304 l 1,0,1
EndSplineSet
Substitution: 0 65534 'L030' uni0E3A
Substitution: 0 65534 'L030' uni0E3A
EndChar
StartChar: d
Encoding: 100 100 69
Width: 415
Flags: W
Fore
302 315 m 1,0,1
 296 323 296 323 285 332.5 c 128,-1,2
 274 342 274 342 259.5 349.5 c 128,-1,3
 245 357 245 357 229 362 c 128,-1,4
 213 367 213 367 196 367 c 0,5,6
 133 367 133 367 103 322 c 128,-1,7
 73 277 73 277 73 192 c 0,8,9
 73 154 73 154 77.5 124 c 128,-1,10
 82 94 82 94 93.5 73 c 128,-1,11
 105 52 105 52 124.5 40.5 c 128,-1,12
 144 29 144 29 174 29 c 0,13,14
 216 29 216 29 248 49.5 c 128,-1,15
 280 70 280 70 302 101 c 1,16,-1
 302 315 l 1,0,1
345 82 m 2,17,18
 345 59 345 59 348.5 39 c 128,-1,19
 352 19 352 19 355 8 c 1,20,21
 337 0 337 0 323 0 c 0,22,23
 314 0 314 0 309 8 c 1,24,25
 306 16 306 16 304 33 c 0,26,27
 303 42 303 42 303 51 c 1,28,29
 273 20 273 20 243 6 c 128,-1,30
 213 -8 213 -8 171 -8 c 0,31,32
 102 -8 102 -8 65 41.5 c 128,-1,33
 28 91 28 91 28 200 c 0,34,35
 28 295 28 295 71 349 c 128,-1,36
 114 403 114 403 184 403 c 0,37,38
 224 403 224 403 253 389.5 c 128,-1,39
 282 376 282 376 302 364 c 1,40,-1
 302 549 l 1,41,-1
 345 549 l 1,42,-1
 345 82 l 2,17,18
EndSplineSet
EndChar
StartChar: e
Encoding: 101 101 70
Width: 380
Flags: W
Fore
73 196 m 1,0,1
 73 162 73 162 80 132 c 128,-1,2
 87 102 87 102 102.5 79 c 128,-1,3
 118 56 118 56 142 42.5 c 128,-1,4
 166 29 166 29 200 29 c 0,5,6
 219 29 219 29 234 33 c 128,-1,7
 249 37 249 37 262 46 c 128,-1,8
 275 55 275 55 287.5 70 c 128,-1,9
 300 85 300 85 315 108 c 1,10,-1
 352 89 l 1,11,12
 336 63 336 63 320.5 44.5 c 128,-1,13
 305 26 305 26 287 14.5 c 128,-1,14
 269 3 269 3 247 -2.5 c 128,-1,15
 225 -8 225 -8 196 -8 c 0,16,17
 118 -8 118 -8 73 42.5 c 128,-1,18
 28 93 28 93 28 198 c 0,19,20
 28 255 28 255 41.5 294 c 128,-1,21
 55 333 55 333 77.5 357.5 c 128,-1,22
 100 382 100 382 130.5 392.5 c 128,-1,23
 161 403 161 403 195 403 c 0,24,25
 235 403 235 403 264 388 c 128,-1,26
 293 373 293 373 311.5 345.5 c 128,-1,27
 330 318 330 318 339 280 c 128,-1,28
 348 242 348 242 348 196 c 1,29,-1
 73 196 l 1,0,1
302 233 m 1,30,31
 300 298 300 298 272.5 332.5 c 128,-1,32
 245 367 245 367 193 367 c 0,33,34
 163 367 163 367 140.5 356 c 128,-1,35
 118 345 118 345 103 327 c 128,-1,36
 88 309 88 309 80.5 284.5 c 128,-1,37
 73 260 73 260 73 233 c 1,38,-1
 302 233 l 1,30,31
EndSplineSet
EndChar
StartChar: f
Encoding: 102 102 71
Width: 212
Flags: W
Fore
118 359 m 1,0,-1
 118 0 l 1,1,-1
 73 0 l 1,2,-1
 73 359 l 1,3,-1
 8 359 l 1,4,-1
 8 395 l 1,5,-1
 73 395 l 1,6,-1
 73 451 l 2,7,8
 73 503 73 503 94.5 530 c 128,-1,9
 116 557 116 557 167 557 c 0,10,11
 179 557 179 557 192.5 556 c 128,-1,12
 206 555 206 555 217 551 c 1,13,14
 224 537 224 537 221.5 521 c 128,-1,15
 219 505 219 505 214 505 c 1,16,17
 204 510 204 510 194 513.5 c 128,-1,18
 184 517 184 517 172 517 c 0,19,20
 145 517 145 517 131.5 504.5 c 128,-1,21
 118 492 118 492 118 457 c 2,22,-1
 118 395 l 1,23,-1
 199 395 l 1,24,-1
 199 359 l 1,25,-1
 118 359 l 1,0,-1
EndSplineSet
EndChar
StartChar: g
Encoding: 103 103 72
Width: 380
Flags: W
Fore
306 355 m 1,0,1
 319 338 319 338 325 317.5 c 128,-1,2
 331 297 331 297 331 268 c 0,3,4
 331 226 331 226 320 199 c 128,-1,5
 309 172 309 172 289 156 c 128,-1,6
 269 140 269 140 241 134 c 128,-1,7
 213 128 213 128 178 128 c 0,8,9
 138 128 138 128 109 138 c 1,10,11
 90 130 90 130 83 121.5 c 128,-1,12
 76 113 76 113 76 102 c 0,13,14
 76 93 76 93 80.5 87 c 128,-1,15
 85 81 85 81 98 77.5 c 128,-1,16
 111 74 111 74 135.5 72 c 128,-1,17
 160 70 160 70 200 70 c 0,18,19
 289 70 289 70 326 47 c 128,-1,20
 363 24 363 24 363 -32 c 0,21,22
 363 -61 363 -61 355 -81.5 c 128,-1,23
 347 -102 347 -102 326.5 -115 c 128,-1,24
 306 -128 306 -128 272.5 -134 c 128,-1,25
 239 -140 239 -140 188 -140 c 256,26,27
 137 -140 137 -140 104 -133.5 c 128,-1,28
 71 -127 71 -127 52 -114.5 c 128,-1,29
 33 -102 33 -102 26 -85 c 128,-1,30
 19 -68 19 -68 19 -47 c 0,31,32
 19 -21 19 -21 31 0.5 c 128,-1,33
 43 22 43 22 85 37 c 1,34,-1
 85 39 l 1,35,36
 56 44 56 44 45.5 59.5 c 128,-1,37
 35 75 35 75 35 96 c 0,38,39
 35 122 35 122 48 136.5 c 128,-1,40
 61 151 61 151 82 156 c 1,41,42
 55 173 55 173 44.5 201 c 128,-1,43
 34 229 34 229 34 260 c 0,44,45
 34 330 34 330 69 366.5 c 128,-1,46
 104 403 104 403 191 403 c 0,47,48
 222 403 222 403 244 395.5 c 128,-1,49
 266 388 266 388 280 380 c 1,50,51
 297 397 297 397 316.5 407.5 c 128,-1,52
 336 418 336 418 360 418 c 0,53,54
 365 418 365 418 367.5 413 c 128,-1,55
 370 408 370 408 371 400.5 c 128,-1,56
 372 393 372 393 370.5 385 c 128,-1,57
 369 377 369 377 366 370 c 1,58,59
 350 370 350 370 334 368 c 128,-1,60
 318 366 318 366 306 355 c 1,0,1
178 29 m 0,61,62
 144 29 144 29 122.5 23.5 c 128,-1,63
 101 18 101 18 88 8.5 c 128,-1,64
 75 -1 75 -1 70 -13 c 128,-1,65
 65 -25 65 -25 65 -38 c 0,66,67
 65 -60 65 -60 71.5 -73 c 128,-1,68
 78 -86 78 -86 92 -93 c 128,-1,69
 106 -100 106 -100 128 -102 c 128,-1,70
 150 -104 150 -104 181 -104 c 0,71,72
 218 -104 218 -104 243.5 -102 c 128,-1,73
 269 -100 269 -100 285.5 -93 c 128,-1,74
 302 -86 302 -86 309.5 -72.5 c 128,-1,75
 317 -59 317 -59 317 -36 c 0,76,77
 317 -16 317 -16 312 -3.5 c 128,-1,78
 307 9 307 9 292 16.5 c 128,-1,79
 277 24 277 24 249.5 26.5 c 128,-1,80
 222 29 222 29 178 29 c 0,61,62
80 265 m 0,81,82
 80 234 80 234 87 214.5 c 128,-1,83
 94 195 94 195 107 184.5 c 128,-1,84
 120 174 120 174 139 170 c 128,-1,85
 158 166 158 166 182 166 c 0,86,87
 210 166 210 166 229.5 170 c 128,-1,88
 249 174 249 174 261.5 184.5 c 128,-1,89
 274 195 274 195 279.5 214.5 c 128,-1,90
 285 234 285 234 285 265 c 0,91,92
 285 297 285 297 279.5 316.5 c 128,-1,93
 274 336 274 336 261.5 347.5 c 128,-1,94
 249 359 249 359 229.5 363 c 128,-1,95
 210 367 210 367 182 367 c 0,96,97
 127 367 127 367 103.5 345 c 128,-1,98
 80 323 80 323 80 265 c 0,81,82
EndSplineSet
EndChar
StartChar: h
Encoding: 104 104 73
Width: 423
Flags: W
Fore
63 0 m 1,0,-1
 63 549 l 1,1,-1
 108 549 l 1,2,-1
 108 333 l 1,3,4
 140 366 140 366 169.5 384.5 c 128,-1,5
 199 403 199 403 243 403 c 0,6,7
 305 403 305 403 332.5 368.5 c 128,-1,8
 360 334 360 334 360 270 c 2,9,-1
 360 0 l 1,10,-1
 314 0 l 1,11,-1
 314 265 l 2,12,13
 314 315 314 315 297 341 c 128,-1,14
 280 367 280 367 234 367 c 0,15,16
 216 367 216 367 201 361.5 c 128,-1,17
 186 356 186 356 171.5 346 c 128,-1,18
 157 336 157 336 142 322 c 128,-1,19
 127 308 127 308 108 291 c 1,20,-1
 108 0 l 1,21,-1
 63 0 l 1,0,-1
EndSplineSet
EndChar
StartChar: i
Encoding: 105 105 74
Width: 169
Flags: W
Fore
107 0 m 1,0,-1
 62 0 l 1,1,-1
 62 395 l 1,2,-1
 107 395 l 1,3,-1
 107 0 l 1,0,-1
62 482 m 1,4,-1
 62 549 l 1,5,-1
 107 549 l 1,6,-1
 107 482 l 1,7,-1
 62 482 l 1,4,-1
EndSplineSet
EndChar
StartChar: j
Encoding: 106 106 75
Width: 169
Flags: W
Fore
107 -44 m 2,0,1
 107 -96 107 -96 85.5 -118 c 128,-1,2
 64 -140 64 -140 13 -140 c 0,3,4
 1 -140 1 -140 -12.5 -139 c 128,-1,5
 -26 -138 -26 -138 -37 -134 c 1,6,7
 -44 -120 -44 -120 -41.5 -104 c 128,-1,8
 -39 -88 -39 -88 -34 -88 c 1,9,10
 -24 -93 -24 -93 -14 -96.5 c 128,-1,11
 -4 -100 -4 -100 8 -100 c 0,12,13
 22 -100 22 -100 32 -98.5 c 128,-1,14
 42 -97 42 -97 48.5 -92 c 128,-1,15
 55 -87 55 -87 58.5 -77 c 128,-1,16
 62 -67 62 -67 62 -50 c 2,17,-1
 62 395 l 1,18,-1
 107 395 l 1,19,-1
 107 -44 l 2,0,1
62 482 m 1,20,-1
 62 549 l 1,21,-1
 107 549 l 1,22,-1
 107 482 l 1,23,-1
 62 482 l 1,20,-1
EndSplineSet
EndChar
StartChar: k
Encoding: 107 107 76
Width: 380
Flags: W
Fore
63 0 m 1,0,-1
 63 549 l 1,1,-1
 108 549 l 1,2,-1
 108 205 l 1,3,-1
 286 395 l 1,4,-1
 344 395 l 1,5,-1
 179 217 l 1,6,-1
 363 0 l 1,7,-1
 303 0 l 1,8,-1
 148 187 l 1,9,-1
 108 142 l 1,10,-1
 108 0 l 1,11,-1
 63 0 l 1,0,-1
EndSplineSet
EndChar
StartChar: l
Encoding: 108 108 77
Width: 169
Flags: W
Fore
62 549 m 1,0,-1
 107 549 l 1,1,-1
 107 0 l 1,2,-1
 62 0 l 1,3,-1
 62 549 l 1,0,-1
EndSplineSet
EndChar
StartChar: m
Encoding: 109 109 78
Width: 633
Flags: W
Fore
63 0 m 1,0,-1
 63 395 l 1,1,-1
 108 395 l 1,2,-1
 108 335 l 1,3,4
 123 351 123 351 137 363.5 c 128,-1,5
 151 376 151 376 166 385 c 128,-1,6
 181 394 181 394 198.5 398.5 c 128,-1,7
 216 403 216 403 239 403 c 0,8,9
 272 403 272 403 299.5 383 c 128,-1,10
 327 363 327 363 335 331 c 1,11,12
 362 362 362 362 392.5 382.5 c 128,-1,13
 423 403 423 403 466 403 c 0,14,15
 518 403 518 403 544 375.5 c 128,-1,16
 570 348 570 348 570 295 c 2,17,-1
 570 0 l 1,18,-1
 524 0 l 1,19,-1
 524 300 l 2,20,21
 524 367 524 367 456 367 c 0,22,23
 443 367 443 367 426.5 360.5 c 128,-1,24
 410 354 410 354 393.5 343.5 c 128,-1,25
 377 333 377 333 362.5 319 c 128,-1,26
 348 305 348 305 339 291 c 1,27,-1
 339 0 l 1,28,-1
 294 0 l 1,29,-1
 294 300 l 2,30,31
 294 333 294 333 276 350 c 128,-1,32
 258 367 258 367 225 367 c 0,33,34
 212 367 212 367 195.5 360.5 c 128,-1,35
 179 354 179 354 162.5 343.5 c 128,-1,36
 146 333 146 333 131.5 319 c 128,-1,37
 117 305 117 305 108 291 c 1,38,-1
 108 0 l 1,39,-1
 63 0 l 1,0,-1
EndSplineSet
EndChar
StartChar: n
Encoding: 110 110 79
Width: 423
Flags: W
Fore
63 0 m 1,0,-1
 63 395 l 1,1,-1
 108 395 l 1,2,-1
 108 334 l 1,3,4
 132 367 132 367 165.5 385 c 128,-1,5
 199 403 199 403 243 403 c 0,6,7
 305 403 305 403 332.5 368.5 c 128,-1,8
 360 334 360 334 360 270 c 2,9,-1
 360 0 l 1,10,-1
 314 0 l 1,11,-1
 314 265 l 2,12,13
 314 315 314 315 297 341 c 128,-1,14
 280 367 280 367 234 367 c 0,15,16
 197 367 197 367 167.5 346 c 128,-1,17
 138 325 138 325 108 291 c 1,18,-1
 108 0 l 1,19,-1
 63 0 l 1,0,-1
EndSplineSet
EndChar
StartChar: o
Encoding: 111 111 80
Width: 380
Flags: W
Fore
190 367 m 0,0,1
 156 367 156 367 133 355.5 c 128,-1,2
 110 344 110 344 97 322.5 c 128,-1,3
 84 301 84 301 78.5 269.5 c 128,-1,4
 73 238 73 238 73 198 c 0,5,6
 73 117 73 117 97 73 c 128,-1,7
 121 29 121 29 190 29 c 256,8,9
 259 29 259 29 283 73 c 128,-1,10
 307 117 307 117 307 198 c 0,11,12
 307 238 307 238 301.5 269.5 c 128,-1,13
 296 301 296 301 283 322.5 c 128,-1,14
 270 344 270 344 247.5 355.5 c 128,-1,15
 225 367 225 367 190 367 c 0,0,1
190 403 m 0,16,17
 237 403 237 403 268 389 c 128,-1,18
 299 375 299 375 317.5 348.5 c 128,-1,19
 336 322 336 322 344 284 c 128,-1,20
 352 246 352 246 352 198 c 256,21,22
 352 150 352 150 344 112 c 128,-1,23
 336 74 336 74 317.5 47 c 128,-1,24
 299 20 299 20 268 6 c 128,-1,25
 237 -8 237 -8 190 -8 c 0,26,27
 144 -8 144 -8 113 6 c 128,-1,28
 82 20 82 20 63 47 c 128,-1,29
 44 74 44 74 36 112 c 128,-1,30
 28 150 28 150 28 198 c 256,31,32
 28 246 28 246 36 284 c 128,-1,33
 44 322 44 322 63 348.5 c 128,-1,34
 82 375 82 375 113 389 c 128,-1,35
 144 403 144 403 190 403 c 0,16,17
EndSplineSet
EndChar
StartChar: p
Encoding: 112 112 81
Width: 415
Flags: W
Fore
113 70 m 1,0,1
 130 57 130 57 157.5 42.5 c 128,-1,2
 185 28 185 28 219 28 c 0,3,4
 289 28 289 28 315.5 73 c 128,-1,5
 342 118 342 118 342 203 c 0,6,7
 342 286 342 286 321.5 326 c 128,-1,8
 301 366 301 366 241 366 c 0,9,10
 199 366 199 366 167 340.5 c 128,-1,11
 135 315 135 315 113 284 c 1,12,-1
 113 70 l 1,0,1
97 395 m 0,13,14
 106 395 106 395 109.5 386 c 128,-1,15
 113 377 113 377 113 355 c 2,16,-1
 113 334 l 1,17,-1
 114 334 l 1,18,19
 137 369 137 369 171 386 c 128,-1,20
 205 403 205 403 244 403 c 0,21,22
 279 403 279 403 305.5 392 c 128,-1,23
 332 381 332 381 350 356.5 c 128,-1,24
 368 332 368 332 377.5 292.5 c 128,-1,25
 387 253 387 253 387 195 c 0,26,27
 387 100 387 100 348 46 c 128,-1,28
 309 -8 309 -8 231 -8 c 0,29,30
 191 -8 191 -8 166 -0.5 c 128,-1,31
 141 7 141 7 113 21 c 1,32,-1
 113 -140 l 1,33,-1
 70 -140 l 1,34,-1
 70 262 l 2,35,36
 70 271 70 271 70 288.5 c 128,-1,37
 70 306 70 306 69 324.5 c 128,-1,38
 68 343 68 343 66.5 360 c 128,-1,39
 65 377 65 377 62 385 c 1,40,-1
 72 390 l 2,41,42
 82 395 82 395 97 395 c 0,13,14
EndSplineSet
EndChar
StartChar: q
Encoding: 113 113 82
Width: 415
Flags: W
Fore
302 294 m 1,0,1
 280 325 280 325 248 345.5 c 128,-1,2
 216 366 216 366 174 366 c 0,3,4
 144 366 144 366 124.5 354.5 c 128,-1,5
 105 343 105 343 93.5 322 c 128,-1,6
 82 301 82 301 77.5 271 c 128,-1,7
 73 241 73 241 73 203 c 0,8,9
 73 118 73 118 99.5 73 c 128,-1,10
 126 28 126 28 196 28 c 0,11,12
 230 28 230 28 254 39 c 128,-1,13
 278 50 278 50 302 70 c 1,14,-1
 302 294 l 1,0,1
358 385 m 1,15,16
 355 377 355 377 352.5 361.5 c 128,-1,17
 350 346 350 346 348.5 328 c 128,-1,18
 347 310 347 310 346 292.5 c 128,-1,19
 345 275 345 275 345 262 c 2,20,-1
 345 -140 l 1,21,-1
 302 -140 l 1,22,-1
 302 21 l 1,23,24
 286 12 286 12 273 6.5 c 128,-1,25
 260 1 260 1 247 -2.5 c 128,-1,26
 234 -6 234 -6 219 -7 c 128,-1,27
 204 -8 204 -8 184 -8 c 0,28,29
 106 -8 106 -8 67 46 c 128,-1,30
 28 100 28 100 28 195 c 0,31,32
 28 304 28 304 65 353.5 c 128,-1,33
 102 403 102 403 171 403 c 0,34,35
 254 403 254 403 306 349 c 1,36,37
 307 371 307 371 310.5 383 c 128,-1,38
 314 395 314 395 323 395 c 0,39,40
 338 395 338 395 348 390 c 2,41,-1
 358 385 l 1,42,-1
 358 385 l 1,15,16
EndSplineSet
EndChar
StartChar: r
Encoding: 114 114 83
Width: 264
Flags: W
Fore
204 359 m 0,0,1
 187 359 187 359 169.5 348.5 c 128,-1,2
 152 338 152 338 137.5 319.5 c 128,-1,3
 123 301 123 301 114 276.5 c 128,-1,4
 105 252 105 252 105 223 c 2,5,-1
 105 0 l 1,6,-1
 59 0 l 1,7,-1
 59 395 l 1,8,-1
 105 395 l 1,9,-1
 105 320 l 1,10,-1
 106 320 l 1,11,12
 122 357 122 357 150 380 c 128,-1,13
 178 403 178 403 216 403 c 0,14,15
 221 403 221 403 232.5 402 c 128,-1,16
 244 401 244 401 250 398 c 1,17,18
 253 391 253 391 252.5 383 c 128,-1,19
 252 375 252 375 249.5 367.5 c 128,-1,20
 247 360 247 360 243.5 355 c 128,-1,21
 240 350 240 350 238 350 c 1,22,23
 223 359 223 359 204 359 c 0,0,1
EndSplineSet
EndChar
StartChar: s
Encoding: 115 115 84
Width: 337
Flags: W
Fore
28 81 m 2,0,1
 32 85 32 85 36 88.5 c 128,-1,2
 40 92 40 92 44 94 c 0,3,4
 55 99 55 99 62 90 c 0,5,6
 88 57 88 57 116.5 43 c 128,-1,7
 145 29 145 29 175 29 c 0,8,9
 213 29 213 29 238 51 c 128,-1,10
 263 73 263 73 263 105 c 0,11,12
 263 133 263 133 245.5 148.5 c 128,-1,13
 228 164 228 164 202.5 173.5 c 128,-1,14
 177 183 177 183 146.5 190 c 128,-1,15
 116 197 116 197 90.5 208.5 c 128,-1,16
 65 220 65 220 47.5 240 c 128,-1,17
 30 260 30 260 30 295 c 0,18,19
 30 323 30 323 41.5 343.5 c 128,-1,20
 53 364 53 364 71.5 377 c 128,-1,21
 90 390 90 390 112.5 396.5 c 128,-1,22
 135 403 135 403 156 403 c 0,23,24
 198 403 198 403 234.5 384.5 c 128,-1,25
 271 366 271 366 292 332 c 1,26,27
 289 328 289 328 285 324 c 0,28,29
 282 321 282 321 277.5 317.5 c 128,-1,30
 273 314 273 314 266 312 c 0,31,32
 261 310 261 310 258.5 312 c 128,-1,33
 256 314 256 314 251 320 c 0,34,35
 233 343 233 343 210 355 c 128,-1,36
 187 367 187 367 154 367 c 256,37,38
 121 367 121 367 98.5 350 c 128,-1,39
 76 333 76 333 76 297 c 0,40,41
 76 273 76 273 93.5 260 c 128,-1,42
 111 247 111 247 136.5 238 c 128,-1,43
 162 229 162 229 192.5 221.5 c 128,-1,44
 223 214 223 214 248.5 201 c 128,-1,45
 274 188 274 188 291.5 165.5 c 128,-1,46
 309 143 309 143 309 105 c 0,47,48
 309 78 309 78 297.5 57 c 128,-1,49
 286 36 286 36 267 21.5 c 128,-1,50
 248 7 248 7 223.5 -0.5 c 128,-1,51
 199 -8 199 -8 172 -8 c 0,52,53
 126 -8 126 -8 86.5 11 c 128,-1,54
 47 30 47 30 19 72 c 1,55,-1
 28 81 l 2,0,1
EndSplineSet
EndChar
StartChar: t
Encoding: 116 116 85
Width: 211
Flags: W
Fore
67 395 m 1,0,-1
 67 524 l 1,1,-1
 112 524 l 1,2,-1
 112 395 l 1,3,-1
 200 395 l 1,4,-1
 200 359 l 1,5,-1
 112 359 l 1,6,-1
 112 71 l 2,7,8
 112 51 112 51 120.5 42 c 128,-1,9
 129 33 129 33 151 33 c 0,10,11
 162 33 162 33 177 36.5 c 128,-1,12
 192 40 192 40 203 45 c 1,13,14
 205 44 205 44 207 37 c 128,-1,15
 209 30 209 30 209.5 22 c 128,-1,16
 210 14 210 14 209 7 c 128,-1,17
 208 0 208 0 203 -1 c 0,18,19
 191 -4 191 -4 177.5 -6 c 128,-1,20
 164 -8 164 -8 153 -8 c 0,21,22
 104 -8 104 -8 85.5 8.5 c 128,-1,23
 67 25 67 25 67 62 c 2,24,-1
 67 359 l 1,25,-1
 8 359 l 1,26,-1
 8 395 l 1,27,-1
 67 395 l 1,0,-1
EndSplineSet
EndChar
StartChar: u
Encoding: 117 117 86
Width: 423
Flags: W
Fore
316 63 m 1,0,1
 299 29 299 29 261.5 10.5 c 128,-1,2
 224 -8 224 -8 180 -8 c 0,3,4
 117 -8 117 -8 90 26.5 c 128,-1,5
 63 61 63 61 63 125 c 2,6,-1
 63 395 l 1,7,-1
 108 395 l 1,8,-1
 108 130 l 2,9,10
 108 81 108 81 125 55 c 128,-1,11
 142 29 142 29 188 29 c 0,12,13
 226 29 226 29 258.5 49.5 c 128,-1,14
 291 70 291 70 314 105 c 1,15,-1
 314 395 l 1,16,-1
 360 395 l 1,17,-1
 360 82 l 2,18,19
 360 47 360 47 363.5 32.5 c 128,-1,20
 367 18 367 18 370 8 c 1,21,22
 362 4 362 4 355 2 c 128,-1,23
 348 0 348 0 340 0 c 0,24,25
 336 0 336 0 330.5 1.5 c 128,-1,26
 325 3 325 3 322 8 c 0,27,28
 320 12 320 12 319 20.5 c 128,-1,29
 318 29 318 29 317 39 c 0,30,31
 316 50 316 50 316 63 c 1,0,1
EndSplineSet
EndChar
StartChar: v
Encoding: 118 118 87
Width: 337
Flags: W
Fore
10 395 m 1,0,-1
 59 395 l 1,1,-1
 167 70 l 1,2,-1
 169 70 l 1,3,-1
 278 395 l 1,4,-1
 327 395 l 1,5,-1
 191 0 l 1,6,-1
 146 0 l 1,7,-1
 10 395 l 1,0,-1
EndSplineSet
EndChar
StartChar: w
Encoding: 119 119 88
Width: 507
Flags: W
Fore
6 395 m 1,0,-1
 51 395 l 1,1,-1
 139 78 l 1,2,-1
 140 78 l 1,3,-1
 230 395 l 1,4,-1
 276 395 l 1,5,-1
 363 78 l 1,6,-1
 365 78 l 1,7,-1
 454 395 l 1,8,-1
 501 395 l 1,9,-1
 386 0 l 1,10,-1
 341 0 l 1,11,-1
 253 317 l 1,12,-1
 251 317 l 1,13,-1
 162 0 l 1,14,-1
 116 0 l 1,15,-1
 6 395 l 1,0,-1
EndSplineSet
EndChar
StartChar: x
Encoding: 120 120 89
Width: 337
Flags: W
Fore
63 0 m 1,0,-1
 8 0 l 1,1,-1
 142 210 l 1,2,-1
 23 395 l 1,3,-1
 78 395 l 1,4,-1
 169 253 l 1,5,-1
 260 395 l 1,6,-1
 314 395 l 1,7,-1
 196 210 l 1,8,-1
 330 0 l 1,9,-1
 276 0 l 1,10,-1
 169 166 l 1,11,-1
 63 0 l 1,0,-1
EndSplineSet
EndChar
StartChar: y
Encoding: 121 121 90
Width: 337
Flags: W
Fore
168 74 m 1,0,-1
 169 74 l 1,1,-1
 279 395 l 1,2,-1
 329 395 l 1,3,-1
 181 -29 l 2,4,5
 161 -86 161 -86 134.5 -113 c 128,-1,6
 108 -140 108 -140 55 -140 c 0,7,8
 40 -140 40 -140 30 -137.5 c 128,-1,9
 20 -135 20 -135 12 -132 c 0,10,11
 6 -130 6 -130 5 -122.5 c 128,-1,12
 4 -115 4 -115 6 -107 c 128,-1,13
 8 -99 8 -99 11 -91.5 c 128,-1,14
 14 -84 14 -84 17 -82 c 1,15,16
 28 -90 28 -90 37.5 -96 c 128,-1,17
 47 -102 47 -102 61 -102 c 0,18,19
 84 -102 84 -102 106.5 -78.5 c 128,-1,20
 129 -55 129 -55 146 6 c 1,21,-1
 10 395 l 1,22,-1
 59 395 l 1,23,-1
 168 74 l 1,0,-1
EndSplineSet
EndChar
StartChar: z
Encoding: 122 122 91
Width: 337
Flags: W
Fore
37 395 m 1,0,-1
 308 395 l 1,1,-1
 308 367 l 1,2,-1
 80 36 l 1,3,-1
 314 36 l 1,4,-1
 314 0 l 1,5,-1
 19 0 l 1,6,-1
 19 29 l 1,7,-1
 247 359 l 1,8,-1
 37 359 l 1,9,-1
 37 395 l 1,0,-1
EndSplineSet
EndChar
StartChar: braceleft
Encoding: 123 123 92
Width: 253
Flags: W
Fore
33 260 m 1,0,1
 59 260 59 260 69 276.5 c 128,-1,2
 79 293 79 293 79 322 c 2,3,-1
 79 470 l 2,4,5
 79 512 79 512 96.5 534.5 c 128,-1,6
 114 557 114 557 146 557 c 2,7,-1
 193 557 l 1,8,-1
 193 529 l 1,9,-1
 155 529 l 2,10,11
 140 529 140 529 132 520 c 128,-1,12
 124 511 124 511 124 479 c 2,13,-1
 124 329 l 2,14,15
 124 291 124 291 110 273 c 128,-1,16
 96 255 96 255 70 248 c 1,17,-1
 70 246 l 1,18,19
 96 240 96 240 110 221.5 c 128,-1,20
 124 203 124 203 124 165 c 2,21,-1
 124 15 l 2,22,23
 124 -17 124 -17 132 -26 c 128,-1,24
 140 -35 140 -35 155 -35 c 2,25,-1
 193 -35 l 1,26,-1
 193 -63 l 1,27,-1
 146 -63 l 2,28,29
 114 -63 114 -63 96.5 -40.5 c 128,-1,30
 79 -18 79 -18 79 24 c 2,31,-1
 79 172 l 2,32,33
 79 201 79 201 69 217.5 c 128,-1,34
 59 234 59 234 33 234 c 1,35,-1
 33 260 l 1,0,1
EndSplineSet
EndChar
StartChar: bar
Encoding: 124 124 93
Width: 169
Flags: W
Fore
64 557 m 1,0,-1
 105 557 l 1,1,-1
 105 -8 l 1,2,-1
 64 -8 l 1,3,-1
 64 557 l 1,0,-1
EndSplineSet
EndChar
StartChar: braceright
Encoding: 125 125 94
Width: 253
Flags: W
Fore
219 234 m 1,0,1
 193 234 193 234 183.5 217.5 c 128,-1,2
 174 201 174 201 174 172 c 2,3,-1
 174 24 l 2,4,5
 174 -18 174 -18 156.5 -40.5 c 128,-1,6
 139 -63 139 -63 107 -63 c 2,7,-1
 60 -63 l 1,8,-1
 60 -35 l 1,9,-1
 98 -35 l 2,10,11
 113 -35 113 -35 120.5 -26 c 128,-1,12
 128 -17 128 -17 128 15 c 2,13,-1
 128 165 l 2,14,15
 128 203 128 203 142.5 221.5 c 128,-1,16
 157 240 157 240 183 246 c 1,17,-1
 183 248 l 1,18,19
 157 255 157 255 142.5 273 c 128,-1,20
 128 291 128 291 128 329 c 2,21,-1
 128 479 l 2,22,23
 128 511 128 511 120.5 520 c 128,-1,24
 113 529 113 529 98 529 c 2,25,-1
 60 529 l 1,26,-1
 60 557 l 1,27,-1
 107 557 l 2,28,29
 139 557 139 557 156.5 534.5 c 128,-1,30
 174 512 174 512 174 470 c 2,31,-1
 174 322 l 2,32,33
 174 293 174 293 183.5 276.5 c 128,-1,34
 193 260 193 260 219 260 c 1,35,-1
 219 234 l 1,0,1
EndSplineSet
EndChar
StartChar: asciitilde
Encoding: 126 126 95
Width: 456
Flags: W
Fore
417 215 m 1,0,1
 404 191 404 191 380.5 171 c 128,-1,2
 357 151 357 151 314 151 c 0,3,4
 294 151 294 151 271 158 c 128,-1,5
 248 165 248 165 224 176 c 0,6,7
 201 185 201 185 179 193 c 128,-1,8
 157 201 157 201 140 201 c 0,9,10
 115 201 115 201 98 184.5 c 128,-1,11
 81 168 81 168 67 148 c 1,12,-1
 39 181 l 1,13,14
 52 204 52 204 76 224 c 128,-1,15
 100 244 100 244 142 244 c 0,16,17
 162 244 162 244 185 237 c 128,-1,18
 208 230 208 230 232 219 c 0,19,20
 255 210 255 210 277 202 c 128,-1,21
 299 194 299 194 316 194 c 0,22,23
 341 194 341 194 358 210.5 c 128,-1,24
 375 227 375 227 389 247 c 1,25,-1
 417 215 l 1,0,1
EndSplineSet
EndChar
StartChar: uni0E33.alt1
Encoding: 65537 -1 96
Width: 335
Flags: W
Fore
-161 534 m 256,0,1
 -161 506 -161 506 -180.5 486.5 c 128,-1,2
 -200 467 -200 467 -228 467 c 256,3,4
 -256 467 -256 467 -275.5 486.5 c 128,-1,5
 -295 506 -295 506 -295 534 c 256,6,7
 -295 562 -295 562 -275.5 581.5 c 128,-1,8
 -256 601 -256 601 -228 601 c 256,9,10
 -200 601 -200 601 -180.5 581.5 c 128,-1,11
 -161 562 -161 562 -161 534 c 256,0,1
-194 534 m 256,12,13
 -194 548 -194 548 -204 558 c 128,-1,14
 -214 568 -214 568 -228 568 c 256,15,16
 -242 568 -242 568 -252 558 c 128,-1,17
 -262 548 -262 548 -262 534 c 256,18,19
 -262 520 -262 520 -252 510 c 128,-1,20
 -242 500 -242 500 -228 500 c 256,21,22
 -214 500 -214 500 -204 510 c 128,-1,23
 -194 520 -194 520 -194 534 c 256,12,13
227 153 m 2,24,25
 227 185 227 185 229.5 214 c 128,-1,26
 232 243 232 243 232 278 c 0,27,28
 232 311 232 311 222 329.5 c 128,-1,29
 212 348 212 348 198.5 357 c 128,-1,30
 185 366 185 366 172 368.5 c 128,-1,31
 159 371 159 371 153 371 c 0,32,33
 118 371 118 371 91 353 c 128,-1,34
 64 335 64 335 38 305 c 0,35,36
 33 299 33 299 21.5 306 c 128,-1,37
 10 313 10 313 0 326 c 1,38,39
 9 339 9 339 26 353 c 128,-1,40
 43 367 43 367 63.5 379 c 128,-1,41
 84 391 84 391 106 398.5 c 128,-1,42
 128 406 128 406 147 406 c 0,43,44
 204 406 204 406 238 377 c 128,-1,45
 272 348 272 348 272 278 c 0,46,47
 272 246 272 246 270 217.5 c 128,-1,48
 268 189 268 189 268 158 c 0,49,50
 268 147 268 147 268 126 c 128,-1,51
 268 105 268 105 269 82.5 c 128,-1,52
 270 60 270 60 271 41 c 128,-1,53
 272 22 272 22 273 14 c 0,54,55
 275 4 275 4 272.5 2 c 128,-1,56
 270 0 270 0 266 0 c 2,57,-1
 227 0 l 1,58,-1
 227 153 l 2,24,25
EndSplineSet
EndChar
StartChar: exclamdown
Encoding: 161 161 100
Width: 169
Flags: W
Fore
51 -154 m 1,0,-1
 66 226 l 1,1,-1
 104 226 l 1,2,-1
 117 -154 l 1,3,-1
 51 -154 l 1,0,-1
117 395 m 1,4,-1
 117 327 l 1,5,-1
 51 327 l 1,6,-1
 51 395 l 1,7,-1
 117 395 l 1,4,-1
EndSplineSet
EndChar
StartChar: cent
Encoding: 162 162 101
Width: 423
Flags: W
Fore
224 339 m 1,0,1
 216 341 216 341 209 343 c 128,-1,2
 202 345 202 345 194 345 c 0,3,4
 169 345 169 345 148.5 336.5 c 128,-1,5
 128 328 128 328 113.5 309 c 128,-1,6
 99 290 99 290 91 259.5 c 128,-1,7
 83 229 83 229 83 185 c 0,8,9
 83 82 83 82 134 45 c 1,10,-1
 224 339 l 1,0,1
165 29 m 1,11,12
 177 26 177 26 194 26 c 0,13,14
 239 26 239 26 262 45 c 128,-1,15
 285 64 285 64 298 98 c 1,16,-1
 331 82 l 1,17,18
 316 45 316 45 284 19 c 128,-1,19
 252 -7 252 -7 194 -7 c 0,20,21
 173 -7 173 -7 155 -2 c 1,22,-1
 129 -81 l 1,23,-1
 93 -81 l 1,24,-1
 123 10 l 1,25,26
 83 32 83 32 62.5 72.5 c 128,-1,27
 42 113 42 113 42 185 c 0,28,29
 42 238 42 238 53 274.5 c 128,-1,30
 64 311 64 311 84 333.5 c 128,-1,31
 104 356 104 356 132 366.5 c 128,-1,32
 160 377 160 377 194 377 c 0,33,34
 215 377 215 377 234 371 c 1,35,-1
 258 443 l 1,36,-1
 294 443 l 1,37,-1
 265 357 l 1,38,39
 285 344 285 344 299 325.5 c 128,-1,40
 313 307 313 307 321 281 c 1,41,-1
 284 271 l 1,42,43
 274 300 274 300 253 320 c 1,44,-1
 165 29 l 1,11,12
EndSplineSet
EndChar
StartChar: sterling
Encoding: 163 163 102
Width: 423
Flags: W
Fore
11 45 m 1,0,1
 33 51 33 51 48 64.5 c 128,-1,2
 63 78 63 78 72 96.5 c 128,-1,3
 81 115 81 115 85 137 c 128,-1,4
 89 159 89 159 89 181 c 0,5,6
 89 192 89 192 87.5 203.5 c 128,-1,7
 86 215 86 215 85 226 c 1,8,-1
 10 226 l 1,9,-1
 10 258 l 1,10,-1
 81 258 l 1,11,12
 79 283 79 283 75.5 307.5 c 128,-1,13
 72 332 72 332 72 357 c 0,14,15
 72 419 72 419 108.5 456 c 128,-1,16
 145 493 145 493 207 493 c 0,17,18
 265 493 265 493 302.5 459.5 c 128,-1,19
 340 426 340 426 350 369 c 1,20,-1
 307 355 l 1,21,22
 297 400 297 400 276 425.5 c 128,-1,23
 255 451 255 451 207 451 c 0,24,25
 158 451 158 451 137.5 425.5 c 128,-1,26
 117 400 117 400 117 355 c 0,27,28
 117 330 117 330 119.5 305.5 c 128,-1,29
 122 281 122 281 127 258 c 1,30,-1
 225 258 l 1,31,-1
 225 226 l 1,32,-1
 131 226 l 1,33,34
 132 217 132 217 132.5 208 c 128,-1,35
 133 199 133 199 133 190 c 0,36,37
 133 157 133 157 128 131.5 c 128,-1,38
 123 106 123 106 109 76 c 1,39,40
 133 61 133 61 164.5 47.5 c 128,-1,41
 196 34 196 34 225 34 c 0,42,43
 245 34 245 34 259.5 37.5 c 128,-1,44
 274 41 274 41 284.5 50.5 c 128,-1,45
 295 60 295 60 302.5 77 c 128,-1,46
 310 94 310 94 317 120 c 1,47,-1
 360 112 l 1,48,49
 349 55 349 55 318.5 24 c 128,-1,50
 288 -7 288 -7 232 -7 c 0,51,52
 184 -7 184 -7 153 9 c 128,-1,53
 122 25 122 25 91 45 c 1,54,55
 77 26 77 26 55.5 12 c 128,-1,56
 34 -2 34 -2 11 -7 c 1,57,-1
 11 45 l 1,0,1
EndSplineSet
EndChar
StartChar: currency
Encoding: 164 164 103
Width: 423
Flags: W
Fore
400 404 m 1,0,-1
 359 363 l 1,1,2
 381 337 381 337 390.5 307 c 128,-1,3
 400 277 400 277 400 245 c 256,4,5
 400 213 400 213 390.5 182 c 128,-1,6
 381 151 381 151 359 126 c 1,7,-1
 400 85 l 1,8,-1
 371 56 l 1,9,-1
 329 97 l 1,10,11
 277 56 277 56 211 56 c 0,12,13
 179 56 179 56 149 66.5 c 128,-1,14
 119 77 119 77 94 97 c 1,15,-1
 51 56 l 1,16,-1
 23 85 l 1,17,-1
 64 126 l 1,18,19
 42 151 42 151 32.5 182 c 128,-1,20
 23 213 23 213 23 245 c 256,21,22
 23 277 23 277 32.5 307 c 128,-1,23
 42 337 42 337 64 363 c 1,24,-1
 23 404 l 1,25,-1
 51 433 l 1,26,-1
 94 391 l 1,27,28
 119 412 119 412 149 422.5 c 128,-1,29
 179 433 179 433 211 433 c 0,30,31
 278 433 278 433 329 391 c 1,32,-1
 371 433 l 1,33,-1
 400 404 l 1,0,-1
211 93 m 0,34,35
 242 93 242 93 269 105 c 128,-1,36
 296 117 296 117 316 138 c 128,-1,37
 336 159 336 159 347.5 186.5 c 128,-1,38
 359 214 359 214 359 245 c 0,39,40
 359 275 359 275 347.5 302.5 c 128,-1,41
 336 330 336 330 316 351 c 128,-1,42
 296 372 296 372 269 384.5 c 128,-1,43
 242 397 242 397 211 397 c 0,44,45
 181 397 181 397 154 384.5 c 128,-1,46
 127 372 127 372 107 351 c 128,-1,47
 87 330 87 330 75.5 302.5 c 128,-1,48
 64 275 64 275 64 245 c 0,49,50
 64 214 64 214 75.5 186.5 c 128,-1,51
 87 159 87 159 107 138 c 128,-1,52
 127 117 127 117 154 105 c 128,-1,53
 181 93 181 93 211 93 c 0,34,35
EndSplineSet
EndChar
StartChar: yen
Encoding: 165 165 104
Width: 423
Flags: W
Fore
335 264 m 1,0,-1
 242 264 l 1,1,-1
 207 206 l 1,2,-1
 207 197 l 1,3,-1
 325 197 l 1,4,-1
 325 165 l 1,5,-1
 207 165 l 1,6,-1
 207 0 l 1,7,-1
 162 0 l 1,8,-1
 162 165 l 1,9,-1
 43 165 l 1,10,-1
 43 197 l 1,11,-1
 162 197 l 1,12,-1
 162 206 l 1,13,-1
 128 264 l 1,14,-1
 33 264 l 1,15,-1
 33 296 l 1,16,-1
 111 296 l 1,17,-1
 -1 486 l 1,18,-1
 46 486 l 1,19,-1
 183 245 l 1,20,-1
 329 486 l 1,21,-1
 375 486 l 1,22,-1
 259 296 l 1,23,-1
 335 296 l 1,24,-1
 335 264 l 1,0,-1
EndSplineSet
EndChar
StartChar: brokenbar
Encoding: 166 166 105
Width: 169
Flags: W
Fore
64 205 m 1,0,-1
 105 205 l 1,1,-1
 105 -8 l 1,2,-1
 64 -8 l 1,3,-1
 64 205 l 1,0,-1
64 557 m 1,4,-1
 105 557 l 1,5,-1
 105 344 l 1,6,-1
 64 344 l 1,7,-1
 64 557 l 1,4,-1
EndSplineSet
EndChar
StartChar: section
Encoding: 167 167 106
Width: 366
Flags: W
Fore
275 398 m 1,0,1
 261 426 261 426 240.5 442 c 128,-1,2
 220 458 220 458 188 458 c 0,3,4
 162 458 162 458 145.5 448.5 c 128,-1,5
 129 439 129 439 129 407 c 0,6,7
 129 391 129 391 143 375.5 c 128,-1,8
 157 360 157 360 177.5 344 c 128,-1,9
 198 328 198 328 222.5 310.5 c 128,-1,10
 247 293 247 293 267.5 273 c 128,-1,11
 288 253 288 253 302 230 c 128,-1,12
 316 207 316 207 316 180 c 0,13,14
 316 141 316 141 292 122 c 128,-1,15
 268 103 268 103 233 100 c 1,16,17
 250 80 250 80 262.5 63 c 128,-1,18
 275 46 275 46 275 19 c 0,19,20
 275 -4 275 -4 266 -19 c 128,-1,21
 257 -34 257 -34 242 -43.5 c 128,-1,22
 227 -53 227 -53 208 -57 c 128,-1,23
 189 -61 189 -61 169 -61 c 0,24,25
 134 -61 134 -61 103 -41.5 c 128,-1,26
 72 -22 72 -22 58 10 c 1,27,-1
 89 30 l 1,28,29
 99 6 99 6 120.5 -11 c 128,-1,30
 142 -28 142 -28 169 -28 c 0,31,32
 201 -28 201 -28 219 -16.5 c 128,-1,33
 237 -5 237 -5 237 24 c 0,34,35
 237 38 237 38 223 53.5 c 128,-1,36
 209 69 209 69 188.5 87 c 128,-1,37
 168 105 168 105 143.5 124.5 c 128,-1,38
 119 144 119 144 98.5 165.5 c 128,-1,39
 78 187 78 187 64 209.5 c 128,-1,40
 50 232 50 232 50 256 c 0,41,42
 50 293 50 293 75.5 310.5 c 128,-1,43
 101 328 101 328 138 328 c 1,44,-1
 140 330 l 1,45,46
 120 344 120 344 105.5 363.5 c 128,-1,47
 91 383 91 383 91 413 c 0,48,49
 91 452 91 452 119 472 c 128,-1,50
 147 492 147 492 192 492 c 0,51,52
 231 492 231 492 259.5 472 c 128,-1,53
 288 452 288 452 305 417 c 1,54,-1
 275 398 l 1,0,1
137 304 m 256,55,56
 120 304 120 304 104 291.5 c 128,-1,57
 88 279 88 279 88 259 c 0,58,59
 88 240 88 240 105 216.5 c 128,-1,60
 122 193 122 193 144.5 172.5 c 128,-1,61
 167 152 167 152 190 138 c 128,-1,62
 213 124 213 124 226 124 c 0,63,64
 250 124 250 124 264 139.5 c 128,-1,65
 278 155 278 155 278 178 c 0,66,67
 278 195 278 195 262.5 216.5 c 128,-1,68
 247 238 247 238 224.5 257.5 c 128,-1,69
 202 277 202 277 178 290.5 c 128,-1,70
 154 304 154 304 137 304 c 256,55,56
EndSplineSet
EndChar
StartChar: dieresis
Encoding: 168 168 107
Width: 169
Flags: W
Fore
50 519 m 1,0,-1
 50 447 l 1,1,-1
 0 447 l 1,2,-1
 0 519 l 1,3,-1
 50 519 l 1,0,-1
169 519 m 1,4,-1
 169 447 l 1,5,-1
 119 447 l 1,6,-1
 119 519 l 1,7,-1
 169 519 l 1,4,-1
EndSplineSet
EndChar
StartChar: copyright
Encoding: 169 169 108
Width: 608
Flags: W
Fore
269 493 m 256,0,1
 321 493 321 493 366.5 473 c 128,-1,2
 412 453 412 453 446 419 c 128,-1,3
 480 385 480 385 499.5 339.5 c 128,-1,4
 519 294 519 294 519 243 c 256,5,6
 519 192 519 192 499.5 146.5 c 128,-1,7
 480 101 480 101 446 67 c 128,-1,8
 412 33 412 33 366.5 13 c 128,-1,9
 321 -7 321 -7 269 -7 c 256,10,11
 217 -7 217 -7 171.5 13 c 128,-1,12
 126 33 126 33 92 67 c 128,-1,13
 58 101 58 101 38.5 146.5 c 128,-1,14
 19 192 19 192 19 243 c 256,15,16
 19 294 19 294 38.5 339.5 c 128,-1,17
 58 385 58 385 92 419 c 128,-1,18
 126 453 126 453 171.5 473 c 128,-1,19
 217 493 217 493 269 493 c 256,0,1
269 27 m 256,20,21
 314 27 314 27 352.5 44 c 128,-1,22
 391 61 391 61 419 90 c 128,-1,23
 447 119 447 119 463 158.5 c 128,-1,24
 479 198 479 198 479 243 c 256,25,26
 479 288 479 288 463 327.5 c 128,-1,27
 447 367 447 367 419 396 c 128,-1,28
 391 425 391 425 352.5 442 c 128,-1,29
 314 459 314 459 269 459 c 256,30,31
 224 459 224 459 186 442 c 128,-1,32
 148 425 148 425 119.5 396 c 128,-1,33
 91 367 91 367 75 327.5 c 128,-1,34
 59 288 59 288 59 243 c 256,35,36
 59 198 59 198 75 158.5 c 128,-1,37
 91 119 91 119 119.5 90 c 128,-1,38
 148 61 148 61 186 44 c 128,-1,39
 224 27 224 27 269 27 c 256,20,21
402 192 m 1,40,41
 391 144 391 144 358 114.5 c 128,-1,42
 325 85 325 85 277 85 c 0,43,44
 242 85 242 85 214 97 c 128,-1,45
 186 109 186 109 166.5 130.5 c 128,-1,46
 147 152 147 152 136.5 181 c 128,-1,47
 126 210 126 210 126 244 c 256,48,49
 126 278 126 278 136 306.5 c 128,-1,50
 146 335 146 335 165 356 c 128,-1,51
 184 377 184 377 211.5 389 c 128,-1,52
 239 401 239 401 274 401 c 0,53,54
 324 401 324 401 360 374 c 128,-1,55
 396 347 396 347 402 296 c 1,56,-1
 366 296 l 1,57,58
 360 325 360 325 336.5 346 c 128,-1,59
 313 367 313 367 275 367 c 0,60,61
 222 367 222 367 193.5 331 c 128,-1,62
 165 295 165 295 165 244 c 0,63,64
 165 220 165 220 173 197 c 128,-1,65
 181 174 181 174 195.5 157 c 128,-1,66
 210 140 210 140 231 129.5 c 128,-1,67
 252 119 252 119 277 119 c 0,68,69
 313 119 313 119 336.5 140 c 128,-1,70
 360 161 360 161 366 192 c 1,71,-1
 402 192 l 1,40,41
EndSplineSet
EndChar
StartChar: ordfeminine
Encoding: 170 170 109
Width: 228
Flags: W
Fore
21 504 m 1,0,1
 38 533 38 533 61 545 c 128,-1,2
 84 557 84 557 120 557 c 0,3,4
 163 557 163 557 182.5 539.5 c 128,-1,5
 202 522 202 522 202 484 c 2,6,-1
 202 365 l 2,7,8
 202 348 202 348 203 338.5 c 128,-1,9
 204 329 204 329 207 316 c 1,10,-1
 173 316 l 1,11,-1
 169 345 l 1,12,13
 149 328 149 328 129.5 320 c 128,-1,14
 110 312 110 312 81 312 c 0,15,16
 50 312 50 312 30 328 c 128,-1,17
 10 344 10 344 10 373 c 0,18,19
 10 403 10 403 27 420.5 c 128,-1,20
 44 438 44 438 68.5 448 c 128,-1,21
 93 458 93 458 119.5 463 c 128,-1,22
 146 468 146 468 164 473 c 1,23,-1
 164 492 l 2,24,25
 164 507 164 507 154 516.5 c 128,-1,26
 144 526 144 526 116 526 c 0,27,28
 91 526 91 526 75 517 c 128,-1,29
 59 508 59 508 45 488 c 1,30,-1
 21 504 l 1,0,1
164 441 m 1,31,32
 152 437 152 437 132 432.5 c 128,-1,33
 112 428 112 428 93.5 420.5 c 128,-1,34
 75 413 75 413 61.5 402 c 128,-1,35
 48 391 48 391 48 374 c 0,36,37
 48 360 48 360 58 351 c 128,-1,38
 68 342 68 342 86 342 c 0,39,40
 106 342 106 342 128.5 351.5 c 128,-1,41
 151 361 151 361 164 377 c 1,42,-1
 164 441 l 1,31,32
EndSplineSet
EndChar
StartChar: guillemotleft
Encoding: 171 171 110
Width: 380
Flags: W
Fore
222 200 m 1,0,-1
 317 81 l 1,1,-1
 268 81 l 1,2,-1
 175 200 l 1,3,-1
 268 314 l 1,4,-1
 317 314 l 1,5,-1
 222 200 l 1,0,-1
110 200 m 1,6,-1
 204 81 l 1,7,-1
 154 81 l 1,8,-1
 63 200 l 1,9,-1
 154 314 l 1,10,-1
 204 314 l 1,11,-1
 110 200 l 1,6,-1
EndSplineSet
EndChar
StartChar: logicalnot
Encoding: 172 172 111
Width: 456
Flags: W
Fore
385 213 m 1,0,-1
 30 213 l 1,1,-1
 30 255 l 1,2,-1
 426 255 l 1,3,-1
 426 81 l 1,4,-1
 385 81 l 1,5,-1
 385 213 l 1,0,-1
EndSplineSet
EndChar
StartChar: registered
Encoding: 174 174 112
Width: 608
Flags: W
Fore
217 94 m 1,0,-1
 177 94 l 1,1,-1
 177 391 l 1,2,-1
 290 391 l 2,3,4
 341 391 341 391 363.5 370 c 128,-1,5
 386 349 386 349 386 309 c 0,6,7
 386 270 386 270 364.5 251 c 128,-1,8
 343 232 343 232 318 227 c 1,9,-1
 400 94 l 1,10,-1
 355 94 l 1,11,-1
 274 227 l 1,12,-1
 217 227 l 1,13,-1
 217 94 l 1,0,-1
263 260 m 2,14,15
 278 260 278 260 292.5 260.5 c 128,-1,16
 307 261 307 261 318.5 265.5 c 128,-1,17
 330 270 330 270 337.5 280.5 c 128,-1,18
 345 291 345 291 345 310 c 0,19,20
 345 325 345 325 339.5 334.5 c 128,-1,21
 334 344 334 344 325 349.5 c 128,-1,22
 316 355 316 355 304.5 356.5 c 128,-1,23
 293 358 293 358 281 358 c 2,24,-1
 217 358 l 1,25,-1
 217 260 l 1,26,-1
 263 260 l 2,14,15
269 493 m 256,27,28
 321 493 321 493 366.5 473 c 128,-1,29
 412 453 412 453 446 419 c 128,-1,30
 480 385 480 385 499.5 339.5 c 128,-1,31
 519 294 519 294 519 243 c 256,32,33
 519 192 519 192 499.5 146.5 c 128,-1,34
 480 101 480 101 446 67 c 128,-1,35
 412 33 412 33 366.5 13 c 128,-1,36
 321 -7 321 -7 269 -7 c 256,37,38
 217 -7 217 -7 171.5 13 c 128,-1,39
 126 33 126 33 92 67 c 128,-1,40
 58 101 58 101 38.5 146.5 c 128,-1,41
 19 192 19 192 19 243 c 256,42,43
 19 294 19 294 38.5 339.5 c 128,-1,44
 58 385 58 385 92 419 c 128,-1,45
 126 453 126 453 171.5 473 c 128,-1,46
 217 493 217 493 269 493 c 256,27,28
269 27 m 256,47,48
 314 27 314 27 352.5 44 c 128,-1,49
 391 61 391 61 419 90 c 128,-1,50
 447 119 447 119 463 158.5 c 128,-1,51
 479 198 479 198 479 243 c 256,52,53
 479 288 479 288 463 327.5 c 128,-1,54
 447 367 447 367 419 396 c 128,-1,55
 391 425 391 425 352.5 442 c 128,-1,56
 314 459 314 459 269 459 c 256,57,58
 224 459 224 459 186 442 c 128,-1,59
 148 425 148 425 119.5 396 c 128,-1,60
 91 367 91 367 75 327.5 c 128,-1,61
 59 288 59 288 59 243 c 256,62,63
 59 198 59 198 75 158.5 c 128,-1,64
 91 119 91 119 119.5 90 c 128,-1,65
 148 61 148 61 186 44 c 128,-1,66
 224 27 224 27 269 27 c 256,47,48
EndSplineSet
EndChar
StartChar: macron
Encoding: 175 175 113
Width: 169
Flags: W
Fore
-29 503 m 1,0,-1
 197 503 l 1,1,-1
 197 469 l 1,2,-1
 -29 469 l 1,3,-1
 -29 503 l 1,0,-1
EndSplineSet
EndChar
StartChar: degree
Encoding: 176 176 114
Width: 304
Flags: W
Fore
152 524 m 256,0,1
 118 524 118 524 97 501.5 c 128,-1,2
 76 479 76 479 76 446 c 0,3,4
 76 412 76 412 97 389.5 c 128,-1,5
 118 367 118 367 152 367 c 256,6,7
 186 367 186 367 207 389.5 c 128,-1,8
 228 412 228 412 228 446 c 0,9,10
 228 479 228 479 207 501.5 c 128,-1,11
 186 524 186 524 152 524 c 256,0,1
152 557 m 256,12,13
 176 557 176 557 196 548 c 128,-1,14
 216 539 216 539 231 524 c 128,-1,15
 246 509 246 509 254.5 489 c 128,-1,16
 263 469 263 469 263 446 c 256,17,18
 263 423 263 423 254.5 402.5 c 128,-1,19
 246 382 246 382 231 367 c 128,-1,20
 216 352 216 352 196 343 c 128,-1,21
 176 334 176 334 152 334 c 256,22,23
 128 334 128 334 108 343 c 128,-1,24
 88 352 88 352 73 367 c 128,-1,25
 58 382 58 382 49.5 402.5 c 128,-1,26
 41 423 41 423 41 446 c 256,27,28
 41 469 41 469 49.5 489 c 128,-1,29
 58 509 58 509 73 524 c 128,-1,30
 88 539 88 539 108 548 c 128,-1,31
 128 557 128 557 152 557 c 256,12,13
EndSplineSet
EndChar
StartChar: plusminus
Encoding: 177 177 115
Width: 456
Flags: W
Fore
207 395 m 1,0,-1
 249 395 l 1,1,-1
 249 255 l 1,2,-1
 426 255 l 1,3,-1
 426 214 l 1,4,-1
 249 214 l 1,5,-1
 249 73 l 1,6,-1
 207 73 l 1,7,-1
 207 214 l 1,8,-1
 30 214 l 1,9,-1
 30 255 l 1,10,-1
 207 255 l 1,11,-1
 207 395 l 1,0,-1
30 41 m 1,12,-1
 426 41 l 1,13,-1
 426 0 l 1,14,-1
 30 0 l 1,15,-1
 30 41 l 1,12,-1
EndSplineSet
EndChar
StartChar: twosuperior
Encoding: 178 178 116
Width: 231
Flags: W
Fore
19 409 m 1,0,1
 27 449 27 449 54.5 471 c 128,-1,2
 82 493 82 493 124 493 c 256,3,4
 166 493 166 493 191 470 c 128,-1,5
 216 447 216 447 216 405 c 0,6,7
 216 384 216 384 207.5 369 c 128,-1,8
 199 354 199 354 185.5 341.5 c 128,-1,9
 172 329 172 329 155.5 318 c 128,-1,10
 139 307 139 307 123 295 c 0,11,12
 86 267 86 267 68.5 252.5 c 128,-1,13
 51 238 51 238 49 227 c 1,14,-1
 215 227 l 1,15,-1
 215 196 l 1,16,-1
 15 196 l 1,17,-1
 15 219 l 2,18,19
 15 228 15 228 17.5 236.5 c 128,-1,20
 20 245 20 245 28.5 256 c 128,-1,21
 37 267 37 267 53 281 c 128,-1,22
 69 295 69 295 97 314 c 0,23,24
 124 332 124 332 140.5 345 c 128,-1,25
 157 358 157 358 166 368.5 c 128,-1,26
 175 379 175 379 178 388.5 c 128,-1,27
 181 398 181 398 181 408 c 0,28,29
 181 433 181 433 166.5 448 c 128,-1,30
 152 463 152 463 126 463 c 0,31,32
 64 463 64 463 50 404 c 1,33,-1
 19 409 l 1,0,1
EndSplineSet
EndChar
StartChar: threesuperior
Encoding: 179 179 117
Width: 244
Flags: W
Fore
41 266 m 1,0,1
 56 240 56 240 73.5 231 c 128,-1,2
 91 222 91 222 123 222 c 0,3,4
 158 222 158 222 176 237 c 128,-1,5
 194 252 194 252 194 278 c 0,6,7
 194 309 194 309 172 322.5 c 128,-1,8
 150 336 150 336 109 336 c 2,9,-1
 80 336 l 1,10,-1
 80 366 l 1,11,-1
 104 366 l 2,12,13
 142 366 142 366 163 378 c 128,-1,14
 184 390 184 390 184 419 c 0,15,16
 184 439 184 439 166.5 451 c 128,-1,17
 149 463 149 463 126 463 c 0,18,19
 100 463 100 463 85 457 c 128,-1,20
 70 451 70 451 55 429 c 1,21,-1
 30 445 l 1,22,23
 49 471 49 471 72 482 c 128,-1,24
 95 493 95 493 124 493 c 0,25,26
 142 493 142 493 159 488.5 c 128,-1,27
 176 484 176 484 189.5 475 c 128,-1,28
 203 466 203 466 211 452.5 c 128,-1,29
 219 439 219 439 219 421 c 0,30,31
 219 396 219 396 210.5 379.5 c 128,-1,32
 202 363 202 363 174 352 c 1,33,34
 200 344 200 344 214.5 326.5 c 128,-1,35
 229 309 229 309 229 278 c 0,36,37
 229 232 229 232 198.5 212.5 c 128,-1,38
 168 193 168 193 121 193 c 0,39,40
 83 193 83 193 55.5 207 c 128,-1,41
 28 221 28 221 15 250 c 1,42,-1
 41 266 l 1,0,1
EndSplineSet
EndChar
StartChar: acute
Encoding: 180 180 118
Width: 169
Flags: W
Fore
180 544 m 1,0,-1
 75 439 l 1,1,-1
 36 439 l 1,2,-1
 121 544 l 1,3,-1
 180 544 l 1,0,-1
EndSplineSet
EndChar
StartChar: mu
Encoding: 181 181 119
Width: 423
Flags: W
Fore
360 395 m 1,0,-1
 360 0 l 1,1,-1
 314 0 l 1,2,-1
 314 63 l 1,3,4
 282 29 282 29 253 10.5 c 128,-1,5
 224 -8 224 -8 180 -8 c 0,6,7
 134 -8 134 -8 108 10 c 1,8,-1
 108 -140 l 1,9,-1
 63 -140 l 1,10,-1
 63 395 l 1,11,-1
 108 395 l 1,12,-1
 108 130 l 2,13,14
 108 81 108 81 125 55 c 128,-1,15
 142 29 142 29 188 29 c 0,16,17
 207 29 207 29 222 34.5 c 128,-1,18
 237 40 237 40 251 50 c 128,-1,19
 265 60 265 60 280 74 c 128,-1,20
 295 88 295 88 314 105 c 1,21,-1
 314 395 l 1,22,-1
 360 395 l 1,0,-1
EndSplineSet
EndChar
StartChar: paragraph
Encoding: 182 182 120
Width: 380
Flags: W
Fore
169 256 m 1,0,1
 136 256 136 256 107.5 267.5 c 128,-1,2
 79 279 79 279 57.5 298.5 c 128,-1,3
 36 318 36 318 24 344 c 128,-1,4
 12 370 12 370 12 400 c 0,5,6
 12 472 12 472 56.5 510.5 c 128,-1,7
 101 549 101 549 181 549 c 2,8,-1
 382 549 l 1,9,-1
 382 515 l 1,10,-1
 325 515 l 1,11,-1
 325 -61 l 1,12,-1
 287 -61 l 1,13,-1
 287 515 l 1,14,-1
 207 515 l 1,15,-1
 207 -61 l 1,16,-1
 169 -61 l 1,17,-1
 169 256 l 1,0,1
EndSplineSet
EndChar
StartChar: periodcentered
Encoding: 183 183 121
Width: 211
Flags: W
Fore
105 236 m 0,0,1
 120 236 120 236 131.5 225 c 128,-1,2
 143 214 143 214 143 198 c 256,3,4
 143 182 143 182 131.5 171 c 128,-1,5
 120 160 120 160 105 160 c 0,6,7
 91 160 91 160 79 171 c 128,-1,8
 67 182 67 182 67 198 c 256,9,10
 67 214 67 214 79 225 c 128,-1,11
 91 236 91 236 105 236 c 0,0,1
EndSplineSet
EndChar
StartChar: cedilla
Encoding: 184 184 122
Width: 169
Flags: W
Fore
10 -116 m 1,0,1
 20 -119 20 -119 33 -123 c 128,-1,2
 46 -127 46 -127 55 -127 c 0,3,4
 81 -127 81 -127 93 -120.5 c 128,-1,5
 105 -114 105 -114 105 -97 c 256,6,7
 105 -80 105 -80 94.5 -73 c 128,-1,8
 84 -66 84 -66 71 -66 c 0,9,10
 52 -66 52 -66 38 -72 c 1,11,-1
 27 -63 l 1,12,-1
 72 0 l 1,13,-1
 101 0 l 1,14,-1
 68 -38 l 1,15,-1
 70 -40 l 1,16,17
 77 -35 77 -35 93 -35 c 0,18,19
 121 -35 121 -35 137 -52 c 128,-1,20
 153 -69 153 -69 153 -99 c 0,21,22
 153 -114 153 -114 145 -125 c 128,-1,23
 137 -136 137 -136 125 -143.5 c 128,-1,24
 113 -151 113 -151 99 -154.5 c 128,-1,25
 85 -158 85 -158 73 -158 c 0,26,27
 54 -158 54 -158 35.5 -154.5 c 128,-1,28
 17 -151 17 -151 0 -143 c 1,29,-1
 10 -116 l 1,0,1
EndSplineSet
EndChar
StartChar: onesuperior
Encoding: 185 185 123
Width: 263
Flags: W
Fore
67 196 m 1,0,-1
 67 227 l 1,1,-1
 116 227 l 1,2,-1
 116 459 l 1,3,-1
 60 446 l 1,4,-1
 60 470 l 1,5,-1
 124 493 l 1,6,-1
 151 493 l 1,7,-1
 151 227 l 1,8,-1
 203 227 l 1,9,-1
 203 196 l 1,10,-1
 67 196 l 1,0,-1
EndSplineSet
EndChar
StartChar: ordmasculine
Encoding: 186 186 124
Width: 207
Flags: W
Fore
47 384 m 256,0,1
 47 346 47 346 59.5 326.5 c 128,-1,2
 72 307 72 307 104 307 c 256,3,4
 136 307 136 307 148 326.5 c 128,-1,5
 160 346 160 346 160 384 c 256,6,7
 160 422 160 422 148 442 c 128,-1,8
 136 462 136 462 104 462 c 256,9,10
 72 462 72 462 59.5 442 c 128,-1,11
 47 422 47 422 47 384 c 256,0,1
104 493 m 256,12,13
 131 493 131 493 148.5 484 c 128,-1,14
 166 475 166 475 177 460 c 128,-1,15
 188 445 188 445 192.5 425 c 128,-1,16
 197 405 197 405 197 384 c 256,17,18
 197 363 197 363 192.5 343.5 c 128,-1,19
 188 324 188 324 177 309 c 128,-1,20
 166 294 166 294 148.5 285 c 128,-1,21
 131 276 131 276 104 276 c 256,22,23
 77 276 77 276 59 285 c 128,-1,24
 41 294 41 294 30 309 c 128,-1,25
 19 324 19 324 14.5 343.5 c 128,-1,26
 10 363 10 363 10 384 c 256,27,28
 10 405 10 405 14.5 425 c 128,-1,29
 19 445 19 445 30 460 c 128,-1,30
 41 475 41 475 59 484 c 128,-1,31
 77 493 77 493 104 493 c 256,12,13
EndSplineSet
EndChar
StartChar: guillemotright
Encoding: 187 187 125
Width: 380
Flags: W
Fore
158 196 m 1,0,-1
 63 314 l 1,1,-1
 112 314 l 1,2,-1
 205 196 l 1,3,-1
 112 81 l 1,4,-1
 63 81 l 1,5,-1
 158 196 l 1,0,-1
270 196 m 1,6,-1
 176 314 l 1,7,-1
 226 314 l 1,8,-1
 317 196 l 1,9,-1
 226 81 l 1,10,-1
 176 81 l 1,11,-1
 270 196 l 1,6,-1
EndSplineSet
EndChar
StartChar: onequarter
Encoding: 188 188 126
Width: 596
Flags: W
Fore
349 99 m 1,0,-1
 453 99 l 1,1,-1
 453 251 l 1,2,-1
 451 251 l 1,3,-1
 349 99 l 1,0,-1
313 103 m 1,4,-1
 444 292 l 1,5,-1
 489 292 l 1,6,-1
 489 99 l 1,7,-1
 536 99 l 1,8,-1
 536 70 l 1,9,-1
 489 70 l 1,10,-1
 489 0 l 1,11,-1
 453 0 l 1,12,-1
 453 70 l 1,13,-1
 313 70 l 1,14,-1
 313 103 l 1,4,-1
66 196 m 1,15,-1
 66 227 l 1,16,-1
 115 227 l 1,17,-1
 115 459 l 1,18,-1
 60 446 l 1,19,-1
 60 470 l 1,20,-1
 123 493 l 1,21,-1
 151 493 l 1,22,-1
 151 227 l 1,23,-1
 202 227 l 1,24,-1
 202 196 l 1,25,-1
 66 196 l 1,15,-1
421 493 m 1,26,-1
 460 493 l 1,27,-1
 162 -7 l 1,28,-1
 123 -7 l 1,29,-1
 421 493 l 1,26,-1
EndSplineSet
Ligature: 0 0 'frac' one fraction four
Ligature: 0 0 'frac' one slash four
EndChar
StartChar: onehalf
Encoding: 189 189 127
Width: 593
Flags: W
Fore
66 196 m 1,0,-1
 66 227 l 1,1,-1
 115 227 l 1,2,-1
 115 459 l 1,3,-1
 60 446 l 1,4,-1
 60 470 l 1,5,-1
 123 493 l 1,6,-1
 151 493 l 1,7,-1
 151 227 l 1,8,-1
 202 227 l 1,9,-1
 202 196 l 1,10,-1
 66 196 l 1,0,-1
336 212 m 1,11,12
 344 252 344 252 372 274 c 128,-1,13
 400 296 400 296 442 296 c 256,14,15
 484 296 484 296 508.5 273.5 c 128,-1,16
 533 251 533 251 533 209 c 0,17,18
 533 188 533 188 524.5 172.5 c 128,-1,19
 516 157 516 157 502.5 144.5 c 128,-1,20
 489 132 489 132 472.5 121 c 128,-1,21
 456 110 456 110 440 98 c 0,22,23
 403 71 403 71 385.5 56 c 128,-1,24
 368 41 368 41 367 29 c 1,25,-1
 532 29 l 1,26,-1
 532 0 l 1,27,-1
 332 0 l 1,28,-1
 332 22 l 2,29,30
 332 31 332 31 334.5 39.5 c 128,-1,31
 337 48 337 48 345.5 59 c 128,-1,32
 354 70 354 70 370 84.5 c 128,-1,33
 386 99 386 99 414 119 c 0,34,35
 441 136 441 136 457 149 c 128,-1,36
 473 162 473 162 482 172.5 c 128,-1,37
 491 183 491 183 494 192 c 128,-1,38
 497 201 497 201 497 211 c 0,39,40
 497 236 497 236 483 251 c 128,-1,41
 469 266 469 266 444 266 c 0,42,43
 382 266 382 266 367 208 c 1,44,-1
 336 212 l 1,11,12
413 493 m 1,45,-1
 451 493 l 1,46,-1
 154 -7 l 1,47,-1
 114 -7 l 1,48,-1
 413 493 l 1,45,-1
EndSplineSet
Ligature: 0 0 'frac' one fraction two
Ligature: 0 0 'frac' one slash two
EndChar
StartChar: threequarters
Encoding: 190 190 128
Width: 595
Flags: W
Fore
348 99 m 1,0,-1
 452 99 l 1,1,-1
 452 251 l 1,2,-1
 450 251 l 1,3,-1
 348 99 l 1,0,-1
312 103 m 1,4,-1
 443 292 l 1,5,-1
 488 292 l 1,6,-1
 488 99 l 1,7,-1
 535 99 l 1,8,-1
 535 70 l 1,9,-1
 488 70 l 1,10,-1
 488 0 l 1,11,-1
 452 0 l 1,12,-1
 452 70 l 1,13,-1
 312 70 l 1,14,-1
 312 103 l 1,4,-1
48 266 m 1,15,16
 62 240 62 240 79.5 231 c 128,-1,17
 97 222 97 222 127 222 c 0,18,19
 163 222 163 222 181.5 237 c 128,-1,20
 200 252 200 252 200 278 c 0,21,22
 200 309 200 309 177.5 322.5 c 128,-1,23
 155 336 155 336 115 336 c 2,24,-1
 86 336 l 1,25,-1
 86 366 l 1,26,-1
 110 366 l 2,27,28
 148 366 148 366 169 378 c 128,-1,29
 190 390 190 390 190 419 c 0,30,31
 190 439 190 439 173 451 c 128,-1,32
 156 463 156 463 133 463 c 0,33,34
 120 463 120 463 109.5 462 c 128,-1,35
 99 461 99 461 90.5 457 c 128,-1,36
 82 453 82 453 74.5 446.5 c 128,-1,37
 67 440 67 440 59 429 c 1,38,-1
 35 445 l 1,39,40
 55 471 55 471 77.5 482 c 128,-1,41
 100 493 100 493 129 493 c 0,42,43
 147 493 147 493 164.5 488.5 c 128,-1,44
 182 484 182 484 195.5 475 c 128,-1,45
 209 466 209 466 217 452.5 c 128,-1,46
 225 439 225 439 225 421 c 0,47,48
 225 396 225 396 216.5 379.5 c 128,-1,49
 208 363 208 363 180 352 c 1,50,51
 206 344 206 344 220.5 326.5 c 128,-1,52
 235 309 235 309 235 278 c 0,53,54
 235 232 235 232 204.5 212.5 c 128,-1,55
 174 193 174 193 127 193 c 0,56,57
 48 193 48 193 20 250 c 1,58,-1
 48 266 l 1,15,16
431 493 m 1,59,-1
 469 493 l 1,60,-1
 173 -7 l 1,61,-1
 133 -7 l 1,62,-1
 431 493 l 1,59,-1
EndSplineSet
Ligature: 0 0 'frac' three fraction four
Ligature: 0 0 'frac' three slash four
EndChar
StartChar: questiondown
Encoding: 191 191 129
Width: 295
Flags: W
Fore
274 -67 m 1,0,1
 258 -110 258 -110 227.5 -136 c 128,-1,2
 197 -162 197 -162 148 -162 c 0,3,4
 124 -162 124 -162 101 -154 c 128,-1,5
 78 -146 78 -146 61 -130.5 c 128,-1,6
 44 -115 44 -115 33.5 -91.5 c 128,-1,7
 23 -68 23 -68 23 -37 c 0,8,9
 23 1 23 1 43 28 c 128,-1,10
 63 55 63 55 87.5 79.5 c 128,-1,11
 112 104 112 104 132 130 c 128,-1,12
 152 156 152 156 152 192 c 2,13,-1
 152 228 l 1,14,-1
 193 228 l 1,15,-1
 193 173 l 2,16,17
 193 144 193 144 174.5 119 c 128,-1,18
 156 94 156 94 133.5 69 c 128,-1,19
 111 44 111 44 92 16 c 128,-1,20
 73 -12 73 -12 73 -48 c 0,21,22
 73 -83 73 -83 95 -101.5 c 128,-1,23
 117 -120 117 -120 149 -120 c 0,24,25
 168 -120 168 -120 182 -113.5 c 128,-1,26
 196 -107 196 -107 206.5 -96.5 c 128,-1,27
 217 -86 217 -86 224 -73 c 128,-1,28
 231 -60 231 -60 236 -48 c 1,29,-1
 274 -67 l 1,0,1
207 395 m 1,30,-1
 207 327 l 1,31,-1
 143 327 l 1,32,-1
 143 395 l 1,33,-1
 207 395 l 1,30,-1
EndSplineSet
EndChar
StartChar: AE
Encoding: 198 198 136
Width: 649
Flags: W
Fore
393 42 m 1,0,-1
 626 42 l 1,1,-1
 626 0 l 1,2,-1
 348 0 l 1,3,-1
 348 141 l 1,4,-1
 151 141 l 1,5,-1
 74 0 l 1,6,-1
 20 0 l 1,7,-1
 289 486 l 1,8,-1
 629 486 l 1,9,-1
 629 444 l 1,10,-1
 393 444 l 1,11,-1
 393 280 l 1,12,-1
 599 280 l 1,13,-1
 599 238 l 1,14,-1
 393 238 l 1,15,-1
 393 42 l 1,0,-1
348 185 m 1,16,-1
 348 445 l 1,17,-1
 315 445 l 1,18,-1
 171 185 l 1,19,-1
 348 185 l 1,16,-1
EndSplineSet
EndChar
StartChar: Eth
Encoding: 208 208 146
Width: 467
Flags: W
Fore
-20 227 m 1,0,-1
 -20 267 l 1,1,-1
 60 267 l 1,2,-1
 60 486 l 1,3,-1
 241 486 l 2,4,5
 294 486 294 486 330 470.5 c 128,-1,6
 366 455 366 455 387.5 423.5 c 128,-1,7
 409 392 409 392 418 345 c 128,-1,8
 427 298 427 298 427 236 c 0,9,10
 427 178 427 178 418 133.5 c 128,-1,11
 409 89 409 89 387.5 59.5 c 128,-1,12
 366 30 366 30 330 15 c 128,-1,13
 294 0 294 0 241 0 c 2,14,-1
 60 0 l 1,15,-1
 60 227 l 1,16,-1
 -20 227 l 1,0,-1
261 267 m 1,17,-1
 261 227 l 1,18,-1
 110 227 l 1,19,-1
 110 42 l 1,20,-1
 241 42 l 2,21,22
 283 42 283 42 309.5 53.5 c 128,-1,23
 336 65 336 65 351 88.5 c 128,-1,24
 366 112 366 112 371.5 148.5 c 128,-1,25
 377 185 377 185 377 236 c 0,26,27
 377 292 377 292 371.5 331 c 128,-1,28
 366 370 366 370 351 395.5 c 128,-1,29
 336 421 336 421 309.5 432.5 c 128,-1,30
 283 444 283 444 241 444 c 2,31,-1
 110 444 l 1,32,-1
 110 267 l 1,33,-1
 261 267 l 1,17,-1
EndSplineSet
EndChar
StartChar: multiply
Encoding: 215 215 153
Width: 389
Flags: W
Fore
222 228 m 1,0,-1
 364 86 l 1,1,-1
 336 58 l 1,2,-1
 194 200 l 1,3,-1
 53 58 l 1,4,-1
 25 86 l 1,5,-1
 167 228 l 1,6,-1
 25 369 l 1,7,-1
 53 397 l 1,8,-1
 194 254 l 1,9,-1
 336 397 l 1,10,-1
 364 369 l 1,11,-1
 222 228 l 1,0,-1
EndSplineSet
EndChar
StartChar: Oslash
Encoding: 216 216 154
Width: 472
Flags: W
Fore
46 -60 m 1,0,-1
 2 -60 l 1,1,-1
 80 63 l 1,2,3
 59 94 59 94 49.5 137 c 128,-1,4
 40 180 40 180 40 237 c 0,5,6
 40 362 40 362 84.5 425.5 c 128,-1,7
 129 489 129 489 236 489 c 0,8,9
 297 489 297 489 337 468 c 1,10,-1
 395 556 l 1,11,-1
 445 556 l 1,12,-1
 371 444 l 1,13,14
 403 412 403 412 417.5 360.5 c 128,-1,15
 432 309 432 309 432 237 c 0,16,17
 432 179 432 179 421.5 133.5 c 128,-1,18
 411 88 411 88 387.5 57 c 128,-1,19
 364 26 364 26 326.5 10 c 128,-1,20
 289 -6 289 -6 236 -6 c 0,21,22
 193 -6 193 -6 161 4 c 128,-1,23
 129 14 129 14 106 34 c 1,24,-1
 46 -60 l 1,0,-1
236 41 m 0,25,26
 278 41 278 41 306 52.5 c 128,-1,27
 334 64 334 64 350.5 88 c 128,-1,28
 367 112 367 112 373.5 149 c 128,-1,29
 380 186 380 186 380 237 c 0,30,31
 380 297 380 297 372.5 337.5 c 128,-1,32
 365 378 365 378 345 403 c 1,33,-1
 132 74 l 1,34,35
 165 41 165 41 236 41 c 0,25,26
236 444 m 0,36,37
 193 444 193 444 165.5 432.5 c 128,-1,38
 138 421 138 421 121.5 396 c 128,-1,39
 105 371 105 371 98.5 332 c 128,-1,40
 92 293 92 293 92 237 c 0,41,42
 92 196 92 196 96 164 c 128,-1,43
 100 132 100 132 110 109 c 1,44,-1
 313 429 l 1,45,46
 283 444 283 444 236 444 c 0,36,37
EndSplineSet
EndChar
StartChar: Thorn
Encoding: 222 222 160
Width: 445
Flags: W
Fore
126 0 m 1,0,-1
 76 0 l 1,1,-1
 76 486 l 1,2,-1
 126 486 l 1,3,-1
 126 415 l 1,4,-1
 241 415 l 2,5,6
 290 415 290 415 322.5 402.5 c 128,-1,7
 355 390 355 390 374 368 c 128,-1,8
 393 346 393 346 400.5 316.5 c 128,-1,9
 408 287 408 287 408 252 c 0,10,11
 408 218 408 218 400.5 188 c 128,-1,12
 393 158 393 158 374 136 c 128,-1,13
 355 114 355 114 322.5 101.5 c 128,-1,14
 290 89 290 89 241 89 c 2,15,-1
 126 89 l 1,16,-1
 126 0 l 1,0,-1
126 130 m 1,17,-1
 241 130 l 2,18,19
 277 130 277 130 299.5 139 c 128,-1,20
 322 148 322 148 334.5 164 c 128,-1,21
 347 180 347 180 352 202.5 c 128,-1,22
 357 225 357 225 357 252 c 256,23,24
 357 279 357 279 352 301.5 c 128,-1,25
 347 324 347 324 334.5 339.5 c 128,-1,26
 322 355 322 355 299.5 364 c 128,-1,27
 277 373 277 373 241 373 c 2,28,-1
 126 373 l 1,29,-1
 126 130 l 1,17,-1
EndSplineSet
EndChar
StartChar: germandbls
Encoding: 223 223 161
Width: 380
Flags: W
Fore
58 0 m 1,0,-1
 58 405 l 2,1,2
 58 470 58 470 91 509.5 c 128,-1,3
 124 549 124 549 192 549 c 0,4,5
 221 549 221 549 245 538.5 c 128,-1,6
 269 528 269 528 286 510 c 128,-1,7
 303 492 303 492 312.5 467 c 128,-1,8
 322 442 322 442 322 413 c 0,9,10
 322 375 322 375 304.5 345.5 c 128,-1,11
 287 316 287 316 253 299 c 1,12,13
 304 283 304 283 330 245 c 128,-1,14
 356 207 356 207 356 153 c 0,15,16
 356 79 356 79 322.5 35.5 c 128,-1,17
 289 -8 289 -8 226 -8 c 0,18,19
 210 -8 210 -8 190.5 -3 c 128,-1,20
 171 2 171 2 157 10 c 1,21,-1
 173 44 l 1,22,23
 184 38 184 38 199.5 33.5 c 128,-1,24
 215 29 215 29 229 29 c 0,25,26
 268 29 268 29 289.5 60.5 c 128,-1,27
 311 92 311 92 311 147 c 0,28,29
 311 216 311 216 276 245 c 128,-1,30
 241 274 241 274 173 274 c 1,31,-1
 173 310 l 1,32,33
 222 312 222 312 249 335 c 128,-1,34
 276 358 276 358 276 415 c 0,35,36
 276 461 276 461 253.5 486.5 c 128,-1,37
 231 512 231 512 184 512 c 0,38,39
 160 512 160 512 144.5 503 c 128,-1,40
 129 494 129 494 120 479 c 128,-1,41
 111 464 111 464 107.5 445.5 c 128,-1,42
 104 427 104 427 104 408 c 2,43,-1
 104 0 l 1,44,-1
 58 0 l 1,0,-1
EndSplineSet
EndChar
StartChar: ae
Encoding: 230 230 168
Width: 623
Flags: W
Fore
316 196 m 1,0,1
 316 162 316 162 321.5 132 c 128,-1,2
 327 102 327 102 340.5 79 c 128,-1,3
 354 56 354 56 376.5 42.5 c 128,-1,4
 399 29 399 29 433 29 c 0,5,6
 471 29 471 29 498.5 45.5 c 128,-1,7
 526 62 526 62 548 108 c 1,8,-1
 585 89 l 1,9,10
 561 36 561 36 523.5 14 c 128,-1,11
 486 -8 486 -8 429 -8 c 0,12,13
 383 -8 383 -8 353 11.5 c 128,-1,14
 323 31 323 31 301 67 c 1,15,16
 265 29 265 29 226 10.5 c 128,-1,17
 187 -8 187 -8 128 -8 c 0,18,19
 82 -8 82 -8 51 24 c 128,-1,20
 20 56 20 56 20 106 c 0,21,22
 20 146 20 146 36 171 c 128,-1,23
 52 196 52 196 83.5 210 c 128,-1,24
 115 224 115 224 162.5 229.5 c 128,-1,25
 210 235 210 235 273 235 c 1,26,-1
 273 287 l 2,27,28
 273 327 273 327 253 347 c 128,-1,29
 233 367 233 367 182 367 c 0,30,31
 147 367 147 367 118.5 348 c 128,-1,32
 90 329 90 329 67 295 c 1,33,-1
 32 314 l 1,34,35
 62 362 62 362 102.5 382.5 c 128,-1,36
 143 403 143 403 184 403 c 0,37,38
 234 403 234 403 263.5 384 c 128,-1,39
 293 365 293 365 306 332 c 1,40,41
 326 362 326 362 354.5 382.5 c 128,-1,42
 383 403 383 403 428 403 c 0,43,44
 468 403 468 403 497 388 c 128,-1,45
 526 373 526 373 544.5 345.5 c 128,-1,46
 563 318 563 318 572 280 c 128,-1,47
 581 242 581 242 581 196 c 1,48,-1
 316 196 l 1,0,1
271 198 m 1,49,50
 205 198 205 198 164 190.5 c 128,-1,51
 123 183 123 183 100.5 170.5 c 128,-1,52
 78 158 78 158 70 141.5 c 128,-1,53
 62 125 62 125 62 107 c 0,54,55
 62 74 62 74 83.5 51.5 c 128,-1,56
 105 29 105 29 136 29 c 0,57,58
 182 29 182 29 213.5 46.5 c 128,-1,59
 245 64 245 64 271 94 c 1,60,-1
 271 198 l 1,49,50
535 233 m 1,61,62
 532 263 532 263 525.5 288 c 128,-1,63
 519 313 519 313 507 330.5 c 128,-1,64
 495 348 495 348 475.5 357.5 c 128,-1,65
 456 367 456 367 426 367 c 256,66,67
 396 367 396 367 375 355 c 128,-1,68
 354 343 354 343 341 323.5 c 128,-1,69
 328 304 328 304 322 280 c 128,-1,70
 316 256 316 256 316 233 c 1,71,-1
 535 233 l 1,61,62
EndSplineSet
EndChar
StartChar: eth
Encoding: 240 240 178
Width: 380
Flags: W
Fore
190 367 m 256,0,1
 128 367 128 367 100.5 323 c 128,-1,2
 73 279 73 279 73 198 c 256,3,4
 73 117 73 117 100.5 73 c 128,-1,5
 128 29 128 29 190 29 c 256,6,7
 252 29 252 29 279.5 73 c 128,-1,8
 307 117 307 117 307 198 c 256,9,10
 307 279 307 279 279.5 323 c 128,-1,11
 252 367 252 367 190 367 c 256,0,1
173 549 m 1,12,13
 187 539 187 539 200.5 529 c 128,-1,14
 214 519 214 519 226 508 c 1,15,-1
 303 549 l 1,16,-1
 325 519 l 1,17,-1
 254 481 l 1,18,19
 284 450 284 450 303 415 c 128,-1,20
 322 380 322 380 333 344 c 128,-1,21
 344 308 344 308 348 271 c 128,-1,22
 352 234 352 234 352 198 c 0,23,24
 352 158 352 158 344 120.5 c 128,-1,25
 336 83 336 83 317.5 54.5 c 128,-1,26
 299 26 299 26 268 9 c 128,-1,27
 237 -8 237 -8 190 -8 c 0,28,29
 144 -8 144 -8 113 9 c 128,-1,30
 82 26 82 26 63 54.5 c 128,-1,31
 44 83 44 83 36 120.5 c 128,-1,32
 28 158 28 158 28 198 c 256,33,34
 28 238 28 238 36 275 c 128,-1,35
 44 312 44 312 63 340.5 c 128,-1,36
 82 369 82 369 113 386 c 128,-1,37
 144 403 144 403 190 403 c 0,38,39
 234 403 234 403 265 386 c 1,40,-1
 267 388 l 1,41,42
 256 407 256 407 243.5 426 c 128,-1,43
 231 445 231 445 215 462 c 1,44,-1
 138 421 l 1,45,-1
 116 451 l 1,46,-1
 187 488 l 1,47,48
 175 500 175 500 161.5 510 c 128,-1,49
 148 520 148 520 132 529 c 1,50,-1
 173 549 l 1,12,13
EndSplineSet
EndChar
StartChar: divide
Encoding: 247 247 185
Width: 402
Flags: W
Fore
35 206 m 1,0,-1
 35 248 l 1,1,-1
 367 248 l 1,2,-1
 367 206 l 1,3,-1
 35 206 l 1,0,-1
201 402 m 256,4,5
 216 402 216 402 227 391 c 128,-1,6
 238 380 238 380 238 366 c 0,7,8
 238 351 238 351 227 340 c 128,-1,9
 216 329 216 329 201 329 c 256,10,11
 186 329 186 329 175 340 c 128,-1,12
 164 351 164 351 164 366 c 0,13,14
 164 380 164 380 175 391 c 128,-1,15
 186 402 186 402 201 402 c 256,4,5
201 124 m 256,16,17
 216 124 216 124 227 113 c 128,-1,18
 238 102 238 102 238 87 c 0,19,20
 238 73 238 73 227 62 c 128,-1,21
 216 51 216 51 201 51 c 256,22,23
 186 51 186 51 175 62 c 128,-1,24
 164 73 164 73 164 87 c 0,25,26
 164 102 164 102 175 113 c 128,-1,27
 186 124 186 124 201 124 c 256,16,17
EndSplineSet
EndChar
StartChar: oslash
Encoding: 248 248 186
Width: 380
Flags: W
Fore
262 346 m 1,0,1
 237 367 237 367 190 367 c 0,2,3
 156 367 156 367 133 355.5 c 128,-1,4
 110 344 110 344 97 322.5 c 128,-1,5
 84 301 84 301 78.5 269.5 c 128,-1,6
 73 238 73 238 73 198 c 0,7,8
 73 161 73 161 77 132 c 128,-1,9
 81 103 81 103 92 81 c 1,10,-1
 262 346 l 1,0,1
114 52 m 1,11,12
 142 29 142 29 190 29 c 0,13,14
 259 29 259 29 283 73 c 128,-1,15
 307 117 307 117 307 198 c 0,16,17
 307 236 307 236 302 266.5 c 128,-1,18
 297 297 297 297 285 318 c 1,19,-1
 114 52 l 1,11,12
43 -60 m 1,20,-1
 2 -60 l 1,21,-1
 67 42 l 1,22,23
 46 68 46 68 37 107.5 c 128,-1,24
 28 147 28 147 28 198 c 0,25,26
 28 246 28 246 36 284 c 128,-1,27
 44 322 44 322 63 348.5 c 128,-1,28
 82 375 82 375 113 389 c 128,-1,29
 144 403 144 403 190 403 c 0,30,31
 247 403 247 403 284 380 c 1,32,-1
 339 466 l 1,33,-1
 380 466 l 1,34,-1
 310 357 l 1,35,36
 333 331 333 331 342.5 290.5 c 128,-1,37
 352 250 352 250 352 198 c 0,38,39
 352 150 352 150 344 112 c 128,-1,40
 336 74 336 74 317.5 47 c 128,-1,41
 299 20 299 20 268 6 c 128,-1,42
 237 -8 237 -8 190 -8 c 0,43,44
 158 -8 158 -8 134 -1.5 c 128,-1,45
 110 5 110 5 92 17 c 1,46,-1
 43 -60 l 1,20,-1
EndSplineSet
EndChar
StartChar: thorn
Encoding: 254 254 192
Width: 423
Flags: W
Fore
70 549 m 1,0,-1
 116 549 l 1,1,-1
 116 334 l 1,2,-1
 117 334 l 1,3,4
 140 369 140 369 169 386 c 128,-1,5
 198 403 198 403 237 403 c 0,6,7
 275 403 275 403 304.5 386 c 128,-1,8
 334 369 334 369 354 340 c 128,-1,9
 374 311 374 311 384.5 274 c 128,-1,10
 395 237 395 237 395 196 c 0,11,12
 395 92 395 92 352 42 c 128,-1,13
 309 -8 309 -8 239 -8 c 0,14,15
 199 -8 199 -8 172 6 c 128,-1,16
 145 20 145 20 116 51 c 1,17,-1
 116 -140 l 1,18,-1
 70 -140 l 1,19,-1
 70 549 l 1,0,-1
116 100 m 1,20,21
 122 90 122 90 133.5 77.5 c 128,-1,22
 145 65 145 65 160 54.5 c 128,-1,23
 175 44 175 44 192.5 36.5 c 128,-1,24
 210 29 210 29 227 29 c 0,25,26
 290 29 290 29 320 75 c 128,-1,27
 350 121 350 121 350 203 c 0,28,29
 350 234 350 234 343 263.5 c 128,-1,30
 336 293 336 293 322 316 c 128,-1,31
 308 339 308 339 286 353 c 128,-1,32
 264 367 264 367 234 367 c 0,33,34
 196 367 196 367 170.5 346 c 128,-1,35
 145 325 145 325 116 295 c 1,36,-1
 116 100 l 1,20,21
EndSplineSet
EndChar
StartChar: dotlessi
Encoding: 305 305 194
Width: 169
Flags: W
Fore
107 0 m 1,0,-1
 62 0 l 1,1,-1
 62 395 l 1,2,-1
 107 395 l 1,3,-1
 107 0 l 1,0,-1
EndSplineSet
EndChar
StartChar: Lslash
Encoding: 321 321 195
Width: 380
Flags: W
Fore
126 267 m 1,0,-1
 126 41 l 1,1,-1
 371 41 l 1,2,-1
 371 0 l 1,3,-1
 76 0 l 1,4,-1
 76 246 l 1,5,-1
 12 220 l 1,6,-1
 12 268 l 1,7,-1
 76 294 l 1,8,-1
 76 549 l 1,9,-1
 126 549 l 1,10,-1
 126 314 l 1,11,-1
 256 366 l 1,12,-1
 256 318 l 1,13,-1
 126 267 l 1,0,-1
EndSplineSet
EndChar
StartChar: lslash
Encoding: 322 322 196
Width: 169
Flags: W
Fore
107 0 m 1,0,-1
 62 0 l 1,1,-1
 62 254 l 1,2,-1
 1 222 l 1,3,-1
 1 271 l 1,4,-1
 62 302 l 1,5,-1
 62 549 l 1,6,-1
 107 549 l 1,7,-1
 107 326 l 1,8,-1
 168 357 l 1,9,-1
 168 309 l 1,10,-1
 107 277 l 1,11,-1
 107 0 l 1,0,-1
EndSplineSet
EndChar
StartChar: OE
Encoding: 338 338 197
Width: 658
Flags: W
Fore
352 434 m 1,0,1
 333 438 333 438 300.5 441.5 c 128,-1,2
 268 445 268 445 236 445 c 0,3,4
 193 445 193 445 165 433.5 c 128,-1,5
 137 422 137 422 120.5 396.5 c 128,-1,6
 104 371 104 371 97 332 c 128,-1,7
 90 293 90 293 90 237 c 0,8,9
 90 186 90 186 97 149 c 128,-1,10
 104 112 104 112 120.5 88 c 128,-1,11
 137 64 137 64 165 52 c 128,-1,12
 193 40 193 40 236 40 c 0,13,14
 268 40 268 40 301.5 44 c 128,-1,15
 335 48 335 48 352 55 c 1,16,-1
 352 434 l 1,0,1
638 444 m 1,17,-1
 402 444 l 1,18,-1
 402 280 l 1,19,-1
 608 280 l 1,20,-1
 608 238 l 1,21,-1
 402 238 l 1,22,-1
 402 42 l 1,23,-1
 635 42 l 1,24,-1
 635 0 l 1,25,-1
 352 0 l 2,26,27
 339 0 339 0 306.5 -3 c 128,-1,28
 274 -6 274 -6 236 -6 c 0,29,30
 130 -6 130 -6 85 57 c 128,-1,31
 40 120 40 120 40 237 c 0,32,33
 40 362 40 362 84.5 425.5 c 128,-1,34
 129 489 129 489 236 489 c 0,35,36
 265 489 265 489 298.5 487.5 c 128,-1,37
 332 486 332 486 352 486 c 2,38,-1
 638 486 l 1,39,-1
 638 444 l 1,17,-1
EndSplineSet
EndChar
StartChar: oe
Encoding: 339 339 198
Width: 633
Flags: W
Fore
73 198 m 256,0,1
 73 117 73 117 100 73 c 128,-1,2
 127 29 127 29 187 29 c 0,3,4
 242 29 242 29 269 73 c 128,-1,5
 296 117 296 117 296 198 c 256,6,7
 296 279 296 279 269 323 c 128,-1,8
 242 367 242 367 187 367 c 0,9,10
 127 367 127 367 100 323 c 128,-1,11
 73 279 73 279 73 198 c 256,0,1
342 196 m 1,12,13
 342 162 342 162 347.5 132 c 128,-1,14
 353 102 353 102 366 79 c 128,-1,15
 379 56 379 56 400.5 42.5 c 128,-1,16
 422 29 422 29 453 29 c 0,17,18
 472 29 472 29 487 33 c 128,-1,19
 502 37 502 37 515 46 c 128,-1,20
 528 55 528 55 540.5 70 c 128,-1,21
 553 85 553 85 568 108 c 1,22,-1
 606 89 l 1,23,24
 574 37 574 37 539.5 14.5 c 128,-1,25
 505 -8 505 -8 449 -8 c 0,26,27
 401 -8 401 -8 369 14 c 128,-1,28
 337 36 337 36 316 79 c 1,29,30
 300 42 300 42 270 17 c 128,-1,31
 240 -8 240 -8 187 -8 c 0,32,33
 142 -8 142 -8 111.5 9 c 128,-1,34
 81 26 81 26 62.5 54.5 c 128,-1,35
 44 83 44 83 36 120.5 c 128,-1,36
 28 158 28 158 28 198 c 256,37,38
 28 238 28 238 36 275 c 128,-1,39
 44 312 44 312 62.5 340.5 c 128,-1,40
 81 369 81 369 111.5 386 c 128,-1,41
 142 403 142 403 187 403 c 0,42,43
 239 403 239 403 270.5 378.5 c 128,-1,44
 302 354 302 354 317 317 c 1,45,46
 323 332 323 332 334 347.5 c 128,-1,47
 345 363 345 363 361 375.5 c 128,-1,48
 377 388 377 388 398.5 395.5 c 128,-1,49
 420 403 420 403 448 403 c 0,50,51
 487 403 487 403 516 388 c 128,-1,52
 545 373 545 373 564 345.5 c 128,-1,53
 583 318 583 318 592 280 c 128,-1,54
 601 242 601 242 601 196 c 1,55,-1
 342 196 l 1,12,13
556 233 m 1,56,57
 548 294 548 294 523 330.5 c 128,-1,58
 498 367 498 367 447 367 c 0,59,60
 420 367 420 367 400.5 356.5 c 128,-1,61
 381 346 381 346 369 327.5 c 128,-1,62
 357 309 357 309 350.5 284.5 c 128,-1,63
 344 260 344 260 342 233 c 1,64,-1
 556 233 l 1,56,57
EndSplineSet
EndChar
StartChar: florin
Encoding: 402 402 204
Width: 383
Flags: W
Fore
346 499 m 1,0,1
 340 500 340 500 334 500.5 c 128,-1,2
 328 501 328 501 323 501 c 0,3,4
 292 501 292 501 274.5 483.5 c 128,-1,5
 257 466 257 466 248.5 440 c 128,-1,6
 240 414 240 414 236.5 382.5 c 128,-1,7
 233 351 233 351 228 322 c 1,8,-1
 316 322 l 1,9,-1
 316 287 l 1,10,-1
 223 287 l 1,11,-1
 181 -9 l 2,12,13
 177 -35 177 -35 167 -58 c 128,-1,14
 157 -81 157 -81 140.5 -98.5 c 128,-1,15
 124 -116 124 -116 101 -126 c 128,-1,16
 78 -136 78 -136 49 -136 c 0,17,18
 41 -136 41 -136 34.5 -135.5 c 128,-1,19
 28 -135 28 -135 20 -134 c 1,20,-1
 26 -90 l 1,21,22
 32 -92 32 -92 38.5 -94 c 128,-1,23
 45 -96 45 -96 51 -96 c 0,24,25
 93 -96 93 -96 110.5 -63.5 c 128,-1,26
 128 -31 128 -31 138 29 c 2,27,-1
 174 287 l 1,28,-1
 75 287 l 1,29,-1
 75 322 l 1,30,-1
 179 322 l 1,31,32
 182 352 182 352 188 390 c 128,-1,33
 194 428 194 428 207.5 462 c 128,-1,34
 221 496 221 496 245.5 519 c 128,-1,35
 270 542 270 542 310 542 c 0,36,37
 334 542 334 542 353 538 c 1,38,-1
 346 499 l 1,0,1
EndSplineSet
EndChar
StartChar: circumflex
Encoding: 710 710 205
Width: 169
Flags: W
Fore
197 439 m 1,0,-1
 146 439 l 1,1,-1
 85 516 l 1,2,-1
 22 439 l 1,3,-1
 -29 439 l 1,4,-1
 59 544 l 1,5,-1
 110 544 l 1,6,-1
 197 439 l 1,0,-1
EndSplineSet
EndChar
StartChar: caron
Encoding: 711 711 206
Width: 169
Flags: W
Fore
-29 552 m 1,0,-1
 22 552 l 1,1,-1
 85 475 l 1,2,-1
 146 552 l 1,3,-1
 197 552 l 1,4,-1
 110 447 l 1,5,-1
 59 447 l 1,6,-1
 -29 552 l 1,0,-1
EndSplineSet
EndChar
StartChar: breve
Encoding: 728 728 207
Width: 169
Flags: W
Fore
85 486 m 0,0,1
 114 486 114 486 133.5 500 c 128,-1,2
 153 514 153 514 160 548 c 1,3,-1
 194 548 l 1,4,5
 191 503 191 503 162 477.5 c 128,-1,6
 133 452 133 452 85 452 c 256,7,8
 37 452 37 452 7.5 477.5 c 128,-1,9
 -22 503 -22 503 -25 548 c 1,10,-1
 9 548 l 1,11,12
 16 514 16 514 35 500 c 128,-1,13
 54 486 54 486 85 486 c 0,0,1
EndSplineSet
EndChar
StartChar: dotaccent
Encoding: 729 729 208
Width: 169
Flags: W
Fore
109 519 m 1,0,-1
 109 447 l 1,1,-1
 59 447 l 1,2,-1
 59 519 l 1,3,-1
 109 519 l 1,0,-1
EndSplineSet
EndChar
StartChar: ring
Encoding: 730 730 209
Width: 169
Flags: W
Fore
85 588 m 0,0,1
 115 588 115 588 138 566 c 128,-1,2
 161 544 161 544 161 512 c 256,3,4
 161 480 161 480 138 458 c 128,-1,5
 115 436 115 436 85 436 c 0,6,7
 54 436 54 436 31.5 458 c 128,-1,8
 9 480 9 480 9 512 c 256,9,10
 9 544 9 544 31.5 566 c 128,-1,11
 54 588 54 588 85 588 c 0,0,1
85 562 m 0,12,13
 64 562 64 562 49 548 c 128,-1,14
 34 534 34 534 34 512 c 0,15,16
 34 492 34 492 49 477 c 128,-1,17
 64 462 64 462 85 462 c 0,18,19
 105 462 105 462 120 477 c 128,-1,20
 135 492 135 492 135 512 c 0,21,22
 135 534 135 534 120 548 c 128,-1,23
 105 562 105 562 85 562 c 0,12,13
EndSplineSet
EndChar
StartChar: ogonek
Encoding: 731 731 210
Width: 169
Flags: W
Fore
163 8 m 1,0,1
 147 1 147 1 127 -7.5 c 128,-1,2
 107 -16 107 -16 89.5 -27.5 c 128,-1,3
 72 -39 72 -39 60 -54 c 128,-1,4
 48 -69 48 -69 48 -89 c 0,5,6
 48 -102 48 -102 57 -111 c 128,-1,7
 66 -120 66 -120 89 -120 c 0,8,9
 107 -120 107 -120 130 -109.5 c 128,-1,10
 153 -99 153 -99 168 -91 c 1,11,-1
 181 -117 l 1,12,13
 159 -131 159 -131 129 -144 c 128,-1,14
 99 -157 99 -157 73 -157 c 0,15,16
 44 -157 44 -157 23 -143.5 c 128,-1,17
 2 -130 2 -130 2 -96 c 0,18,19
 2 -68 2 -68 19.5 -49 c 128,-1,20
 37 -30 37 -30 62 -17.5 c 128,-1,21
 87 -5 87 -5 114.5 2.5 c 128,-1,22
 142 10 142 10 163 14 c 1,23,-1
 163 8 l 1,0,1
EndSplineSet
EndChar
StartChar: tilde
Encoding: 732 732 211
Width: 169
Flags: W
Fore
-35 447 m 1,0,1
 -33 474 -33 474 -15 498 c 128,-1,2
 3 522 3 522 32 522 c 0,3,4
 46 522 46 522 60 516.5 c 128,-1,5
 74 511 74 511 88 504 c 0,6,7
 102 498 102 498 115 493 c 128,-1,8
 128 488 128 488 141 488 c 0,9,10
 157 488 157 488 165 499.5 c 128,-1,11
 173 511 173 511 175 525 c 1,12,-1
 203 525 l 1,13,14
 199 496 199 496 184.5 473.5 c 128,-1,15
 170 451 170 451 136 451 c 0,16,17
 124 451 124 451 110 457 c 128,-1,18
 82 469 l 256,19,20
 68 475 68 475 54 480 c 128,-1,21
 40 485 40 485 29 485 c 0,22,23
 13 485 13 485 4.5 473 c 128,-1,24
 -4 461 -4 461 -6 447 c 1,25,-1
 -35 447 l 1,0,1
EndSplineSet
EndChar
StartChar: hungarumlaut
Encoding: 733 733 212
Width: 169
Flags: W
Fore
124 544 m 1,0,-1
 31 439 l 1,1,-1
 -6 439 l 1,2,-1
 65 544 l 1,3,-1
 124 544 l 1,0,-1
229 544 m 1,4,-1
 124 439 l 1,5,-1
 86 439 l 1,6,-1
 170 544 l 1,7,-1
 229 544 l 1,4,-1
EndSplineSet
EndChar
StartChar: uni0E01
Encoding: 3585 3585 214
Width: 420
Flags: W
Fore
211 406 m 0,0,1
 245 406 245 406 273.5 399 c 128,-1,2
 302 392 302 392 322 374 c 128,-1,3
 342 356 342 356 353.5 325.5 c 128,-1,4
 365 295 365 295 365 249 c 2,5,-1
 365 0 l 1,6,-1
 325 0 l 1,7,-1
 325 249 l 2,8,9
 325 288 325 288 317.5 311.5 c 128,-1,10
 310 335 310 335 295.5 348.5 c 128,-1,11
 281 362 281 362 260 366.5 c 128,-1,12
 239 371 239 371 211 371 c 0,13,14
 186 371 186 371 163 365 c 128,-1,15
 140 359 140 359 122.5 350.5 c 128,-1,16
 105 342 105 342 94.5 334 c 128,-1,17
 84 326 84 326 84 321 c 0,18,19
 84 318 84 318 88.5 312 c 128,-1,20
 93 306 93 306 99 300 c 128,-1,21
 105 294 105 294 111 289.5 c 128,-1,22
 117 285 117 285 120 285 c 0,23,24
 128 285 128 285 137 291.5 c 128,-1,25
 146 298 146 298 155 298 c 0,26,27
 158 298 158 298 162 293 c 128,-1,28
 166 288 166 288 169 282 c 128,-1,29
 172 276 172 276 172.5 271 c 128,-1,30
 173 266 173 266 169 266 c 0,31,32
 154 266 154 266 142.5 263 c 128,-1,33
 131 260 131 260 123 250.5 c 128,-1,34
 115 241 115 241 110.5 223.5 c 128,-1,35
 106 206 106 206 106 178 c 2,36,-1
 106 0 l 1,37,-1
 66 0 l 1,38,-1
 66 178 l 2,39,40
 66 216 66 216 73.5 233.5 c 128,-1,41
 81 251 81 251 98 268 c 1,42,43
 94 270 94 270 85.5 276 c 128,-1,44
 77 282 77 282 68 289.5 c 128,-1,45
 59 297 59 297 52 305 c 128,-1,46
 45 313 45 313 45 319 c 0,47,48
 45 328 45 328 57.5 343 c 128,-1,49
 70 358 70 358 92 372 c 128,-1,50
 114 386 114 386 144.5 396 c 128,-1,51
 175 406 175 406 211 406 c 0,0,1
EndSplineSet
EndChar
StartChar: uni0E02
Encoding: 3586 3586 215
Width: 399
Flags: W
Fore
139 369 m 0,0,1
 132 369 132 369 123 368 c 128,-1,2
 114 367 114 367 105.5 362.5 c 128,-1,3
 97 358 97 358 91.5 349.5 c 128,-1,4
 86 341 86 341 86 327 c 0,5,6
 86 314 86 314 92 304.5 c 128,-1,7
 98 295 98 295 112 295 c 0,8,9
 123 295 123 295 132.5 302.5 c 128,-1,10
 142 310 142 310 142 326 c 2,11,-1
 142 355 l 1,12,-1
 159 355 l 1,13,-1
 177 326 l 1,14,15
 177 296 177 296 159.5 277.5 c 128,-1,16
 142 259 142 259 112 259 c 256,17,18
 82 259 82 259 66 278.5 c 128,-1,19
 50 298 50 298 50 327 c 0,20,21
 50 359 50 359 77 380.5 c 128,-1,22
 104 402 104 402 143 402 c 0,23,24
 183 402 183 402 210 379 c 128,-1,25
 237 356 237 356 237 314 c 0,26,27
 237 271 237 271 220.5 248.5 c 128,-1,28
 204 226 204 226 184.5 211.5 c 128,-1,29
 165 197 165 197 148.5 184 c 128,-1,30
 132 171 132 171 132 145 c 2,31,-1
 132 93 l 2,32,33
 132 55 132 55 155.5 42 c 128,-1,34
 179 29 179 29 217 29 c 0,35,36
 263 29 263 29 284 41.5 c 128,-1,37
 305 54 305 54 305 98 c 0,38,39
 305 115 305 115 304 143.5 c 128,-1,40
 303 172 303 172 303 197 c 2,41,-1
 303 400 l 1,42,-1
 344 400 l 1,43,-1
 344 113 l 2,44,45
 344 47 344 47 311.5 20.5 c 128,-1,46
 279 -6 279 -6 216 -6 c 0,47,48
 162 -6 162 -6 127 17 c 128,-1,49
 92 40 92 40 92 96 c 2,50,-1
 92 145 l 2,51,52
 92 177 92 177 109 194.5 c 128,-1,53
 126 212 126 212 146.5 227 c 128,-1,54
 167 242 167 242 184 260 c 128,-1,55
 201 278 201 278 201 311 c 0,56,57
 201 369 201 369 139 369 c 0,0,1
EndSplineSet
EndChar
StartChar: uni0E03
Encoding: 3587 3587 216
Width: 413
Flags: W
Fore
155 318 m 1,0,1
 143 330 143 330 135 339.5 c 128,-1,2
 127 349 127 349 121.5 355.5 c 128,-1,3
 116 362 116 362 110.5 365 c 128,-1,4
 105 368 105 368 97 368 c 0,5,6
 84 368 84 368 76.5 358.5 c 128,-1,7
 69 349 69 349 69 335 c 0,8,9
 69 320 69 320 76 310 c 128,-1,10
 83 300 83 300 98 300 c 0,11,12
 104 300 104 300 112 304.5 c 128,-1,13
 120 309 120 309 131 321 c 1,14,-1
 141 309 l 1,15,-1
 135 286 l 1,16,17
 117 265 117 265 97 265 c 0,18,19
 68 265 68 265 51.5 285 c 128,-1,20
 35 305 35 305 35 334 c 0,21,22
 36 369 36 369 55 386 c 128,-1,23
 74 403 74 403 97 403 c 0,24,25
 110 403 110 403 121 396 c 128,-1,26
 132 389 132 389 140 380 c 0,27,28
 150 369 150 369 157 357 c 1,29,-1
 197 407 l 1,30,31
 217 398 217 398 231.5 372 c 128,-1,32
 246 346 246 346 246 318 c 0,33,34
 246 289 246 289 238 270.5 c 128,-1,35
 230 252 230 252 218 239.5 c 128,-1,36
 206 227 206 227 191.5 218 c 128,-1,37
 177 209 177 209 165 199 c 128,-1,38
 153 189 153 189 145 177 c 128,-1,39
 137 165 137 165 137 145 c 2,40,-1
 137 88 l 2,41,42
 137 69 137 69 143.5 57.5 c 128,-1,43
 150 46 150 46 162 39.5 c 128,-1,44
 174 33 174 33 190 31 c 128,-1,45
 206 29 206 29 225 29 c 0,46,47
 271 29 271 29 295 44 c 128,-1,48
 319 59 319 59 319 103 c 0,49,50
 319 120 319 120 318 146 c 128,-1,51
 317 172 317 172 317 197 c 2,52,-1
 317 400 l 1,53,-1
 358 400 l 1,54,-1
 358 118 l 2,55,56
 358 52 358 52 322.5 23 c 128,-1,57
 287 -6 287 -6 224 -6 c 0,58,59
 197 -6 197 -6 174 -1.5 c 128,-1,60
 151 3 151 3 133.5 14.5 c 128,-1,61
 116 26 116 26 106.5 44.5 c 128,-1,62
 97 63 97 63 97 91 c 2,63,-1
 97 145 l 2,64,65
 97 169 97 169 105.5 185 c 128,-1,66
 114 201 114 201 127 212.5 c 128,-1,67
 140 224 140 224 155.5 233 c 128,-1,68
 171 242 171 242 184 253 c 128,-1,69
 197 264 197 264 205.5 279 c 128,-1,70
 214 294 214 294 214 316 c 0,71,72
 214 335 214 335 207.5 348 c 128,-1,73
 201 361 201 361 196 366 c 1,74,-1
 155 318 l 1,0,1
EndSplineSet
EndChar
StartChar: uni0E04
Encoding: 3588 3588 217
Width: 425
Flags: W
Fore
330 226 m 2,0,1
 330 265 330 265 326.5 293 c 128,-1,2
 323 321 323 321 311 338 c 128,-1,3
 299 355 299 355 275 363 c 128,-1,4
 251 371 251 371 210 371 c 0,5,6
 157 371 157 371 123.5 339.5 c 128,-1,7
 90 308 90 308 90 242 c 0,8,9
 90 221 90 221 95 194.5 c 128,-1,10
 100 168 100 168 106 153 c 1,11,12
 115 175 115 175 125.5 197 c 128,-1,13
 136 219 136 219 150.5 236.5 c 128,-1,14
 165 254 165 254 183.5 265 c 128,-1,15
 202 276 202 276 227 276 c 0,16,17
 239 276 239 276 250.5 271.5 c 128,-1,18
 262 267 262 267 271.5 258.5 c 128,-1,19
 281 250 281 250 287.5 237 c 128,-1,20
 294 224 294 224 294 207 c 0,21,22
 294 178 294 178 273.5 157.5 c 128,-1,23
 253 137 253 137 224 137 c 0,24,25
 196 137 196 137 176 157 c 1,26,-1
 172 188 l 1,27,-1
 182 200 l 1,28,-1
 201 182 l 2,29,30
 210 172 210 172 223 172 c 0,31,32
 238 172 238 172 248.5 182.5 c 128,-1,33
 259 193 259 193 259 208 c 0,34,35
 259 222 259 222 249 231.5 c 128,-1,36
 239 241 239 241 222 241 c 0,37,38
 203 241 203 241 184.5 223 c 128,-1,39
 166 205 166 205 150.5 173 c 128,-1,40
 135 141 135 141 125 97 c 128,-1,41
 115 53 115 53 114 0 c 1,42,-1
 75 0 l 2,43,44
 71 0 71 0 69.5 2 c 128,-1,45
 68 4 68 4 68 14 c 0,46,47
 68 32 68 32 74 60 c 128,-1,48
 80 88 80 88 87 106 c 0,49,50
 93 122 93 122 87 129 c 0,51,52
 72 148 72 148 61 175.5 c 128,-1,53
 50 203 50 203 50 242 c 0,54,55
 50 320 50 320 94.5 363 c 128,-1,56
 139 406 139 406 210 406 c 0,57,58
 258 406 258 406 289 396 c 128,-1,59
 320 386 320 386 338 365 c 128,-1,60
 356 344 356 344 363 312 c 128,-1,61
 370 280 370 280 370 236 c 2,62,-1
 370 0 l 1,63,-1
 330 0 l 1,64,-1
 330 226 l 2,0,1
EndSplineSet
EndChar
StartChar: uni0E05
Encoding: 3589 3589 218
Width: 435
Flags: W
Fore
90 242 m 0,0,1
 90 221 90 221 95 194.5 c 128,-1,2
 100 168 100 168 106 153 c 1,3,4
 115 175 115 175 125.5 197 c 128,-1,5
 136 219 136 219 150.5 236.5 c 128,-1,6
 165 254 165 254 183.5 265 c 128,-1,7
 202 276 202 276 227 276 c 0,8,9
 239 276 239 276 250.5 271.5 c 128,-1,10
 262 267 262 267 271.5 258.5 c 128,-1,11
 281 250 281 250 287.5 237 c 128,-1,12
 294 224 294 224 294 207 c 0,13,14
 294 178 294 178 273.5 157.5 c 128,-1,15
 253 137 253 137 224 137 c 0,16,17
 196 137 196 137 176 157 c 1,18,-1
 172 188 l 1,19,-1
 182 200 l 1,20,-1
 201 182 l 2,21,22
 210 172 210 172 223 172 c 0,23,24
 238 172 238 172 248.5 182.5 c 128,-1,25
 259 193 259 193 259 208 c 0,26,27
 259 222 259 222 249 231.5 c 128,-1,28
 239 241 239 241 222 241 c 0,29,30
 203 241 203 241 184.5 223 c 128,-1,31
 166 205 166 205 150.5 173 c 128,-1,32
 135 141 135 141 125 97 c 128,-1,33
 115 53 115 53 114 0 c 1,34,-1
 75 0 l 2,35,36
 71 0 71 0 69.5 2 c 128,-1,37
 68 4 68 4 68 14 c 0,38,39
 68 32 68 32 74 60 c 128,-1,40
 80 88 80 88 87 106 c 0,41,42
 93 122 93 122 87 129 c 0,43,44
 72 148 72 148 61 175.5 c 128,-1,45
 50 203 50 203 50 242 c 0,46,47
 50 306 50 306 73 346 c 128,-1,48
 96 386 96 386 150 406 c 1,49,-1
 220 364 l 1,50,-1
 284 408 l 1,51,52
 315 403 315 403 334 389 c 128,-1,53
 353 375 353 375 363 353.5 c 128,-1,54
 373 332 373 332 376.5 302.5 c 128,-1,55
 380 273 380 273 380 236 c 2,56,-1
 380 0 l 1,57,-1
 340 0 l 1,58,-1
 340 248 l 2,59,60
 340 274 340 274 339 295 c 128,-1,61
 338 316 338 316 332 331 c 128,-1,62
 326 346 326 346 314.5 356 c 128,-1,63
 303 366 303 366 282 371 c 1,64,-1
 220 329 l 1,65,-1
 154 370 l 1,66,67
 120 359 120 359 105 326 c 128,-1,68
 90 293 90 293 90 242 c 0,0,1
EndSplineSet
EndChar
StartChar: uni0E06
Encoding: 3590 3590 219
Width: 470
Flags: W
Fore
256 318 m 0,0,1
 256 294 256 294 246.5 277 c 128,-1,2
 237 260 237 260 225 245 c 128,-1,3
 213 230 213 230 202 214.5 c 128,-1,4
 191 199 191 199 189 178 c 1,5,6
 214 177 214 177 242 168.5 c 128,-1,7
 270 160 270 160 295.5 146 c 128,-1,8
 321 132 321 132 341.5 113 c 128,-1,9
 362 94 362 94 372 71 c 1,10,11
 371 83 371 83 370.5 102 c 128,-1,12
 370 121 370 121 369.5 141 c 128,-1,13
 369 161 369 161 369 180 c 128,-1,14
 369 199 369 199 369 211 c 2,15,-1
 369 400 l 1,16,-1
 409 400 l 1,17,-1
 409 222 l 2,18,19
 409 189 409 189 409 155 c 128,-1,20
 409 121 409 121 410 92.5 c 128,-1,21
 411 64 411 64 412 43 c 128,-1,22
 413 22 413 22 414 14 c 0,23,24
 416 4 416 4 413.5 2 c 128,-1,25
 411 0 411 0 407 0 c 2,26,-1
 368 0 l 1,27,28
 360 33 360 33 342.5 59.5 c 128,-1,29
 325 86 325 86 301 105.5 c 128,-1,30
 277 125 277 125 248.5 136 c 128,-1,31
 220 147 220 147 189 149 c 1,32,-1
 191 95 l 2,33,34
 191 75 191 75 191 57 c 128,-1,35
 191 39 191 39 186.5 25 c 128,-1,36
 182 11 182 11 170.5 2.5 c 128,-1,37
 159 -6 159 -6 136 -6 c 0,38,39
 106 -6 106 -6 89 14 c 128,-1,40
 72 34 72 34 72 75 c 0,41,42
 72 120 72 120 97.5 145.5 c 128,-1,43
 123 171 123 171 155 177 c 1,44,45
 155 205 155 205 165.5 221 c 128,-1,46
 176 237 176 237 188 250 c 128,-1,47
 200 263 200 263 210 277.5 c 128,-1,48
 220 292 220 292 220 316 c 0,49,50
 220 333 220 333 214 346.5 c 128,-1,51
 208 360 208 360 205 365 c 1,52,-1
 165 318 l 1,53,54
 140 343 140 343 126.5 355.5 c 128,-1,55
 113 368 113 368 97 368 c 0,56,57
 84 368 84 368 76.5 358.5 c 128,-1,58
 69 349 69 349 69 335 c 0,59,60
 69 320 69 320 76 310 c 128,-1,61
 83 300 83 300 98 300 c 0,62,63
 112 300 112 300 121 309 c 2,64,-1
 139 328 l 1,65,-1
 149 316 l 1,66,-1
 144 287 l 1,67,68
 122 265 122 265 97 265 c 0,69,70
 68 265 68 265 51.5 285 c 128,-1,71
 35 305 35 305 35 334 c 0,72,73
 36 369 36 369 55 386 c 128,-1,74
 74 403 74 403 97 403 c 0,75,76
 110 403 110 403 122.5 396 c 128,-1,77
 135 389 135 389 145 380 c 0,78,79
 156 369 156 369 167 357 c 1,80,-1
 207 407 l 1,81,82
 227 398 227 398 241.5 372 c 128,-1,83
 256 346 256 346 256 318 c 0,0,1
156 92 m 0,84,85
 156 103 156 103 155.5 117 c 128,-1,86
 155 131 155 131 155 147 c 1,87,88
 138 142 138 142 123 125 c 128,-1,89
 108 108 108 108 108 77 c 0,90,91
 108 55 108 55 116.5 42.5 c 128,-1,92
 125 30 125 30 136 30 c 0,93,94
 145 30 145 30 149.5 35 c 128,-1,95
 154 40 154 40 155.5 48.5 c 128,-1,96
 157 57 157 57 156.5 68.5 c 128,-1,97
 156 80 156 80 156 92 c 0,84,85
EndSplineSet
EndChar
StartChar: uni0E07
Encoding: 3591 3591 220
Width: 374
Flags: W
Fore
65 277 m 1,0,1
 93 249 93 249 119 189 c 128,-1,2
 145 129 145 129 163 37 c 0,3,4
 164 34 164 34 179 31.5 c 128,-1,5
 194 29 194 29 210 29 c 256,6,7
 226 29 226 29 241 31.5 c 128,-1,8
 256 34 256 34 256 38 c 0,9,10
 259 70 259 70 262.5 104 c 128,-1,11
 266 138 266 138 270 170.5 c 128,-1,12
 274 203 274 203 276.5 231 c 128,-1,13
 279 259 279 259 279 279 c 0,14,15
 279 325 279 325 270.5 346.5 c 128,-1,16
 262 368 262 368 238 368 c 0,17,18
 224 368 224 368 214.5 359 c 128,-1,19
 205 350 205 350 205 337 c 0,20,21
 205 325 205 325 213 315.5 c 128,-1,22
 221 306 221 306 236 306 c 2,23,-1
 266 306 l 1,24,-1
 266 289 l 1,25,-1
 236 271 l 1,26,27
 206 271 206 271 187.5 289 c 128,-1,28
 169 307 169 307 169 337 c 0,29,30
 169 366 169 366 188.5 385 c 128,-1,31
 208 404 208 404 238 404 c 0,32,33
 261 404 261 404 276.5 395 c 128,-1,34
 292 386 292 386 301.5 370.5 c 128,-1,35
 311 355 311 355 315 333.5 c 128,-1,36
 319 312 319 312 319 286 c 0,37,38
 319 270 319 270 317 246 c 128,-1,39
 315 222 315 222 312 196.5 c 128,-1,40
 309 171 309 171 306 147 c 128,-1,41
 303 123 303 123 301 107 c 0,42,43
 298 84 298 84 295.5 58 c 128,-1,44
 293 32 293 32 293 13 c 0,45,46
 293 9 293 9 286 6 c 128,-1,47
 279 3 279 3 268 1 c 128,-1,48
 257 -1 257 -1 243 -2 c 128,-1,49
 229 -3 229 -3 215 -3 c 0,50,51
 200 -3 200 -3 185.5 -2 c 128,-1,52
 171 -1 171 -1 159 1.5 c 128,-1,53
 147 4 147 4 139.5 7 c 128,-1,54
 132 10 132 10 131 14 c 0,55,56
 123 62 123 62 115 94 c 128,-1,57
 107 126 107 126 96 151 c 128,-1,58
 85 176 85 176 70 197.5 c 128,-1,59
 55 219 55 219 32 245 c 0,60,61
 30 248 30 248 32 252 c 128,-1,62
 34 256 34 256 39.5 260.5 c 128,-1,63
 45 265 45 265 51.5 269.5 c 128,-1,64
 58 274 58 274 65 277 c 1,0,1
EndSplineSet
EndChar
StartChar: uni0E08
Encoding: 3592 3592 221
Width: 408
Flags: W
Fore
197 10 m 0,0,1
 199 58 199 58 199 99 c 128,-1,2
 199 140 199 140 195 169.5 c 128,-1,3
 191 199 191 199 181 216 c 128,-1,4
 171 233 171 233 153 233 c 0,5,6
 139 233 139 233 129.5 224 c 128,-1,7
 120 215 120 215 120 202 c 0,8,9
 120 191 120 191 128 181 c 128,-1,10
 136 171 136 171 151 171 c 2,11,-1
 181 171 l 1,12,-1
 181 154 l 1,13,-1
 151 136 l 1,14,15
 121 136 121 136 102.5 154 c 128,-1,16
 84 172 84 172 84 202 c 256,17,18
 84 232 84 232 103.5 250.5 c 128,-1,19
 123 269 123 269 153 269 c 0,20,21
 181 269 181 269 197.5 252.5 c 128,-1,22
 214 236 214 236 222.5 205 c 128,-1,23
 231 174 231 174 232.5 130.5 c 128,-1,24
 234 87 234 87 232 33 c 0,25,26
 232 30 232 30 242 28 c 128,-1,27
 252 26 252 26 264 26 c 0,28,29
 277 26 277 26 288 28 c 128,-1,30
 299 30 299 30 299 34 c 0,31,32
 299 67 299 67 301 102.5 c 128,-1,33
 303 138 303 138 306 171 c 128,-1,34
 309 204 309 204 311 231.5 c 128,-1,35
 313 259 313 259 313 277 c 0,36,37
 313 310 313 310 299.5 328.5 c 128,-1,38
 286 347 286 347 269 356 c 128,-1,39
 252 365 252 365 236 367.5 c 128,-1,40
 220 370 220 370 214 370 c 0,41,42
 168 370 168 370 136 352 c 128,-1,43
 104 334 104 334 79 304 c 0,44,45
 74 298 74 298 62.5 305 c 128,-1,46
 51 312 51 312 40 325 c 1,47,48
 50 338 50 338 68 352 c 128,-1,49
 86 366 86 366 109 378 c 128,-1,50
 132 390 132 390 158 397.5 c 128,-1,51
 184 405 184 405 208 405 c 0,52,53
 236 405 236 405 262 398 c 128,-1,54
 288 391 288 391 308.5 376 c 128,-1,55
 329 361 329 361 341 336.5 c 128,-1,56
 353 312 353 312 353 277 c 0,57,58
 353 261 353 261 351 238.5 c 128,-1,59
 349 216 349 216 346.5 193 c 128,-1,60
 344 170 344 170 341.5 148 c 128,-1,61
 339 126 339 126 338 110 c 0,62,63
 337 98 337 98 336.5 83 c 128,-1,64
 336 68 336 68 335.5 53.5 c 128,-1,65
 335 39 335 39 335 27 c 128,-1,66
 335 15 335 15 335 9 c 0,67,68
 335 1 335 1 314.5 -2.5 c 128,-1,69
 294 -6 294 -6 268 -6 c 256,70,71
 242 -6 242 -6 219.5 -2 c 128,-1,72
 197 2 197 2 197 10 c 0,0,1
EndSplineSet
EndChar
StartChar: uni0E09
Encoding: 3593 3593 222
Width: 436
Flags: W
Fore
345 277 m 2,0,1
 345 310 345 310 330.5 328.5 c 128,-1,2
 316 347 316 347 298 356 c 128,-1,3
 280 365 280 365 262.5 367.5 c 128,-1,4
 245 370 245 370 239 370 c 0,5,6
 194 370 194 370 162 352 c 128,-1,7
 130 334 130 334 105 304 c 0,8,9
 100 298 100 298 88.5 305 c 128,-1,10
 77 312 77 312 66 325 c 1,11,12
 76 338 76 338 94 352 c 128,-1,13
 112 366 112 366 135 378 c 128,-1,14
 158 390 158 390 184 397.5 c 128,-1,15
 210 405 210 405 234 405 c 0,16,17
 262 405 262 405 289 398 c 128,-1,18
 316 391 316 391 337.5 376 c 128,-1,19
 359 361 359 361 372 336.5 c 128,-1,20
 385 312 385 312 385 277 c 2,21,-1
 385 185 l 2,22,23
 385 176 385 176 381 161.5 c 128,-1,24
 377 147 377 147 369 139 c 1,25,26
 389 128 389 128 400 111 c 128,-1,27
 411 94 411 94 411 68 c 0,28,29
 411 27 411 27 390.5 12 c 128,-1,30
 370 -3 370 -3 340 -3 c 256,31,32
 310 -3 310 -3 291.5 13 c 128,-1,33
 273 29 273 29 273 65 c 0,34,35
 273 88 273 88 282.5 100.5 c 128,-1,36
 292 113 292 113 304 123 c 1,37,38
 300 124 300 124 294 124 c 0,39,40
 277 124 277 124 258 113 c 128,-1,41
 239 102 239 102 223.5 84 c 128,-1,42
 208 66 208 66 197.5 44 c 128,-1,43
 187 22 187 22 187 0 c 1,44,-1
 150 0 l 2,45,46
 146 0 146 0 143.5 2 c 128,-1,47
 141 4 141 4 143 14 c 0,48,49
 146 30 146 30 151 56.5 c 128,-1,50
 156 83 156 83 156 132 c 2,51,-1
 156 166 l 2,52,53
 156 189 156 189 147 203 c 128,-1,54
 138 217 138 217 123 217 c 0,55,56
 106 217 106 217 97 208 c 128,-1,57
 88 199 88 199 88 184 c 256,58,59
 88 169 88 169 96 159 c 128,-1,60
 104 149 104 149 120 149 c 2,61,-1
 147 149 l 1,62,-1
 147 133 l 1,63,-1
 120 114 l 1,64,65
 90 114 90 114 71.5 134 c 128,-1,66
 53 154 53 154 53 184 c 256,67,68
 53 214 53 214 73 232.5 c 128,-1,69
 93 251 93 251 123 251 c 0,70,71
 159 251 159 251 176 227 c 128,-1,72
 193 203 193 203 193 174 c 0,73,74
 193 171 193 171 193 164 c 128,-1,75
 193 157 193 157 192 132 c 0,76,77
 192 127 192 127 190.5 115 c 128,-1,78
 189 103 189 103 187 90 c 0,79,80
 185 75 185 75 182 58 c 1,81,82
 190 83 190 83 203.5 101.5 c 128,-1,83
 217 120 217 120 233.5 132 c 128,-1,84
 250 144 250 144 268 150 c 128,-1,85
 286 156 286 156 302 156 c 0,86,87
 316 156 316 156 326.5 154 c 128,-1,88
 337 152 337 152 342 150 c 1,89,90
 344 155 344 155 344.5 165.5 c 128,-1,91
 345 176 345 176 345 185 c 2,92,-1
 345 277 l 2,0,1
375 70 m 0,93,94
 375 101 375 101 336 115 c 1,95,96
 319 104 319 104 313.5 92.5 c 128,-1,97
 308 81 308 81 308 70 c 0,98,99
 308 49 308 49 315.5 41 c 128,-1,100
 323 33 323 33 340 33 c 256,101,102
 357 33 357 33 366 40.5 c 128,-1,103
 375 48 375 48 375 70 c 0,93,94
EndSplineSet
EndChar
StartChar: uni0E0A
Encoding: 3594 3594 223
Width: 399
Flags: W
Fore
340 424 m 1,0,1
 347 422 347 422 353 418 c 0,2,3
 358 415 358 415 363.5 411.5 c 128,-1,4
 369 408 369 408 374 403 c 0,5,6
 377 400 377 400 377 397 c 0,7,8
 377 395 377 395 376 393.5 c 128,-1,9
 375 392 375 392 374 390 c 0,10,11
 360 368 360 368 343.5 348.5 c 128,-1,12
 327 329 327 329 308 316 c 1,13,14
 314 312 314 312 321.5 306.5 c 128,-1,15
 329 301 329 301 336.5 292.5 c 128,-1,16
 344 284 344 284 349 271 c 128,-1,17
 354 258 354 258 354 240 c 2,18,-1
 354 113 l 2,19,20
 354 47 354 47 319 20.5 c 128,-1,21
 284 -6 284 -6 221 -6 c 0,22,23
 194 -6 194 -6 170.5 -0.5 c 128,-1,24
 147 5 147 5 129.5 17 c 128,-1,25
 112 29 112 29 102 48.5 c 128,-1,26
 92 68 92 68 92 96 c 2,27,-1
 92 145 l 2,28,29
 92 166 92 166 99.5 180.5 c 128,-1,30
 107 195 107 195 118 206.5 c 128,-1,31
 129 218 129 218 141.5 227 c 128,-1,32
 154 236 154 236 165 247.5 c 128,-1,33
 176 259 176 259 183.5 274 c 128,-1,34
 191 289 191 289 191 311 c 0,35,36
 191 340 191 340 177.5 354.5 c 128,-1,37
 164 369 164 369 126 369 c 0,38,39
 115 369 115 369 104.5 368 c 128,-1,40
 94 367 94 367 86 362.5 c 128,-1,41
 78 358 78 358 73.5 349.5 c 128,-1,42
 69 341 69 341 69 327 c 0,43,44
 69 314 69 314 76.5 303.5 c 128,-1,45
 84 293 84 293 98 293 c 0,46,47
 109 293 109 293 117 300.5 c 128,-1,48
 125 308 125 308 125 324 c 2,49,-1
 125 353 l 1,50,-1
 142 353 l 1,51,-1
 160 324 l 1,52,53
 160 294 160 294 144 275.5 c 128,-1,54
 128 257 128 257 98 257 c 256,55,56
 68 257 68 257 50.5 277.5 c 128,-1,57
 33 298 33 298 33 327 c 0,58,59
 33 359 33 359 58.5 380.5 c 128,-1,60
 84 402 84 402 130 402 c 0,61,62
 178 402 178 402 202.5 377 c 128,-1,63
 227 352 227 352 227 314 c 0,64,65
 227 271 227 271 212 248.5 c 128,-1,66
 197 226 197 226 179.5 211.5 c 128,-1,67
 162 197 162 197 147 184 c 128,-1,68
 132 171 132 171 132 145 c 2,69,-1
 132 93 l 2,70,71
 132 55 132 55 158 42 c 128,-1,72
 184 29 184 29 222 29 c 0,73,74
 268 29 268 29 291.5 41.5 c 128,-1,75
 315 54 315 54 315 98 c 0,76,77
 315 107 315 107 315 118 c 128,-1,78
 315 129 315 129 314.5 145 c 128,-1,79
 314 161 314 161 314 183.5 c 128,-1,80
 314 206 314 206 314 238 c 256,81,82
 314 270 314 270 301 285.5 c 128,-1,83
 288 301 288 301 279 301 c 0,84,85
 273 301 273 301 270.5 298.5 c 128,-1,86
 268 296 268 296 261 296 c 0,87,88
 258 296 258 296 254 300 c 128,-1,89
 250 304 250 304 247 308.5 c 128,-1,90
 244 313 244 313 243 317 c 128,-1,91
 242 321 242 321 245 322 c 0,92,93
 262 326 262 326 272.5 330.5 c 128,-1,94
 283 335 283 335 293 344 c 0,95,96
 306 355 306 355 314.5 369 c 128,-1,97
 323 383 323 383 329 395 c 0,98,99
 336 409 336 409 340 424 c 1,0,1
EndSplineSet
EndChar
StartChar: uni0E0B
Encoding: 3595 3595 224
Width: 413
Flags: W
Fore
136 309 m 1,0,-1
 130 286 l 1,1,2
 112 265 112 265 92 265 c 0,3,4
 63 265 63 265 46.5 285 c 128,-1,5
 30 305 30 305 30 334 c 0,6,7
 31 369 31 369 50 386 c 128,-1,8
 69 403 69 403 92 403 c 0,9,10
 105 403 105 403 116 396 c 128,-1,11
 127 389 127 389 135 380 c 0,12,13
 145 369 145 369 152 357 c 1,14,-1
 195 407 l 1,15,16
 215 398 215 398 228 372 c 128,-1,17
 241 346 241 346 241 318 c 0,18,19
 241 289 241 289 233.5 270.5 c 128,-1,20
 226 252 226 252 214 239.5 c 128,-1,21
 202 227 202 227 189 218 c 128,-1,22
 176 209 176 209 164 199 c 128,-1,23
 152 189 152 189 144.5 177 c 128,-1,24
 137 165 137 165 137 145 c 2,25,-1
 137 88 l 2,26,27
 137 69 137 69 144.5 57.5 c 128,-1,28
 152 46 152 46 164.5 39.5 c 128,-1,29
 177 33 177 33 194 31 c 128,-1,30
 211 29 211 29 230 29 c 0,31,32
 276 29 276 29 302.5 41.5 c 128,-1,33
 329 54 329 54 329 98 c 0,34,35
 329 107 329 107 329 118 c 128,-1,36
 329 129 329 129 328.5 145 c 128,-1,37
 328 161 328 161 328 183.5 c 128,-1,38
 328 206 328 206 328 238 c 256,39,40
 328 270 328 270 315 285.5 c 128,-1,41
 302 301 302 301 293 301 c 0,42,43
 287 301 287 301 284.5 298.5 c 128,-1,44
 282 296 282 296 275 296 c 0,45,46
 272 296 272 296 268 300 c 128,-1,47
 264 304 264 304 261 308.5 c 128,-1,48
 258 313 258 313 257 317 c 128,-1,49
 256 321 256 321 259 322 c 0,50,51
 276 326 276 326 286.5 330.5 c 128,-1,52
 297 335 297 335 307 344 c 0,53,54
 320 355 320 355 328.5 369 c 128,-1,55
 337 383 337 383 343 395 c 0,56,57
 350 409 350 409 354 424 c 1,58,59
 361 422 361 422 367 418 c 0,60,61
 372 415 372 415 377.5 411.5 c 128,-1,62
 383 408 383 408 388 403 c 0,63,64
 391 400 391 400 391 397 c 0,65,66
 391 395 391 395 390 393.5 c 128,-1,67
 389 392 389 392 388 390 c 0,68,69
 374 368 374 368 357.5 348.5 c 128,-1,70
 341 329 341 329 322 316 c 1,71,72
 328 312 328 312 335.5 306.5 c 128,-1,73
 343 301 343 301 350.5 292.5 c 128,-1,74
 358 284 358 284 363 271 c 128,-1,75
 368 258 368 258 368 240 c 2,76,-1
 368 113 l 2,77,78
 368 47 368 47 330 20.5 c 128,-1,79
 292 -6 292 -6 229 -6 c 0,80,81
 202 -6 202 -6 178 -1.5 c 128,-1,82
 154 3 154 3 136 14.5 c 128,-1,83
 118 26 118 26 107.5 44.5 c 128,-1,84
 97 63 97 63 97 91 c 2,85,-1
 97 145 l 2,86,87
 97 169 97 169 105.5 185 c 128,-1,88
 114 201 114 201 126 212.5 c 128,-1,89
 138 224 138 224 153 233 c 128,-1,90
 168 242 168 242 180 253 c 128,-1,91
 192 264 192 264 200.5 279 c 128,-1,92
 209 294 209 294 209 316 c 0,93,94
 209 335 209 335 204 348 c 128,-1,95
 199 361 199 361 194 366 c 1,96,-1
 150 318 l 1,97,98
 138 330 138 330 130 339.5 c 128,-1,99
 122 349 122 349 116.5 355.5 c 128,-1,100
 111 362 111 362 105.5 365 c 128,-1,101
 100 368 100 368 92 368 c 0,102,103
 79 368 79 368 71.5 358.5 c 128,-1,104
 64 349 64 349 64 335 c 0,105,106
 64 320 64 320 71 310 c 128,-1,107
 78 300 78 300 93 300 c 0,108,109
 99 300 99 300 107 304.5 c 128,-1,110
 115 309 115 309 126 321 c 1,111,-1
 136 309 l 1,0,-1
EndSplineSet
EndChar
StartChar: uni0E0C
Encoding: 3596 3596 225
Width: 634
Flags: W
Fore
338 176 m 1,0,1
 338 182 338 182 337.5 192.5 c 128,-1,2
 337 203 337 203 336.5 214 c 128,-1,3
 336 225 336 225 335.5 235 c 128,-1,4
 335 245 335 245 335 249 c 0,5,6
 335 288 335 288 327.5 311.5 c 128,-1,7
 320 335 320 335 305.5 348.5 c 128,-1,8
 291 362 291 362 270 366.5 c 128,-1,9
 249 371 249 371 221 371 c 0,10,11
 196 371 196 371 171.5 365 c 128,-1,12
 147 359 147 359 127.5 350.5 c 128,-1,13
 108 342 108 342 96 334 c 128,-1,14
 84 326 84 326 84 321 c 0,15,16
 84 318 84 318 88.5 312 c 128,-1,17
 93 306 93 306 99 300 c 128,-1,18
 105 294 105 294 111 289.5 c 128,-1,19
 117 285 117 285 120 285 c 0,20,21
 128 285 128 285 137 291.5 c 128,-1,22
 146 298 146 298 155 298 c 0,23,24
 158 298 158 298 162 293 c 128,-1,25
 166 288 166 288 169 282 c 128,-1,26
 172 276 172 276 172.5 271 c 128,-1,27
 173 266 173 266 169 266 c 0,28,29
 154 266 154 266 142.5 263 c 128,-1,30
 131 260 131 260 123 250.5 c 128,-1,31
 115 241 115 241 110.5 223.5 c 128,-1,32
 106 206 106 206 106 178 c 2,33,-1
 106 77 l 2,34,35
 106 54 106 54 115 41.5 c 128,-1,36
 124 29 124 29 139 29 c 0,37,38
 156 29 156 29 165 40 c 128,-1,39
 174 51 174 51 174 66 c 256,40,41
 174 81 174 81 165.5 91.5 c 128,-1,42
 157 102 157 102 142 102 c 2,43,-1
 114 102 l 1,44,-1
 114 118 l 1,45,-1
 142 137 l 1,46,47
 171 137 171 137 190.5 116.5 c 128,-1,48
 210 96 210 96 210 66 c 256,49,50
 210 36 210 36 189.5 15 c 128,-1,51
 169 -6 169 -6 139 -6 c 0,52,53
 105 -6 105 -6 85.5 17.5 c 128,-1,54
 66 41 66 41 66 90 c 2,55,-1
 66 178 l 2,56,57
 66 216 66 216 73.5 233.5 c 128,-1,58
 81 251 81 251 98 268 c 1,59,60
 94 270 94 270 85.5 276 c 128,-1,61
 77 282 77 282 68 289.5 c 128,-1,62
 59 297 59 297 52 305 c 128,-1,63
 45 313 45 313 45 319 c 0,64,65
 45 328 45 328 59 343 c 128,-1,66
 73 358 73 358 97 372 c 128,-1,67
 121 386 121 386 153 396 c 128,-1,68
 185 406 185 406 221 406 c 0,69,70
 255 406 255 406 283.5 399 c 128,-1,71
 312 392 312 392 332 374 c 128,-1,72
 352 356 352 356 363.5 325.5 c 128,-1,73
 375 295 375 295 375 249 c 2,74,-1
 375 178 l 1,75,76
 426 175 426 175 470.5 148.5 c 128,-1,77
 515 122 515 122 536 71 c 1,78,79
 535 83 535 83 534.5 102 c 128,-1,80
 534 121 534 121 533.5 141 c 128,-1,81
 533 161 533 161 533 180 c 128,-1,82
 533 199 533 199 533 211 c 2,83,-1
 533 400 l 1,84,-1
 573 400 l 1,85,-1
 573 222 l 2,86,87
 573 189 573 189 573 155 c 128,-1,88
 573 121 573 121 574 92.5 c 128,-1,89
 575 64 575 64 576 43 c 128,-1,90
 577 22 577 22 578 14 c 0,91,92
 580 4 580 4 577.5 2 c 128,-1,93
 575 0 575 0 571 0 c 2,94,-1
 532 0 l 1,95,96
 516 66 516 66 477 105 c 128,-1,97
 438 144 438 144 376 149 c 1,98,-1
 377 95 l 2,99,100
 377 75 377 75 377 57 c 128,-1,101
 377 39 377 39 372.5 25 c 128,-1,102
 368 11 368 11 356.5 2.5 c 128,-1,103
 345 -6 345 -6 322 -6 c 0,104,105
 292 -6 292 -6 275 14 c 128,-1,106
 258 34 258 34 258 75 c 0,107,108
 258 120 258 120 282.5 145 c 128,-1,109
 307 170 307 170 338 176 c 1,0,1
339 147 m 1,110,111
 322 142 322 142 308 124.5 c 128,-1,112
 294 107 294 107 294 77 c 0,113,114
 294 55 294 55 302.5 42.5 c 128,-1,115
 311 30 311 30 322 30 c 0,116,117
 331 30 331 30 335.5 35 c 128,-1,118
 340 40 340 40 341.5 48.5 c 128,-1,119
 343 57 343 57 342.5 68.5 c 128,-1,120
 342 80 342 80 342 92 c 0,121,122
 342 99 342 99 341 114.5 c 128,-1,123
 340 130 340 130 339 147 c 1,110,111
EndSplineSet
EndChar
StartChar: uni0E0D
Encoding: 3597 3597 226
Width: 650
Flags: W
Fore
114 102 m 1,0,-1
 114 118 l 1,1,-1
 142 137 l 1,2,3
 171 137 171 137 190.5 116.5 c 128,-1,4
 210 96 210 96 210 66 c 256,5,6
 210 36 210 36 189.5 15 c 128,-1,7
 169 -6 169 -6 139 -6 c 0,8,9
 105 -6 105 -6 85.5 17.5 c 128,-1,10
 66 41 66 41 66 90 c 2,11,-1
 66 178 l 2,12,13
 66 216 66 216 73.5 233.5 c 128,-1,14
 81 251 81 251 98 268 c 1,15,16
 94 270 94 270 85.5 276 c 128,-1,17
 77 282 77 282 68 289.5 c 128,-1,18
 59 297 59 297 52 305 c 128,-1,19
 45 313 45 313 45 319 c 0,20,21
 45 328 45 328 57.5 343 c 128,-1,22
 70 358 70 358 92 372 c 128,-1,23
 114 386 114 386 144.5 396 c 128,-1,24
 175 406 175 406 211 406 c 0,25,26
 245 406 245 406 273.5 399 c 128,-1,27
 302 392 302 392 322 374 c 128,-1,28
 342 356 342 356 353.5 325.5 c 128,-1,29
 365 295 365 295 365 249 c 0,30,31
 365 237 365 237 364.5 220 c 128,-1,32
 363.5 186 l 128,-1,33
 363 169 363 169 362.5 153 c 128,-1,34
 362 137 362 137 362 127 c 0,35,36
 362 103 362 103 364.5 84.5 c 128,-1,37
 367 66 367 66 375 56 c 0,38,39
 399 29 399 29 459 29 c 256,40,41
 519 29 519 29 543 56 c 0,42,43
 551 66 551 66 554 80.5 c 128,-1,44
 557 95 557 95 557 115 c 0,45,46
 557 132 557 132 556 162 c 128,-1,47
 555 192 555 192 555 217 c 2,48,-1
 555 400 l 1,49,-1
 595 400 l 1,50,-1
 595 132 l 2,51,52
 595 94 595 94 591 72.5 c 128,-1,53
 587 51 587 51 573 35 c 0,54,55
 549 8 549 8 517.5 1 c 128,-1,56
 486 -6 486 -6 459 -6 c 256,57,58
 432 -6 432 -6 400.5 1 c 128,-1,59
 369 8 369 8 345 35 c 0,60,61
 332 50 332 50 328.5 75 c 128,-1,62
 325 100 325 100 325 132 c 2,63,-1
 325 249 l 2,64,65
 325 288 325 288 317.5 311.5 c 128,-1,66
 310 335 310 335 295.5 348.5 c 128,-1,67
 281 362 281 362 260 366.5 c 128,-1,68
 239 371 239 371 211 371 c 0,69,70
 186 371 186 371 163 365 c 128,-1,71
 140 359 140 359 122.5 350.5 c 128,-1,72
 105 342 105 342 94.5 334 c 128,-1,73
 84 326 84 326 84 321 c 0,74,75
 84 318 84 318 88.5 312 c 128,-1,76
 93 306 93 306 99 300 c 128,-1,77
 105 294 105 294 111 289.5 c 128,-1,78
 117 285 117 285 120 285 c 0,79,80
 128 285 128 285 137 291.5 c 128,-1,81
 146 298 146 298 155 298 c 0,82,83
 158 298 158 298 162 293 c 128,-1,84
 166 288 166 288 169 282 c 128,-1,85
 172 276 172 276 172.5 271 c 128,-1,86
 173 266 173 266 169 266 c 0,87,88
 154 266 154 266 142.5 263 c 128,-1,89
 131 260 131 260 123 250.5 c 128,-1,90
 115 241 115 241 110.5 223.5 c 128,-1,91
 106 206 106 206 106 178 c 2,92,-1
 106 77 l 2,93,94
 106 54 106 54 115 41.5 c 128,-1,95
 124 29 124 29 139 29 c 0,96,97
 156 29 156 29 165 40 c 128,-1,98
 174 51 174 51 174 66 c 256,99,100
 174 81 174 81 165.5 91.5 c 128,-1,101
 157 102 157 102 142 102 c 2,102,-1
 114 102 l 1,0,-1
588 -48 m 1,103,104
 588 -77 588 -77 582 -101 c 128,-1,105
 576 -125 576 -125 561 -142 c 128,-1,106
 546 -159 546 -159 520 -168.5 c 128,-1,107
 494 -178 494 -178 454 -178 c 0,108,109
 398 -178 398 -178 369.5 -157 c 128,-1,110
 341 -136 341 -136 341 -101 c 0,111,112
 341 -71 341 -71 358.5 -56 c 128,-1,113
 376 -41 376 -41 398 -41 c 0,114,115
 421 -41 421 -41 436 -55.5 c 128,-1,116
 451 -70 451 -70 451 -99 c 1,117,-1
 435 -128 l 1,118,-1
 419 -128 l 1,119,-1
 419 -99 l 2,120,121
 419 -85 419 -85 412.5 -79.5 c 128,-1,122
 406 -74 406 -74 398 -74 c 0,123,124
 374 -74 374 -74 374 -101 c 0,125,126
 374 -126 374 -126 391.5 -137 c 128,-1,127
 409 -148 409 -148 451 -148 c 0,128,129
 477 -148 477 -148 495.5 -143.5 c 128,-1,130
 514 -139 514 -139 526 -127.5 c 128,-1,131
 538 -116 538 -116 543.5 -96.5 c 128,-1,132
 549 -77 549 -77 549 -48 c 1,133,-1
 588 -48 l 1,103,104
EndSplineSet
Substitution: 0 65534 'L030' uni0E0D.alt1
Substitution: 0 65534 'L030' uni0E0D.alt1
EndChar
StartChar: uni0E0E
Encoding: 3598 3598 227
Width: 457
Flags: W
Fore
88 100 m 2,0,1
 73 100 73 100 66.5 89.5 c 128,-1,2
 60 79 60 79 60 64 c 256,3,4
 60 49 60 49 69 39 c 128,-1,5
 78 29 78 29 95 29 c 0,6,7
 110 29 110 29 120 39 c 128,-1,8
 130 49 130 49 130 72 c 0,9,10
 130 107 130 107 119 140.5 c 128,-1,11
 108 174 108 174 108 204 c 0,12,13
 108 228 108 228 114.5 241 c 128,-1,14
 121 254 121 254 132 267 c 1,15,16
 128 269 128 269 119 275.5 c 128,-1,17
 110 282 110 282 100.5 289.5 c 128,-1,18
 91 297 91 297 84 305 c 128,-1,19
 77 313 77 313 77 319 c 0,20,21
 77 328 77 328 89.5 343 c 128,-1,22
 102 358 102 358 124 372 c 128,-1,23
 146 386 146 386 176.5 396 c 128,-1,24
 207 406 207 406 243 406 c 0,25,26
 277 406 277 406 305.5 399 c 128,-1,27
 334 392 334 392 354 374 c 128,-1,28
 374 356 374 356 385.5 325.5 c 128,-1,29
 397 295 397 295 397 249 c 2,30,-1
 397 -170 l 1,31,-1
 356 -170 l 1,32,33
 348 -157 348 -157 330 -140 c 128,-1,34
 312 -123 312 -123 287 -109 c 1,35,36
 272 -132 272 -132 247 -152 c 128,-1,37
 222 -172 222 -172 184 -172 c 0,38,39
 155 -172 155 -172 139.5 -155 c 128,-1,40
 124 -138 124 -138 124 -115 c 0,41,42
 124 -89 124 -89 146 -72.5 c 128,-1,43
 168 -56 168 -56 201 -56 c 0,44,45
 220 -56 220 -56 238 -60 c 128,-1,46
 256 -64 256 -64 271 -70 c 1,47,48
 274 -63 274 -63 275.5 -57.5 c 128,-1,49
 277 -52 277 -52 278 -47 c 256,50,51
 280 -37 l 1,52,53
 286 -39 286 -39 291 -41 c 256,54,55
 301 -45 l 128,-1,56
 306 -47 306 -47 310 -50 c 0,57,58
 312 -52 312 -52 312 -55.5 c 128,-1,59
 312 -59 312 -59 311 -62 c 0,60,61
 309 -66 309 -66 307 -71.5 c 128,-1,62
 305 -77 305 -77 302 -84 c 1,63,64
 321 -95 321 -95 335 -107.5 c 128,-1,65
 349 -120 349 -120 358 -131 c 1,66,67
 358 -119 358 -119 358 -96.5 c 128,-1,68
 358 -74 358 -74 357.5 -31.5 c 128,-1,69
 357 11 357 11 357 78.5 c 128,-1,70
 357 146 357 146 357 249 c 0,71,72
 357 288 357 288 349.5 311.5 c 128,-1,73
 342 335 342 335 327.5 348.5 c 128,-1,74
 313 362 313 362 292 366.5 c 128,-1,75
 271 371 271 371 243 371 c 0,76,77
 218 371 218 371 195 365 c 128,-1,78
 172 359 172 359 154.5 350.5 c 128,-1,79
 137 342 137 342 126.5 334 c 128,-1,80
 116 326 116 326 116 321 c 0,81,82
 116 318 116 318 120.5 312 c 128,-1,83
 125 306 125 306 131 300 c 128,-1,84
 137 294 137 294 143 289.5 c 128,-1,85
 149 285 149 285 152 285 c 0,86,87
 160 285 160 285 169 291.5 c 128,-1,88
 178 298 178 298 187 298 c 0,89,90
 190 298 190 298 194 293 c 128,-1,91
 198 288 198 288 201 282 c 128,-1,92
 204 276 204 276 204.5 271 c 128,-1,93
 205 266 205 266 201 266 c 0,94,95
 172 266 172 266 160 253.5 c 128,-1,96
 148 241 148 241 148 203 c 0,97,98
 148 186 148 186 151.5 167.5 c 128,-1,99
 155 149 155 149 158.5 131.5 c 128,-1,100
 162 114 162 114 165.5 98.5 c 128,-1,101
 169 83 169 83 169 72 c 0,102,103
 169 34 169 34 149.5 14 c 128,-1,104
 130 -6 130 -6 95 -6 c 0,105,106
 65 -6 65 -6 45 14 c 128,-1,107
 25 34 25 34 25 64 c 256,108,109
 25 94 25 94 42.5 113.5 c 128,-1,110
 60 133 60 133 88 133 c 1,111,-1
 111 116 l 1,112,-1
 111 100 l 1,113,-1
 88 100 l 2,0,1
183 -141 m 0,114,115
 210 -141 210 -141 228.5 -127.5 c 128,-1,116
 247 -114 247 -114 258 -96 c 1,117,118
 230 -86 230 -86 205 -86 c 0,119,120
 155 -86 155 -86 155 -117 c 0,121,122
 155 -141 155 -141 183 -141 c 0,114,115
EndSplineSet
Substitution: 0 65534 'L030' uni0E0E.alt1
Substitution: 0 65534 'L030' uni0E0E.alt1
EndChar
StartChar: uni0E0F
Encoding: 3599 3599 228
Width: 457
Flags: W
Fore
111 100 m 1,0,-1
 88 100 l 2,1,2
 73 100 73 100 66.5 89.5 c 128,-1,3
 60 79 60 79 60 64 c 256,4,5
 60 49 60 49 69 39 c 128,-1,6
 78 29 78 29 95 29 c 0,7,8
 110 29 110 29 120 39 c 128,-1,9
 130 49 130 49 130 72 c 0,10,11
 130 107 130 107 119 140.5 c 128,-1,12
 108 174 108 174 108 204 c 0,13,14
 108 228 108 228 114.5 241 c 128,-1,15
 121 254 121 254 132 267 c 1,16,17
 128 269 128 269 119 275.5 c 128,-1,18
 110 282 110 282 100.5 289.5 c 128,-1,19
 91 297 91 297 84 305 c 128,-1,20
 77 313 77 313 77 319 c 0,21,22
 77 328 77 328 89.5 343 c 128,-1,23
 102 358 102 358 124 372 c 128,-1,24
 146 386 146 386 176.5 396 c 128,-1,25
 207 406 207 406 243 406 c 0,26,27
 277 406 277 406 305.5 399 c 128,-1,28
 334 392 334 392 354 374 c 128,-1,29
 374 356 374 356 385.5 325.5 c 128,-1,30
 397 295 397 295 397 249 c 2,31,-1
 396 -180 l 1,32,-1
 353 -180 l 1,33,-1
 304 -140 l 1,34,-1
 257 -178 l 1,35,-1
 221 -140 l 1,36,37
 205 -160 205 -160 189 -168 c 128,-1,38
 173 -176 173 -176 153 -176 c 0,39,40
 127 -176 127 -176 112.5 -158 c 128,-1,41
 98 -140 98 -140 98 -120 c 0,42,43
 98 -91 98 -91 114 -74.5 c 128,-1,44
 130 -58 130 -58 153 -58 c 0,45,46
 173 -58 173 -58 188.5 -68.5 c 128,-1,47
 204 -79 204 -79 213 -88 c 1,48,49
 217 -79 217 -79 219 -65 c 128,-1,50
 221 -51 221 -51 221 -43 c 1,51,52
 226 -43 226 -43 230 -44 c 256,53,54
 234 -45 234 -45 238.5 -46.5 c 128,-1,55
 243 -48 243 -48 247 -50 c 256,56,57
 251 -52 251 -52 251 -55.5 c 128,-1,58
 251 -59 251 -59 250 -64 c 0,59,60
 249 -71 249 -71 246.5 -78.5 c 128,-1,61
 244 -86 244 -86 241 -93 c 0,62,63
 237 -101 237 -101 234 -109 c 1,64,-1
 261 -137 l 1,65,-1
 303 -104 l 1,66,-1
 358 -144 l 1,67,68
 358 -132 358 -132 358 -107.5 c 128,-1,69
 358 -83 358 -83 357.5 -38 c 128,-1,70
 357 7 357 7 357 76.5 c 128,-1,71
 357 146 357 146 357 249 c 0,72,73
 357 288 357 288 349.5 311.5 c 128,-1,74
 342 335 342 335 327.5 348.5 c 128,-1,75
 313 362 313 362 292 366.5 c 128,-1,76
 271 371 271 371 243 371 c 0,77,78
 218 371 218 371 195 365 c 128,-1,79
 172 359 172 359 154.5 350.5 c 128,-1,80
 137 342 137 342 126.5 334 c 128,-1,81
 116 326 116 326 116 321 c 0,82,83
 116 318 116 318 120.5 312 c 128,-1,84
 125 306 125 306 131 300 c 128,-1,85
 137 294 137 294 143 289.5 c 128,-1,86
 149 285 149 285 152 285 c 0,87,88
 160 285 160 285 169 291.5 c 128,-1,89
 178 298 178 298 187 298 c 0,90,91
 190 298 190 298 194 293 c 128,-1,92
 198 288 198 288 201 282 c 128,-1,93
 204 276 204 276 204.5 271 c 128,-1,94
 205 266 205 266 201 266 c 0,95,96
 172 266 172 266 160 253.5 c 128,-1,97
 148 241 148 241 148 203 c 0,98,99
 148 186 148 186 151.5 167.5 c 128,-1,100
 155 149 155 149 158.5 131.5 c 128,-1,101
 162 114 162 114 165.5 98.5 c 128,-1,102
 169 83 169 83 169 72 c 0,103,104
 169 34 169 34 149.5 14 c 128,-1,105
 130 -6 130 -6 95 -6 c 0,106,107
 65 -6 65 -6 45 14 c 128,-1,108
 25 34 25 34 25 64 c 256,109,110
 25 94 25 94 42.5 113.5 c 128,-1,111
 60 133 60 133 88 133 c 1,112,-1
 111 116 l 1,113,-1
 111 100 l 1,0,-1
202 -118 m 1,114,115
 189 -104 189 -104 178 -96.5 c 128,-1,116
 167 -89 167 -89 155 -89 c 0,117,118
 129 -89 129 -89 129 -119 c 0,119,120
 129 -145 129 -145 156 -145 c 0,121,122
 168 -145 168 -145 180 -140.5 c 128,-1,123
 192 -136 192 -136 202 -118 c 1,114,115
EndSplineSet
Substitution: 0 65534 'L030' uni0E0F.alt1
Substitution: 0 65534 'L030' uni0E0F.alt1
EndChar
StartChar: uni0E10
Encoding: 3600 3600 229
Width: 409
Flags: W
Fore
152 -143 m 1,0,1
 129 -118 129 -118 109 -118 c 0,2,3
 86 -118 86 -118 86 -144 c 0,4,5
 86 -169 86 -169 110 -169 c 0,6,7
 121 -169 121 -169 132 -164.5 c 128,-1,8
 143 -160 143 -160 152 -143 c 1,0,1
179 94 m 1,9,-1
 149 76 l 1,10,11
 119 76 119 76 100.5 94 c 128,-1,12
 82 112 82 112 82 142 c 256,13,14
 82 172 82 172 101.5 190.5 c 128,-1,15
 121 209 121 209 151 209 c 0,16,17
 179 209 179 209 195 196 c 128,-1,18
 211 183 211 183 219 160 c 128,-1,19
 227 137 227 137 228 104.5 c 128,-1,20
 229 72 229 72 227 33 c 0,21,22
 227 30 227 30 238 28 c 128,-1,23
 249 26 249 26 260 26 c 256,24,25
 271 26 271 26 281 28 c 128,-1,26
 291 30 291 30 292 34 c 0,27,28
 296 79 296 79 300.5 124 c 128,-1,29
 305 169 305 169 305 204 c 0,30,31
 305 214 305 214 302 224 c 128,-1,32
 299 234 299 234 289.5 242 c 128,-1,33
 280 250 280 250 260.5 255 c 128,-1,34
 241 260 241 260 208 260 c 0,35,36
 177 260 177 260 150 256 c 128,-1,37
 123 252 123 252 103 252 c 0,38,39
 74 252 74 252 63.5 270.5 c 128,-1,40
 53 289 53 289 53 316 c 0,41,42
 53 357 53 357 75.5 378.5 c 128,-1,43
 98 400 98 400 135 400 c 0,44,45
 142 400 142 400 156.5 399 c 128,-1,46
 171 398 171 398 188 396.5 c 128,-1,47
 205 395 205 395 223 394 c 128,-1,48
 241 393 241 393 255 393 c 0,49,50
 273 393 273 393 291 395.5 c 128,-1,51
 309 398 309 398 323 401 c 0,52,53
 340 405 340 405 354 409 c 1,54,55
 356 402 356 402 359 395 c 0,56,57
 364 382 364 382 364 372 c 0,58,59
 364 366 364 366 355 362 c 1,60,61
 344 359 344 359 314.5 356 c 128,-1,62
 285 353 285 353 256 353 c 0,63,64
 243 353 243 353 225 355 c 128,-1,65
 207 357 207 357 189.5 359 c 128,-1,66
 172 361 172 361 157.5 363 c 128,-1,67
 143 365 143 365 137 365 c 0,68,69
 108 365 108 365 98.5 352.5 c 128,-1,70
 89 340 89 340 89 317 c 0,71,72
 89 298 89 298 94 293 c 128,-1,73
 99 288 99 288 119 288 c 256,74,75
 139 288 139 288 170 292 c 128,-1,76
 201 296 201 296 236 296 c 0,77,78
 289 296 289 296 317 272 c 128,-1,79
 345 248 345 248 345 210 c 0,80,81
 345 196 345 196 342.5 173.5 c 128,-1,82
 340 151 340 151 337 124 c 128,-1,83
 334 97 334 97 330.5 68 c 128,-1,84
 327 39 327 39 325 12 c 0,85,86
 325 4 325 4 305.5 0.5 c 128,-1,87
 286 -3 286 -3 263 -3 c 0,88,89
 251 -3 251 -3 238 -2 c 128,-1,90
 225 -1 225 -1 214.5 1 c 128,-1,91
 204 3 204 3 198 6 c 128,-1,92
 192 9 192 9 192 13 c 0,93,94
 194 54 194 54 194.5 84 c 128,-1,95
 195 114 195 114 191.5 133.5 c 128,-1,96
 188 153 188 153 178.5 163 c 128,-1,97
 169 173 169 173 151 173 c 0,98,99
 137 173 137 173 127.5 164 c 128,-1,100
 118 155 118 155 118 142 c 0,101,102
 118 131 118 131 126 121 c 128,-1,103
 134 111 134 111 149 111 c 2,104,-1
 179 111 l 1,105,-1
 179 94 l 1,9,-1
163 -118 m 1,106,107
 167 -109 167 -109 168.5 -94.5 c 128,-1,108
 170 -80 170 -80 170 -72 c 1,109,110
 175 -72 175 -72 179 -73 c 256,111,112
 183 -74 183 -74 187.5 -75.5 c 128,-1,113
 192 -77 192 -77 196 -79 c 256,114,115
 200 -81 200 -81 200 -84.5 c 128,-1,116
 200 -88 200 -88 199 -93 c 0,117,118
 198 -100 198 -100 195 -107.5 c 128,-1,119
 192 -115 192 -115 189 -122 c 0,120,121
 185 -130 185 -130 182 -138 c 1,122,-1
 206 -162 l 1,123,-1
 244 -141 l 1,124,-1
 294 -167 l 1,125,126
 294 -157 294 -157 297.5 -148.5 c 128,-1,127
 301 -140 301 -140 305.5 -132 c 128,-1,128
 310 -124 310 -124 313.5 -116 c 128,-1,129
 317 -108 317 -108 317 -97 c 256,130,131
 317 -86 317 -86 311.5 -77 c 128,-1,132
 306 -68 306 -68 294 -68 c 0,133,134
 272 -68 272 -68 272 -91 c 0,135,136
 272 -99 272 -99 275.5 -103.5 c 128,-1,137
 279 -108 279 -108 283 -111 c 2,138,-1
 296 -121 l 1,139,-1
 288 -132 l 1,140,-1
 265 -128 l 1,141,142
 257 -121 257 -121 251 -112 c 128,-1,143
 245 -103 245 -103 245 -93 c 0,144,145
 245 -68 245 -68 259.5 -54 c 128,-1,146
 274 -40 274 -40 296 -40 c 0,147,148
 325 -40 325 -40 337.5 -58 c 128,-1,149
 350 -76 350 -76 350 -96 c 0,150,151
 350 -114 350 -114 339 -138.5 c 128,-1,152
 328 -163 328 -163 328 -196 c 1,153,-1
 283 -196 l 1,154,-1
 245 -173 l 1,155,-1
 202 -198 l 1,156,-1
 169 -164 l 1,157,158
 155 -182 155 -182 140.5 -189.5 c 128,-1,159
 126 -197 126 -197 108 -197 c 0,160,161
 84 -197 84 -197 71 -180.5 c 128,-1,162
 58 -164 58 -164 58 -145 c 0,163,164
 58 -119 58 -119 72.5 -104 c 128,-1,165
 87 -89 87 -89 108 -89 c 0,166,167
 126 -89 126 -89 140.5 -99.5 c 128,-1,168
 155 -110 155 -110 163 -118 c 1,106,107
EndSplineSet
Substitution: 0 65534 'L030' uni0E10.alt1
Substitution: 0 65534 'L030' uni0E10.alt1
EndChar
StartChar: uni0E11
Encoding: 3601 3601 230
Width: 461
Flags: W
Fore
116 313 m 1,0,-1
 110 292 l 1,1,2
 93 272 93 272 72 272 c 0,3,4
 47 272 47 272 31 289.5 c 128,-1,5
 15 307 15 307 15 334 c 0,6,7
 15 369 15 369 33 386 c 128,-1,8
 51 403 51 403 70 403 c 0,9,10
 83 403 83 403 92.5 397.5 c 128,-1,11
 102 392 102 392 109 385 c 0,12,13
 117 377 117 377 123 367 c 1,14,-1
 160 407 l 1,15,16
 177 396 177 396 189 381 c 128,-1,17
 201 366 201 366 201 340 c 0,18,19
 201 312 201 312 191.5 295.5 c 128,-1,20
 182 279 182 279 171 265 c 128,-1,21
 160 251 160 251 150.5 233.5 c 128,-1,22
 141 216 141 216 141 184 c 2,23,-1
 138 114 l 1,24,25
 152 152 152 152 174 201.5 c 128,-1,26
 196 251 196 251 222.5 296 c 128,-1,27
 249 341 249 341 278.5 372 c 128,-1,28
 308 403 308 403 336 403 c 0,29,30
 378 403 378 403 392 382.5 c 128,-1,31
 406 362 406 362 406 317 c 2,32,-1
 406 0 l 1,33,-1
 366 0 l 1,34,-1
 366 317 l 2,35,36
 366 335 366 335 363 344 c 128,-1,37
 360 353 360 353 355.5 357 c 128,-1,38
 351 361 351 361 346 361.5 c 128,-1,39
 341 362 341 362 336 362 c 0,40,41
 321 362 321 362 303 346 c 128,-1,42
 285 330 285 330 267 304 c 128,-1,43
 249 278 249 278 231 244 c 128,-1,44
 213 210 213 210 196.5 175 c 128,-1,45
 180 140 180 140 166 105.5 c 128,-1,46
 152 71 152 71 142 44 c 1,47,-1
 141 0 l 1,48,-1
 107 0 l 2,49,50
 103 0 103 0 100.5 2 c 128,-1,51
 98 4 98 4 100 14 c 0,52,53
 103 30 103 30 104 72.5 c 128,-1,54
 105 115 105 115 105 182 c 0,55,56
 105 215 105 215 115.5 235.5 c 128,-1,57
 126 256 126 256 138 271.5 c 128,-1,58
 150 287 150 287 160.5 301 c 128,-1,59
 171 315 171 315 171 336 c 0,60,61
 171 344 171 344 169 350.5 c 128,-1,62
 167 357 167 357 165 362 c 1,63,64
 162 367 162 367 159 371 c 1,65,-1
 121 330 l 1,66,67
 104 354 104 354 95 362 c 128,-1,68
 86 370 86 370 74 370 c 0,69,70
 61 370 61 370 54 359.5 c 128,-1,71
 47 349 47 349 47 335 c 0,72,73
 47 322 47 322 54.5 313.5 c 128,-1,74
 62 305 62 305 75 305 c 0,75,76
 81 305 81 305 88 309 c 128,-1,77
 95 313 95 313 106 325 c 1,78,-1
 116 313 l 1,0,-1
EndSplineSet
EndChar
StartChar: uni0E12
Encoding: 3602 3602 231
Width: 649
Flags: W
Fore
188 168 m 1,0,-1
 157 172 l 1,1,2
 137 192 137 192 137 220 c 0,3,4
 137 249 137 249 157.5 269.5 c 128,-1,5
 178 290 178 290 207 290 c 0,6,7
 224 290 224 290 237 283.5 c 128,-1,8
 250 277 250 277 258.5 267.5 c 128,-1,9
 267 258 267 258 271.5 246.5 c 128,-1,10
 276 235 276 235 276 223 c 0,11,12
 276 196 276 196 266.5 181 c 128,-1,13
 257 166 257 166 235 150 c 0,14,15
 214 134 214 134 194 118.5 c 128,-1,16
 174 103 174 103 158.5 85.5 c 128,-1,17
 143 68 143 68 133.5 47 c 128,-1,18
 124 26 124 26 124 0 c 1,19,-1
 85 0 l 2,20,21
 81 0 81 0 78.5 2 c 128,-1,22
 76 4 76 4 78 14 c 0,23,24
 81 30 81 30 88.5 47 c 128,-1,25
 96 64 96 64 106 78 c 0,26,27
 112 87 112 87 108 92 c 0,28,29
 100 100 100 100 90 109.5 c 128,-1,30
 80 119 80 119 71 135 c 128,-1,31
 62 151 62 151 56 176.5 c 128,-1,32
 50 202 50 202 50 242 c 0,33,34
 50 306 50 306 73 346 c 128,-1,35
 96 386 96 386 150 406 c 1,36,-1
 223 364 l 1,37,-1
 294 408 l 1,38,39
 325 403 325 403 343 389 c 128,-1,40
 361 375 361 375 370.5 353.5 c 128,-1,41
 380 332 380 332 382.5 302.5 c 128,-1,42
 385 273 385 273 385 236 c 2,43,-1
 385 181 l 1,44,45
 410 180 410 180 435 172 c 128,-1,46
 460 164 460 164 482.5 150.5 c 128,-1,47
 505 137 505 137 523 117.5 c 128,-1,48
 541 98 541 98 551 72 c 1,49,50
 550 84 550 84 549.5 102.5 c 128,-1,51
 549 121 549 121 548.5 141.5 c 128,-1,52
 548 162 548 162 548 180.5 c 128,-1,53
 548 199 548 199 548 211 c 2,54,-1
 548 400 l 1,55,-1
 588 400 l 1,56,-1
 588 222 l 2,57,58
 588 189 588 189 588 155 c 128,-1,59
 588 121 588 121 589 92.5 c 128,-1,60
 590 64 590 64 591 43 c 128,-1,61
 592 22 592 22 593 14 c 0,62,63
 595 4 595 4 592.5 2 c 128,-1,64
 590 0 590 0 586 0 c 2,65,-1
 547 0 l 1,66,67
 531 66 531 66 489.5 105 c 128,-1,68
 448 144 448 144 386 149 c 1,69,-1
 387 95 l 2,70,71
 387 75 387 75 387 57 c 128,-1,72
 387 39 387 39 382.5 25 c 128,-1,73
 378 11 378 11 366.5 2.5 c 128,-1,74
 355 -6 355 -6 332 -6 c 0,75,76
 302 -6 302 -6 285 14 c 128,-1,77
 268 34 268 34 268 75 c 0,78,79
 268 120 268 120 292.5 146.5 c 128,-1,80
 317 173 317 173 348 179 c 1,81,82
 347 192 347 192 346 208.5 c 128,-1,83
 345 225 345 225 344 248 c 0,84,85
 343 274 343 274 343 295 c 128,-1,86
 343 316 343 316 338.5 331 c 128,-1,87
 334 346 334 346 323.5 356 c 128,-1,88
 313 366 313 366 292 371 c 1,89,-1
 223 329 l 1,90,-1
 154 370 l 1,91,92
 120 359 120 359 105 326 c 128,-1,93
 90 293 90 293 90 242 c 0,94,95
 90 205 90 205 95 182 c 128,-1,96
 100 159 100 159 107 144.5 c 128,-1,97
 114 130 114 130 121.5 121 c 128,-1,98
 129 112 129 112 135 103 c 1,99,100
 139 109 139 109 150 119.5 c 128,-1,101
 161 130 161 130 174 141 c 128,-1,102
 187 152 187 152 198.5 161.5 c 128,-1,103
 210 171 210 171 216 175 c 0,104,105
 231 186 231 186 236 197 c 128,-1,106
 241 208 241 208 241 218 c 0,107,108
 241 235 241 235 231.5 245 c 128,-1,109
 222 255 222 255 208 255 c 0,110,111
 193 255 193 255 182.5 244.5 c 128,-1,112
 172 234 172 234 172 219 c 0,113,114
 172 206 172 206 182 197 c 2,115,-1
 200 178 l 1,116,-1
 188 168 l 1,0,-1
349 147 m 1,117,118
 332 142 332 142 318 124.5 c 128,-1,119
 304 107 304 107 304 77 c 0,120,121
 304 55 304 55 312.5 42.5 c 128,-1,122
 321 30 321 30 332 30 c 0,123,124
 341 30 341 30 345.5 35 c 128,-1,125
 350 40 350 40 351.5 48.5 c 128,-1,126
 353 57 353 57 352.5 68.5 c 128,-1,127
 352 80 352 80 352 92 c 0,128,129
 352 99 352 99 351 114.5 c 128,-1,130
 350 130 350 130 349 147 c 1,117,118
EndSplineSet
EndChar
StartChar: uni0E13
Encoding: 3603 3603 232
Width: 638
Flags: W
Fore
114 119 m 1,0,-1
 142 138 l 1,1,2
 171 138 171 138 190.5 117 c 128,-1,3
 210 96 210 96 210 66 c 256,4,5
 210 36 210 36 189 15 c 128,-1,6
 168 -6 168 -6 138 -6 c 0,7,8
 100 -6 100 -6 83 16 c 128,-1,9
 66 38 66 38 66 80 c 2,10,-1
 66 178 l 2,11,12
 66 216 66 216 73.5 233.5 c 128,-1,13
 81 251 81 251 98 268 c 1,14,15
 94 270 94 270 85.5 276 c 128,-1,16
 77 282 77 282 68 289.5 c 128,-1,17
 59 297 59 297 52 305 c 128,-1,18
 45 313 45 313 45 319 c 0,19,20
 45 328 45 328 57.5 343 c 128,-1,21
 70 358 70 358 92 372 c 128,-1,22
 114 386 114 386 144.5 396 c 128,-1,23
 175 406 175 406 211 406 c 0,24,25
 245 406 245 406 272 399 c 128,-1,26
 299 392 299 392 317.5 374 c 128,-1,27
 336 356 336 356 345.5 325.5 c 128,-1,28
 355 295 355 295 355 249 c 2,29,-1
 355 177 l 1,30,-1
 353 91 l 1,31,32
 377 129 377 129 415 149 c 128,-1,33
 453 169 453 169 486 169 c 0,34,35
 514 169 514 169 541 160 c 1,36,37
 544 169 544 169 544 185 c 2,38,-1
 544 400 l 1,39,-1
 584 400 l 1,40,-1
 584 185 l 2,41,42
 584 167 584 167 568 149 c 1,43,44
 588 138 588 138 600.5 118.5 c 128,-1,45
 613 99 613 99 613 73 c 0,46,47
 613 32 613 32 591 14.5 c 128,-1,48
 569 -3 569 -3 539 -3 c 256,49,50
 509 -3 509 -3 489 15.5 c 128,-1,51
 469 34 469 34 469 70 c 0,52,53
 469 93 469 93 481.5 109 c 128,-1,54
 494 125 494 125 506 135 c 1,55,56
 498 137 498 137 483 137 c 0,57,58
 459 137 459 137 435.5 125 c 128,-1,59
 412 113 412 113 394 94 c 128,-1,60
 376 75 376 75 365 50.5 c 128,-1,61
 354 26 354 26 354 0 c 1,62,-1
 320 0 l 2,63,64
 316 0 316 0 313.5 2 c 128,-1,65
 311 4 311 4 313 14 c 0,66,67
 315 22 315 22 315.5 47 c 128,-1,68
 316 72 316 72 316 106 c 128,-1,69
 316 140 316 140 315.5 178 c 128,-1,70
 315 216 315 216 315 249 c 0,71,72
 315 288 315 288 309 311.5 c 128,-1,73
 303 335 303 335 290.5 348.5 c 128,-1,74
 278 362 278 362 258.5 366.5 c 128,-1,75
 239 371 239 371 211 371 c 0,76,77
 186 371 186 371 163 365 c 128,-1,78
 140 359 140 359 122.5 350.5 c 128,-1,79
 105 342 105 342 94.5 334 c 128,-1,80
 84 326 84 326 84 321 c 0,81,82
 84 318 84 318 88.5 312 c 128,-1,83
 93 306 93 306 99 300 c 128,-1,84
 105 294 105 294 111 289.5 c 128,-1,85
 117 285 117 285 120 285 c 0,86,87
 128 285 128 285 137 291.5 c 128,-1,88
 146 298 146 298 155 298 c 0,89,90
 158 298 158 298 162 293 c 128,-1,91
 166 288 166 288 169 282 c 128,-1,92
 172 276 172 276 172.5 271 c 128,-1,93
 173 266 173 266 169 266 c 0,94,95
 154 266 154 266 142.5 263 c 128,-1,96
 131 260 131 260 123 250.5 c 128,-1,97
 115 241 115 241 110.5 223.5 c 128,-1,98
 106 206 106 206 106 178 c 2,99,-1
 106 80 l 2,100,101
 106 57 106 57 114.5 43 c 128,-1,102
 123 29 123 29 138 29 c 0,103,104
 155 29 155 29 164.5 40 c 128,-1,105
 174 51 174 51 174 66 c 256,106,107
 174 81 174 81 165.5 92 c 128,-1,108
 157 103 157 103 142 103 c 2,109,-1
 114 103 l 1,110,-1
 114 119 l 1,0,-1
577 75 m 0,111,112
 577 109 577 109 535 125 c 1,113,114
 518 114 518 114 511 100 c 128,-1,115
 504 86 504 86 504 75 c 0,116,117
 504 33 504 33 539 33 c 0,118,119
 556 33 556 33 566.5 43 c 128,-1,120
 577 53 577 53 577 75 c 0,111,112
EndSplineSet
EndChar
StartChar: uni0E14
Encoding: 3604 3604 233
Width: 425
Flags: W
Fore
50 242 m 0,0,1
 50 320 50 320 94.5 363 c 128,-1,2
 139 406 139 406 210 406 c 0,3,4
 258 406 258 406 289 396 c 128,-1,5
 320 386 320 386 338 365 c 128,-1,6
 356 344 356 344 363 312 c 128,-1,7
 370 280 370 280 370 236 c 2,8,-1
 370 -1 l 1,9,-1
 330 -1 l 1,10,-1
 330 226 l 2,11,12
 330 265 330 265 326.5 293 c 128,-1,13
 323 321 323 321 311 338 c 128,-1,14
 299 355 299 355 275 363 c 128,-1,15
 251 371 251 371 210 371 c 0,16,17
 157 371 157 371 123.5 339.5 c 128,-1,18
 90 308 90 308 90 242 c 0,19,20
 90 205 90 205 95 182 c 128,-1,21
 100 159 100 159 107 144.5 c 128,-1,22
 114 130 114 130 121.5 121 c 128,-1,23
 129 112 129 112 135 103 c 1,24,25
 139 109 139 109 151.5 119.5 c 128,-1,26
 164 130 164 130 179 141.5 c 128,-1,27
 194 153 194 153 207 162.5 c 128,-1,28
 220 172 220 172 226 176 c 0,29,30
 241 187 241 187 246 197.5 c 128,-1,31
 251 208 251 208 251 218 c 0,32,33
 251 235 251 235 241.5 245 c 128,-1,34
 232 255 232 255 218 255 c 0,35,36
 203 255 203 255 192.5 244.5 c 128,-1,37
 182 234 182 234 182 219 c 0,38,39
 182 206 182 206 192 197 c 2,40,-1
 210 178 l 1,41,-1
 198 168 l 1,42,-1
 167 172 l 1,43,44
 147 192 147 192 147 220 c 0,45,46
 147 249 147 249 167.5 269.5 c 128,-1,47
 188 290 188 290 217 290 c 0,48,49
 234 290 234 290 247 283.5 c 128,-1,50
 260 277 260 277 268.5 267.5 c 128,-1,51
 277 258 277 258 281.5 246.5 c 128,-1,52
 286 235 286 235 286 223 c 0,53,54
 286 196 286 196 276.5 181 c 128,-1,55
 267 166 267 166 245 150 c 0,56,57
 224 134 224 134 202 118.5 c 128,-1,58
 180 103 180 103 163 85.5 c 128,-1,59
 146 68 146 68 135 47 c 128,-1,60
 124 26 124 26 124 0 c 1,61,-1
 85 0 l 2,62,63
 81 0 81 0 78.5 2 c 128,-1,64
 76 4 76 4 78 14 c 0,65,66
 81 30 81 30 88.5 47 c 128,-1,67
 96 64 96 64 106 78 c 0,68,69
 112 87 112 87 108 92 c 0,70,71
 100 100 100 100 90 109.5 c 128,-1,72
 80 119 80 119 71 135 c 128,-1,73
 62 151 62 151 56 176.5 c 128,-1,74
 50 202 50 202 50 242 c 0,0,1
EndSplineSet
EndChar
StartChar: uni0E15
Encoding: 3605 3605 234
Width: 435
Flags: W
Fore
220 329 m 1,0,-1
 154 370 l 1,1,2
 120 359 120 359 105 326 c 128,-1,3
 90 293 90 293 90 242 c 0,4,5
 90 205 90 205 95 182 c 128,-1,6
 100 159 100 159 107 144.5 c 128,-1,7
 114 130 114 130 121.5 121 c 128,-1,8
 129 112 129 112 135 103 c 1,9,10
 139 109 139 109 151.5 119.5 c 128,-1,11
 164 130 164 130 179 141.5 c 128,-1,12
 194 153 194 153 207 162.5 c 128,-1,13
 220 172 220 172 226 176 c 0,14,15
 241 187 241 187 246 197.5 c 128,-1,16
 251 208 251 208 251 218 c 0,17,18
 251 235 251 235 241.5 245 c 128,-1,19
 232 255 232 255 218 255 c 0,20,21
 203 255 203 255 192.5 244.5 c 128,-1,22
 182 234 182 234 182 219 c 0,23,24
 182 206 182 206 192 197 c 2,25,-1
 210 178 l 1,26,-1
 198 168 l 1,27,-1
 167 172 l 1,28,29
 147 192 147 192 147 220 c 0,30,31
 147 249 147 249 167.5 269.5 c 128,-1,32
 188 290 188 290 217 290 c 0,33,34
 234 290 234 290 247 283.5 c 128,-1,35
 260 277 260 277 268.5 267.5 c 128,-1,36
 277 258 277 258 281.5 246.5 c 128,-1,37
 286 235 286 235 286 223 c 0,38,39
 286 196 286 196 276.5 181 c 128,-1,40
 267 166 267 166 245 150 c 0,41,42
 224 134 224 134 202 118.5 c 128,-1,43
 180 103 180 103 163 85.5 c 128,-1,44
 146 68 146 68 135 47 c 128,-1,45
 124 26 124 26 124 0 c 1,46,-1
 85 0 l 2,47,48
 81 0 81 0 78.5 2 c 128,-1,49
 76 4 76 4 78 14 c 0,50,51
 81 30 81 30 88.5 47 c 128,-1,52
 96 64 96 64 106 78 c 0,53,54
 112 87 112 87 108 92 c 0,55,56
 100 100 100 100 90 109.5 c 128,-1,57
 80 119 80 119 71 135 c 128,-1,58
 62 151 62 151 56 176.5 c 128,-1,59
 50 202 50 202 50 242 c 0,60,61
 50 306 50 306 73 346 c 128,-1,62
 96 386 96 386 150 406 c 1,63,-1
 220 364 l 1,64,-1
 284 408 l 1,65,66
 315 403 315 403 334 389 c 128,-1,67
 353 375 353 375 363 353.5 c 128,-1,68
 373 332 373 332 376.5 302.5 c 128,-1,69
 380 273 380 273 380 236 c 2,70,-1
 380 0 l 1,71,-1
 340 0 l 1,72,-1
 340 248 l 2,73,74
 340 274 340 274 339 295 c 128,-1,75
 338 316 338 316 332 331 c 128,-1,76
 326 346 326 346 314.5 356 c 128,-1,77
 303 366 303 366 282 371 c 1,78,-1
 220 329 l 1,0,-1
EndSplineSet
EndChar
StartChar: uni0E16
Encoding: 3606 3606 235
Width: 420
Flags: W
Fore
114 102 m 1,0,-1
 114 118 l 1,1,-1
 142 137 l 1,2,3
 171 137 171 137 190.5 116.5 c 128,-1,4
 210 96 210 96 210 66 c 256,5,6
 210 36 210 36 189.5 15 c 128,-1,7
 169 -6 169 -6 139 -6 c 0,8,9
 105 -6 105 -6 85.5 17.5 c 128,-1,10
 66 41 66 41 66 90 c 2,11,-1
 66 178 l 2,12,13
 66 216 66 216 73.5 233.5 c 128,-1,14
 81 251 81 251 98 268 c 1,15,16
 94 270 94 270 85.5 276 c 128,-1,17
 77 282 77 282 68 289.5 c 128,-1,18
 59 297 59 297 52 305 c 128,-1,19
 45 313 45 313 45 319 c 0,20,21
 45 328 45 328 57.5 343 c 128,-1,22
 70 358 70 358 92 372 c 128,-1,23
 114 386 114 386 144.5 396 c 128,-1,24
 175 406 175 406 211 406 c 0,25,26
 245 406 245 406 273.5 399 c 128,-1,27
 302 392 302 392 322 374 c 128,-1,28
 342 356 342 356 353.5 325.5 c 128,-1,29
 365 295 365 295 365 249 c 2,30,-1
 365 0 l 1,31,-1
 325 0 l 1,32,-1
 325 249 l 2,33,34
 325 288 325 288 317.5 311.5 c 128,-1,35
 310 335 310 335 295.5 348.5 c 128,-1,36
 281 362 281 362 260 366.5 c 128,-1,37
 239 371 239 371 211 371 c 0,38,39
 186 371 186 371 163 365 c 128,-1,40
 140 359 140 359 122.5 350.5 c 128,-1,41
 105 342 105 342 94.5 334 c 128,-1,42
 84 326 84 326 84 321 c 0,43,44
 84 318 84 318 88.5 312 c 128,-1,45
 93 306 93 306 99 300 c 128,-1,46
 105 294 105 294 111 289.5 c 128,-1,47
 117 285 117 285 120 285 c 0,48,49
 128 285 128 285 137 291.5 c 128,-1,50
 146 298 146 298 155 298 c 0,51,52
 158 298 158 298 162 293 c 128,-1,53
 166 288 166 288 169 282 c 128,-1,54
 172 276 172 276 172.5 271 c 128,-1,55
 173 266 173 266 169 266 c 0,56,57
 154 266 154 266 142.5 263 c 128,-1,58
 131 260 131 260 123 250.5 c 128,-1,59
 115 241 115 241 110.5 223.5 c 128,-1,60
 106 206 106 206 106 178 c 2,61,-1
 106 77 l 2,62,63
 106 54 106 54 115 41.5 c 128,-1,64
 124 29 124 29 139 29 c 0,65,66
 156 29 156 29 165 40 c 128,-1,67
 174 51 174 51 174 66 c 256,68,69
 174 81 174 81 165.5 91.5 c 128,-1,70
 157 102 157 102 142 102 c 2,71,-1
 114 102 l 1,0,-1
EndSplineSet
EndChar
StartChar: uni0E17
Encoding: 3607 3607 236
Width: 478
Flags: W
Fore
122 298 m 1,0,-1
 122 282 l 1,1,-1
 98 264 l 1,2,3
 69 264 69 264 52 284.5 c 128,-1,4
 35 305 35 305 35 335 c 256,5,6
 35 365 35 365 56.5 386 c 128,-1,7
 78 407 78 407 108 407 c 0,8,9
 143 407 143 407 162 386.5 c 128,-1,10
 181 366 181 366 181 328 c 0,11,12
 181 317 181 317 178 306.5 c 128,-1,13
 175 296 175 296 171.5 283.5 c 128,-1,14
 168 271 168 271 164.5 255.5 c 128,-1,15
 161 240 161 240 160 219 c 2,16,-1
 155 126 l 1,17,18
 167 177 167 177 186 226.5 c 128,-1,19
 205 276 205 276 229 315.5 c 128,-1,20
 253 355 253 355 282 379 c 128,-1,21
 311 403 311 403 342 403 c 0,22,23
 377 403 377 403 400 385 c 128,-1,24
 423 367 423 367 423 319 c 2,25,-1
 423 0 l 1,26,-1
 383 0 l 1,27,-1
 383 319 l 2,28,29
 383 343 383 343 372.5 355.5 c 128,-1,30
 362 368 362 368 346 368 c 0,31,32
 318 368 318 368 286.5 332 c 128,-1,33
 255 296 255 296 228 242.5 c 128,-1,34
 201 189 201 189 181.5 127.5 c 128,-1,35
 162 66 162 66 159 15 c 2,36,-1
 158 0 l 1,37,-1
 124 0 l 2,38,39
 120 0 120 0 117.5 2 c 128,-1,40
 115 4 115 4 117 14 c 0,41,42
 119 22 119 22 119.5 43 c 128,-1,43
 120 64 120 64 121 92.5 c 128,-1,44
 122 121 122 121 122 155 c 128,-1,45
 122 189 122 189 122 222 c 0,46,47
 122 241 122 241 125 255.5 c 128,-1,48
 128 270 128 270 131.5 282 c 128,-1,49
 135 294 135 294 138 304.5 c 128,-1,50
 141 315 141 315 141 326 c 0,51,52
 141 349 141 349 132 360.5 c 128,-1,53
 123 372 123 372 108 372 c 0,54,55
 91 372 91 372 81 361 c 128,-1,56
 71 350 71 350 71 335 c 256,57,58
 71 320 71 320 78 309 c 128,-1,59
 85 298 85 298 100 298 c 2,60,-1
 122 298 l 1,0,-1
EndSplineSet
EndChar
StartChar: uni0E18
Encoding: 3608 3608 237
Width: 417
Flags: W
Fore
352 409 m 1,0,1
 354 402 354 402 357 395 c 0,2,3
 362 382 362 382 362 372 c 0,4,5
 362 366 362 366 353 362 c 1,6,7
 342 359 342 359 312 355 c 128,-1,8
 282 351 282 351 253 351 c 0,9,10
 238 351 238 351 219.5 353 c 128,-1,11
 201 355 201 355 184.5 357 c 128,-1,12
 168 359 168 359 154.5 361 c 128,-1,13
 141 363 141 363 135 363 c 0,14,15
 113 363 113 363 97.5 349 c 128,-1,16
 82 335 82 335 82 312 c 0,17,18
 82 298 82 298 83.5 291.5 c 128,-1,19
 85 285 85 285 91 280 c 0,20,21
 98 275 98 275 119.5 274.5 c 128,-1,22
 141 274 141 274 169.5 273 c 128,-1,23
 198 272 198 272 229 269 c 128,-1,24
 260 266 260 266 286.5 256 c 128,-1,25
 313 246 313 246 330 226.5 c 128,-1,26
 347 207 347 207 347 175 c 2,27,-1
 347 132 l 2,28,29
 347 94 347 94 343 72.5 c 128,-1,30
 339 51 339 51 325 35 c 0,31,32
 313 22 313 22 297.5 13.5 c 128,-1,33
 282 5 282 5 266 1 c 128,-1,34
 250 -3 250 -3 234 -4.5 c 128,-1,35
 218 -6 218 -6 204 -6 c 0,36,37
 191 -6 191 -6 174.5 -4.5 c 128,-1,38
 158 -3 158 -3 142 1 c 128,-1,39
 126 5 126 5 110.5 13.5 c 128,-1,40
 95 22 95 22 83 35 c 0,41,42
 70 50 70 50 66.5 75 c 128,-1,43
 63 100 63 100 63 132 c 2,44,-1
 63 207 l 1,45,-1
 101 204 l 1,46,47
 101 179 101 179 100.5 163 c 128,-1,48
 100 147 100 147 100 127 c 0,49,50
 100 103 100 103 102.5 84.5 c 128,-1,51
 105 66 105 66 113 56 c 0,52,53
 126 42 126 42 149.5 35.5 c 128,-1,54
 173 29 173 29 204 29 c 256,55,56
 235 29 235 29 258.5 35.5 c 128,-1,57
 282 42 282 42 295 56 c 0,58,59
 303 66 303 66 305 80.5 c 128,-1,60
 307 95 307 95 307 115 c 2,61,-1
 307 175 l 2,62,63
 307 198 307 198 291.5 210 c 128,-1,64
 276 222 276 222 251.5 228 c 128,-1,65
 227 234 227 234 198 235.5 c 128,-1,66
 169 237 169 237 142.5 238 c 128,-1,67
 116 239 116 239 94.5 241 c 128,-1,68
 73 243 73 243 65 250 c 0,69,70
 52 261 52 261 48 276 c 128,-1,71
 44 291 44 291 44 311 c 0,72,73
 44 352 44 352 69 376 c 128,-1,74
 94 400 94 400 133 400 c 0,75,76
 140 400 140 400 154.5 398.5 c 128,-1,77
 169 397 169 397 186 395.5 c 128,-1,78
 203 394 203 394 221 392.5 c 128,-1,79
 239 391 239 391 253 391 c 0,80,81
 271 391 271 391 289 393.5 c 128,-1,82
 307 396 307 396 321 400 c 0,83,84
 338 404 338 404 352 409 c 1,0,1
EndSplineSet
EndChar
StartChar: uni0E19
Encoding: 3609 3609 238
Width: 456
Flags: W
Fore
122 282 m 1,0,-1
 98 264 l 1,1,2
 69 264 69 264 52 284.5 c 128,-1,3
 35 305 35 305 35 335 c 256,4,5
 35 365 35 365 56.5 386 c 128,-1,6
 78 407 78 407 108 407 c 0,7,8
 143 407 143 407 162 386.5 c 128,-1,9
 181 366 181 366 181 328 c 0,10,11
 181 317 181 317 177.5 306.5 c 128,-1,12
 174 296 174 296 170.5 283.5 c 128,-1,13
 167 271 167 271 163.5 255.5 c 128,-1,14
 160 240 160 240 160 219 c 2,15,-1
 160 91 l 1,16,17
 172 110 172 110 189.5 124.5 c 128,-1,18
 207 139 207 139 227 149 c 128,-1,19
 247 159 247 159 267 164 c 128,-1,20
 287 169 287 169 303 169 c 0,21,22
 331 169 331 169 358 160 c 1,23,24
 361 169 361 169 361 185 c 2,25,-1
 361 400 l 1,26,-1
 401 400 l 1,27,-1
 401 185 l 2,28,29
 401 167 401 167 385 149 c 1,30,31
 405 138 405 138 417.5 118.5 c 128,-1,32
 430 99 430 99 430 73 c 0,33,34
 430 32 430 32 408 14.5 c 128,-1,35
 386 -3 386 -3 356 -3 c 256,36,37
 326 -3 326 -3 306 15.5 c 128,-1,38
 286 34 286 34 286 70 c 0,39,40
 286 93 286 93 298 108.5 c 128,-1,41
 310 124 310 124 323 133 c 1,42,43
 316 136 316 136 301 136 c 0,44,45
 277 136 277 136 252 124.5 c 128,-1,46
 227 113 227 113 206.5 93.5 c 128,-1,47
 186 74 186 74 173.5 50 c 128,-1,48
 161 26 161 26 161 0 c 1,49,-1
 127 0 l 2,50,51
 123 0 123 0 120.5 2 c 128,-1,52
 118 4 118 4 120 14 c 0,53,54
 122 22 122 22 122.5 43 c 128,-1,55
 123 64 123 64 123 92.5 c 128,-1,56
 123 121 123 121 122.5 155 c 128,-1,57
 122 189 122 189 122 222 c 0,58,59
 122 241 122 241 125 255.5 c 128,-1,60
 128 270 128 270 131.5 282 c 128,-1,61
 135 294 135 294 138 304.5 c 128,-1,62
 141 315 141 315 141 326 c 0,63,64
 141 349 141 349 132 360.5 c 128,-1,65
 123 372 123 372 108 372 c 0,66,67
 91 372 91 372 81 361 c 128,-1,68
 71 350 71 350 71 335 c 256,69,70
 71 320 71 320 78 309 c 128,-1,71
 85 298 85 298 100 298 c 2,72,-1
 122 298 l 1,73,-1
 122 282 l 1,0,-1
394 75 m 0,74,75
 394 109 394 109 352 125 c 1,76,77
 335 114 335 114 328 100 c 128,-1,78
 321 86 321 86 321 75 c 0,79,80
 321 33 321 33 356 33 c 0,81,82
 373 33 373 33 383.5 43 c 128,-1,83
 394 53 394 53 394 75 c 0,74,75
EndSplineSet
EndChar
StartChar: uni0E1A
Encoding: 3610 3610 239
Width: 475
Flags: W
Fore
125 298 m 1,0,-1
 125 282 l 1,1,-1
 102 263 l 1,2,3
 73 263 73 263 54 284 c 128,-1,4
 35 305 35 305 35 335 c 256,5,6
 35 365 35 365 56.5 386 c 128,-1,7
 78 407 78 407 108 407 c 0,8,9
 143 407 143 407 162 386.5 c 128,-1,10
 181 366 181 366 181 328 c 0,11,12
 181 317 181 317 177.5 306.5 c 128,-1,13
 174 296 174 296 170.5 283.5 c 128,-1,14
 167 271 167 271 163.5 255.5 c 128,-1,15
 160 240 160 240 160 219 c 0,16,17
 160 194 160 194 159.5 170.5 c 128,-1,18
 159 147 159 147 159 127 c 0,19,20
 159 103 159 103 161.5 84.5 c 128,-1,21
 164 66 164 66 172 56 c 0,22,23
 185 42 185 42 212 35.5 c 128,-1,24
 239 29 239 29 270 29 c 256,25,26
 301 29 301 29 328 35.5 c 128,-1,27
 355 42 355 42 368 56 c 0,28,29
 376 66 376 66 379 80.5 c 128,-1,30
 382 95 382 95 382 115 c 0,31,32
 382 132 382 132 381 152 c 128,-1,33
 380 172 380 172 380 197 c 2,34,-1
 380 400 l 1,35,-1
 420 400 l 1,36,-1
 420 132 l 2,37,38
 420 94 420 94 416 72.5 c 128,-1,39
 412 51 412 51 398 35 c 0,40,41
 386 22 386 22 369.5 13.5 c 128,-1,42
 353 5 353 5 335.5 1 c 128,-1,43
 318 -3 318 -3 301 -4.5 c 128,-1,44
 284 -6 284 -6 270 -6 c 0,45,46
 257 -6 257 -6 239.5 -4.5 c 128,-1,47
 222 -3 222 -3 204.5 1 c 128,-1,48
 187 5 187 5 170.5 13.5 c 128,-1,49
 154 22 154 22 142 35 c 0,50,51
 129 50 129 50 125.5 75 c 128,-1,52
 122 100 122 100 122 132 c 2,53,-1
 122 222 l 2,54,55
 122 241 122 241 125 255.5 c 128,-1,56
 128 270 128 270 131.5 282 c 128,-1,57
 135 294 135 294 138 304.5 c 128,-1,58
 141 315 141 315 141 326 c 0,59,60
 141 349 141 349 132 360.5 c 128,-1,61
 123 372 123 372 108 372 c 0,62,63
 91 372 91 372 81 361 c 128,-1,64
 71 350 71 350 71 335 c 256,65,66
 71 320 71 320 79 309 c 128,-1,67
 87 298 87 298 102 298 c 2,68,-1
 125 298 l 1,0,-1
EndSplineSet
EndChar
StartChar: uni0E1B
Encoding: 3611 3611 240
Width: 475
Flags: W
Fore
125 297 m 1,0,-1
 125 281 l 1,1,-1
 102 262 l 1,2,3
 73 262 73 262 54 283 c 128,-1,4
 35 304 35 304 35 334 c 256,5,6
 35 364 35 364 56.5 385 c 128,-1,7
 78 406 78 406 108 406 c 0,8,9
 143 406 143 406 162 385.5 c 128,-1,10
 181 365 181 365 181 327 c 0,11,12
 181 316 181 316 177.5 305.5 c 128,-1,13
 174 295 174 295 170.5 282.5 c 128,-1,14
 167 270 167 270 163.5 255 c 128,-1,15
 160 240 160 240 160 219 c 0,16,17
 160 194 160 194 159.5 170.5 c 128,-1,18
 159 147 159 147 159 127 c 0,19,20
 159 103 159 103 161.5 84.5 c 128,-1,21
 164 66 164 66 172 56 c 0,22,23
 185 42 185 42 212 35.5 c 128,-1,24
 239 29 239 29 270 29 c 256,25,26
 301 29 301 29 328 35.5 c 128,-1,27
 355 42 355 42 368 56 c 0,28,29
 376 66 376 66 379 80.5 c 128,-1,30
 382 95 382 95 382 115 c 0,31,32
 382 132 382 132 381 152 c 128,-1,33
 380 172 380 172 380 197 c 2,34,-1
 380 544 l 1,35,-1
 420 544 l 1,36,-1
 420 132 l 2,37,38
 420 94 420 94 416 72.5 c 128,-1,39
 412 51 412 51 398 35 c 0,40,41
 386 22 386 22 369.5 13.5 c 128,-1,42
 353 5 353 5 335.5 1 c 128,-1,43
 318 -3 318 -3 301 -4.5 c 128,-1,44
 284 -6 284 -6 270 -6 c 0,45,46
 257 -6 257 -6 239.5 -4.5 c 128,-1,47
 222 -3 222 -3 204.5 1 c 128,-1,48
 187 5 187 5 170.5 13.5 c 128,-1,49
 154 22 154 22 142 35 c 0,50,51
 129 50 129 50 125.5 75 c 128,-1,52
 122 100 122 100 122 132 c 2,53,-1
 122 222 l 2,54,55
 122 241 122 241 125 255.5 c 128,-1,56
 128 270 128 270 131.5 282 c 128,-1,57
 135 294 135 294 138 304 c 128,-1,58
 141 314 141 314 141 325 c 0,59,60
 141 348 141 348 132 359.5 c 128,-1,61
 123 371 123 371 108 371 c 0,62,63
 91 371 91 371 81 360 c 128,-1,64
 71 349 71 349 71 334 c 256,65,66
 71 319 71 319 79 308 c 128,-1,67
 87 297 87 297 102 297 c 2,68,-1
 125 297 l 1,0,-1
EndSplineSet
EndChar
StartChar: uni0E1C
Encoding: 3612 3612 241
Width: 434
Flags: W
Fore
104 298 m 1,0,-1
 132 298 l 2,1,2
 147 298 147 298 155.5 309 c 128,-1,3
 164 320 164 320 164 335 c 256,4,5
 164 350 164 350 154.5 361 c 128,-1,6
 145 372 145 372 128 372 c 0,7,8
 113 372 113 372 102 358 c 128,-1,9
 91 344 91 344 91 321 c 0,10,11
 91 310 91 310 92 300 c 128,-1,12
 93 290 93 290 93.5 278.5 c 128,-1,13
 94 267 94 267 95 252 c 128,-1,14
 96 237 96 237 96 215 c 0,15,16
 96 203 96 203 95.5 184.5 c 128,-1,17
 95 166 95 166 94 147 c 128,-1,18
 93 128 93 128 92.5 110.5 c 128,-1,19
 92 93 92 93 92 83 c 1,20,21
 108 109 108 109 129 130.5 c 128,-1,22
 150 152 150 152 170 169 c 0,23,24
 193 188 193 188 217 205 c 1,25,26
 242 189 242 189 265 169 c 0,27,28
 285 152 285 152 305.5 128.5 c 128,-1,29
 326 105 326 105 340 78 c 1,30,31
 340 86 340 86 339 101 c 128,-1,32
 338 116 338 116 337.5 133.5 c 128,-1,33
 337 151 337 151 336 168 c 128,-1,34
 335 185 335 185 335 197 c 2,35,-1
 335 400 l 1,36,-1
 375 400 l 1,37,-1
 375 132 l 2,38,39
 375 98 375 98 375.5 63.5 c 128,-1,40
 376 29 376 29 378 14 c 0,41,42
 380 4 380 4 377.5 2 c 128,-1,43
 375 0 375 0 371 0 c 2,44,-1
 334 0 l 1,45,-1
 334 10 l 2,46,47
 334 35 334 35 316 62 c 128,-1,48
 298 89 298 89 276 112 c 0,49,50
 250 139 250 139 217 166 c 1,51,52
 183 139 183 139 156 112 c 0,53,54
 133 89 133 89 114 62 c 128,-1,55
 95 35 95 35 95 10 c 2,56,-1
 95 0 l 1,57,-1
 58 0 l 2,58,59
 54 0 54 0 51.5 2 c 128,-1,60
 49 4 49 4 51 14 c 0,61,62
 53 22 53 22 54 29 c 128,-1,63
 55 36 55 36 55.5 47.5 c 128,-1,64
 56 59 56 59 56.5 79 c 128,-1,65
 57 99 57 99 57 132 c 2,66,-1
 56 215 l 2,67,68
 56 234 56 234 55 247 c 128,-1,69
 54 260 54 260 53 271.5 c 128,-1,70
 52 283 52 283 51.5 294.5 c 128,-1,71
 51 306 51 306 51 321 c 0,72,73
 51 363 51 363 72 385 c 128,-1,74
 93 407 93 407 128 407 c 0,75,76
 158 407 158 407 179 386 c 128,-1,77
 200 365 200 365 200 335 c 256,78,79
 200 305 200 305 180.5 284 c 128,-1,80
 161 263 161 263 132 263 c 1,81,-1
 104 282 l 1,82,-1
 104 298 l 1,0,-1
EndSplineSet
EndChar
StartChar: uni0E1D
Encoding: 3613 3613 242
Width: 434
Flags: W
Fore
104 298 m 1,0,-1
 132 298 l 2,1,2
 147 298 147 298 155.5 309 c 128,-1,3
 164 320 164 320 164 335 c 256,4,5
 164 350 164 350 154.5 361 c 128,-1,6
 145 372 145 372 128 372 c 0,7,8
 113 372 113 372 102 358 c 128,-1,9
 91 344 91 344 91 321 c 0,10,11
 91 310 91 310 92 300 c 128,-1,12
 93 290 93 290 93.5 278.5 c 128,-1,13
 94 267 94 267 95 252 c 128,-1,14
 96 237 96 237 96 215 c 0,15,16
 96 203 96 203 95.5 184.5 c 128,-1,17
 95 166 95 166 94 147 c 128,-1,18
 93 128 93 128 92.5 110.5 c 128,-1,19
 92 93 92 93 92 83 c 1,20,21
 108 109 108 109 129 130.5 c 128,-1,22
 150 152 150 152 170 169 c 0,23,24
 193 188 193 188 217 205 c 1,25,26
 242 189 242 189 265 169 c 0,27,28
 285 152 285 152 305.5 128.5 c 128,-1,29
 326 105 326 105 340 78 c 1,30,31
 340 86 340 86 339 101 c 128,-1,32
 338 116 338 116 337.5 133.5 c 128,-1,33
 337 151 337 151 336 168 c 128,-1,34
 335 185 335 185 335 197 c 2,35,-1
 335 544 l 1,36,-1
 375 544 l 1,37,-1
 375 132 l 2,38,39
 375 98 375 98 375.5 63.5 c 128,-1,40
 376 29 376 29 378 14 c 0,41,42
 380 4 380 4 377.5 2 c 128,-1,43
 375 0 375 0 371 0 c 2,44,-1
 334 0 l 1,45,-1
 334 10 l 2,46,47
 334 35 334 35 316 62 c 128,-1,48
 298 89 298 89 276 112 c 0,49,50
 250 139 250 139 217 166 c 1,51,52
 183 139 183 139 156 112 c 0,53,54
 133 89 133 89 114 62 c 128,-1,55
 95 35 95 35 95 10 c 2,56,-1
 95 0 l 1,57,-1
 58 0 l 2,58,59
 54 0 54 0 51.5 2 c 128,-1,60
 49 4 49 4 51 14 c 0,61,62
 53 22 53 22 54 29 c 128,-1,63
 55 36 55 36 55.5 47.5 c 128,-1,64
 56 59 56 59 56.5 79 c 128,-1,65
 57 99 57 99 57 132 c 2,66,-1
 56 215 l 2,67,68
 56 234 56 234 55 247 c 128,-1,69
 54 260 54 260 53 271.5 c 128,-1,70
 52 283 52 283 51.5 294.5 c 128,-1,71
 51 306 51 306 51 321 c 0,72,73
 51 363 51 363 72 385 c 128,-1,74
 93 407 93 407 128 407 c 0,75,76
 158 407 158 407 179 386 c 128,-1,77
 200 365 200 365 200 335 c 256,78,79
 200 305 200 305 180.5 284 c 128,-1,80
 161 263 161 263 132 263 c 1,81,-1
 104 282 l 1,82,-1
 104 298 l 1,0,-1
EndSplineSet
EndChar
StartChar: uni0E1E
Encoding: 3614 3614 243
Width: 499
Flags: W
Fore
405 93 m 1,0,1
 405 110 405 110 402.5 141 c 128,-1,2
 400 172 400 172 400 197 c 2,3,-1
 400 400 l 1,4,-1
 440 400 l 1,5,-1
 440 132 l 2,6,7
 440 98 440 98 440.5 63.5 c 128,-1,8
 441 29 441 29 443 14 c 0,9,10
 445 4 445 4 442.5 2 c 128,-1,11
 440 0 440 0 436 0 c 2,12,-1
 399 0 l 1,13,-1
 399 10 l 2,14,15
 399 22 399 22 394 42 c 128,-1,16
 389 62 389 62 381 85.5 c 128,-1,17
 373 109 373 109 362.5 135.5 c 128,-1,18
 352 162 352 162 341 187 c 0,19,20
 315 247 315 247 282 316 c 1,21,22
 248 247 248 247 221 187 c 0,23,24
 209 162 209 162 198 135.5 c 128,-1,25
 187 109 187 109 178.5 85.5 c 128,-1,26
 170 62 170 62 165 42 c 128,-1,27
 160 22 160 22 160 10 c 2,28,-1
 160 0 l 1,29,-1
 123 0 l 2,30,31
 119 0 119 0 116.5 2 c 128,-1,32
 114 4 114 4 116 14 c 0,33,34
 118 22 118 22 119 29 c 128,-1,35
 120 36 120 36 120.5 47.5 c 128,-1,36
 121 59 121 59 121.5 79 c 128,-1,37
 122 99 122 99 122 132 c 2,38,-1
 122 212 l 2,39,40
 122 250 122 250 131.5 277 c 128,-1,41
 141 304 141 304 141 326 c 0,42,43
 141 349 141 349 132 360.5 c 128,-1,44
 123 372 123 372 108 372 c 0,45,46
 91 372 91 372 81 361 c 128,-1,47
 71 350 71 350 71 335 c 256,48,49
 71 320 71 320 79 309 c 128,-1,50
 87 298 87 298 102 298 c 2,51,-1
 125 298 l 1,52,-1
 125 282 l 1,53,-1
 102 263 l 1,54,55
 73 263 73 263 54 284 c 128,-1,56
 35 305 35 305 35 335 c 256,57,58
 35 365 35 365 56.5 386 c 128,-1,59
 78 407 78 407 108 407 c 0,60,61
 143 407 143 407 162 386.5 c 128,-1,62
 181 366 181 366 181 328 c 0,63,64
 181 317 181 317 177.5 305 c 128,-1,65
 174 293 174 293 170.5 278.5 c 128,-1,66
 167 264 167 264 163.5 247 c 128,-1,67
 160 230 160 230 160 209 c 0,68,69
 160 197 160 197 159.5 181.5 c 128,-1,70
 159 166 159 166 158.5 151 c 128,-1,71
 158 136 158 136 157.5 122 c 128,-1,72
 157 108 157 108 157 98 c 1,73,74
 173 150 173 150 194 199.5 c 128,-1,75
 215 249 215 249 235 288 c 0,76,77
 258 334 258 334 282 375 c 1,78,79
 307 334 307 334 330 287 c 0,80,81
 350 247 350 247 370.5 197 c 128,-1,82
 391 147 391 147 405 93 c 1,0,1
EndSplineSet
EndChar
StartChar: uni0E1F
Encoding: 3615 3615 244
Width: 499
Flags: W
Fore
405 93 m 1,0,1
 405 110 405 110 402.5 141 c 128,-1,2
 400 172 400 172 400 197 c 2,3,-1
 400 544 l 1,4,-1
 440 544 l 1,5,-1
 440 132 l 2,6,7
 440 98 440 98 440.5 63.5 c 128,-1,8
 441 29 441 29 443 14 c 0,9,10
 445 4 445 4 442.5 2 c 128,-1,11
 440 0 440 0 436 0 c 2,12,-1
 399 0 l 1,13,-1
 399 10 l 2,14,15
 399 22 399 22 394 42 c 128,-1,16
 389 62 389 62 381 85.5 c 128,-1,17
 373 109 373 109 362.5 135.5 c 128,-1,18
 352 162 352 162 341 187 c 0,19,20
 315 247 315 247 282 316 c 1,21,22
 248 247 248 247 221 187 c 0,23,24
 209 162 209 162 198 135.5 c 128,-1,25
 187 109 187 109 178.5 85.5 c 128,-1,26
 170 62 170 62 165 42 c 128,-1,27
 160 22 160 22 160 10 c 2,28,-1
 160 0 l 1,29,-1
 123 0 l 2,30,31
 119 0 119 0 116.5 2 c 128,-1,32
 114 4 114 4 116 14 c 0,33,34
 118 22 118 22 119 29 c 128,-1,35
 120 36 120 36 120.5 47.5 c 128,-1,36
 121 59 121 59 121.5 79 c 128,-1,37
 122 99 122 99 122 132 c 2,38,-1
 122 212 l 2,39,40
 122 250 122 250 131.5 277 c 128,-1,41
 141 304 141 304 141 326 c 0,42,43
 141 349 141 349 132 360.5 c 128,-1,44
 123 372 123 372 108 372 c 0,45,46
 91 372 91 372 81 361 c 128,-1,47
 71 350 71 350 71 335 c 256,48,49
 71 320 71 320 79 309 c 128,-1,50
 87 298 87 298 102 298 c 2,51,-1
 125 298 l 1,52,-1
 125 282 l 1,53,-1
 102 263 l 1,54,55
 73 263 73 263 54 284 c 128,-1,56
 35 305 35 305 35 335 c 256,57,58
 35 365 35 365 56.5 386 c 128,-1,59
 78 407 78 407 108 407 c 0,60,61
 143 407 143 407 162 386.5 c 128,-1,62
 181 366 181 366 181 328 c 0,63,64
 181 317 181 317 177.5 305 c 128,-1,65
 174 293 174 293 170.5 278.5 c 128,-1,66
 167 264 167 264 163.5 247 c 128,-1,67
 160 230 160 230 160 209 c 0,68,69
 160 197 160 197 159.5 181.5 c 128,-1,70
 159 166 159 166 158.5 151 c 128,-1,71
 158 136 158 136 157.5 122 c 128,-1,72
 157 108 157 108 157 98 c 1,73,74
 173 150 173 150 194 199.5 c 128,-1,75
 215 249 215 249 235 288 c 0,76,77
 258 334 258 334 282 375 c 1,78,79
 307 334 307 334 330 287 c 0,80,81
 350 247 350 247 370.5 197 c 128,-1,82
 391 147 391 147 405 93 c 1,0,1
EndSplineSet
EndChar
StartChar: uni0E20
Encoding: 3616 3616 245
Width: 452
Flags: W
Fore
88 100 m 2,0,1
 73 100 73 100 66.5 89.5 c 128,-1,2
 60 79 60 79 60 64 c 256,3,4
 60 49 60 49 69 39 c 128,-1,5
 78 29 78 29 95 29 c 0,6,7
 110 29 110 29 120 39 c 128,-1,8
 130 49 130 49 130 72 c 0,9,10
 130 107 130 107 119 140.5 c 128,-1,11
 108 174 108 174 108 204 c 0,12,13
 108 228 108 228 114.5 241.5 c 128,-1,14
 121 255 121 255 132 267 c 1,15,16
 128 269 128 269 119 275.5 c 128,-1,17
 110 282 110 282 100.5 289.5 c 128,-1,18
 91 297 91 297 84 305 c 128,-1,19
 77 313 77 313 77 319 c 0,20,21
 77 328 77 328 89.5 343 c 128,-1,22
 102 358 102 358 124 372 c 128,-1,23
 146 386 146 386 176.5 396 c 128,-1,24
 207 406 207 406 243 406 c 0,25,26
 277 406 277 406 305.5 399 c 128,-1,27
 334 392 334 392 354 374 c 128,-1,28
 374 356 374 356 385.5 325.5 c 128,-1,29
 397 295 397 295 397 249 c 2,30,-1
 397 0 l 1,31,-1
 357 0 l 1,32,-1
 357 249 l 2,33,34
 357 288 357 288 349.5 311.5 c 128,-1,35
 342 335 342 335 327.5 348.5 c 128,-1,36
 313 362 313 362 292 366.5 c 128,-1,37
 271 371 271 371 243 371 c 0,38,39
 218 371 218 371 195 365 c 128,-1,40
 172 359 172 359 154.5 350.5 c 128,-1,41
 137 342 137 342 126.5 334 c 128,-1,42
 116 326 116 326 116 321 c 0,43,44
 116 318 116 318 120.5 312 c 128,-1,45
 125 306 125 306 131 300 c 128,-1,46
 137 294 137 294 143 289.5 c 128,-1,47
 149 285 149 285 152 285 c 0,48,49
 160 285 160 285 169 291.5 c 128,-1,50
 178 298 178 298 187 298 c 0,51,52
 190 298 190 298 194 293 c 128,-1,53
 198 288 198 288 201 282 c 128,-1,54
 204 276 204 276 204.5 271 c 128,-1,55
 205 266 205 266 201 266 c 0,56,57
 172 266 172 266 160 253.5 c 128,-1,58
 148 241 148 241 148 203 c 0,59,60
 148 186 148 186 151.5 167.5 c 128,-1,61
 155 149 155 149 158.5 131.5 c 128,-1,62
 162 114 162 114 165.5 98.5 c 128,-1,63
 169 83 169 83 169 72 c 0,64,65
 169 34 169 34 149.5 14 c 128,-1,66
 130 -6 130 -6 95 -6 c 0,67,68
 65 -6 65 -6 45 14 c 128,-1,69
 25 34 25 34 25 64 c 256,70,71
 25 94 25 94 42.5 113.5 c 128,-1,72
 60 133 60 133 88 133 c 1,73,-1
 111 116 l 1,74,-1
 111 100 l 1,75,-1
 88 100 l 2,0,1
EndSplineSet
EndChar
StartChar: uni0E21
Encoding: 3617 3617 246
Width: 456
Flags: W
Fore
137 282 m 1,0,-1
 113 264 l 1,1,2
 84 264 84 264 67 284.5 c 128,-1,3
 50 305 50 305 50 335 c 256,4,5
 50 365 50 365 71.5 386 c 128,-1,6
 93 407 93 407 123 407 c 0,7,8
 158 407 158 407 177 386.5 c 128,-1,9
 196 366 196 366 196 328 c 0,10,11
 196 317 196 317 192.5 305.5 c 128,-1,12
 189 294 189 294 185 280.5 c 128,-1,13
 181 267 181 267 178 250.5 c 128,-1,14
 175 234 175 234 175 213 c 2,15,-1
 175 179 l 1,16,17
 204 179 204 179 231 171 c 128,-1,18
 258 163 258 163 281.5 148.5 c 128,-1,19
 305 134 305 134 325 114 c 128,-1,20
 345 94 345 94 358 71 c 1,21,22
 357 83 357 83 356.5 102 c 128,-1,23
 356 121 356 121 355.5 141 c 128,-1,24
 355 161 355 161 355 180 c 128,-1,25
 355 199 355 199 355 211 c 2,26,-1
 355 400 l 1,27,-1
 395 400 l 1,28,-1
 395 222 l 2,29,30
 395 189 395 189 395 155 c 128,-1,31
 395 121 395 121 396 92.5 c 128,-1,32
 397 64 397 64 398 43 c 128,-1,33
 399 22 399 22 400 14 c 0,34,35
 402 4 402 4 399.5 2 c 128,-1,36
 397 0 397 0 393 0 c 2,37,-1
 354 0 l 1,38,39
 346 33 346 33 329 59.5 c 128,-1,40
 312 86 312 86 288 105 c 128,-1,41
 264 124 264 124 235.5 135.5 c 128,-1,42
 207 147 207 147 176 149 c 1,43,-1
 177 95 l 2,44,45
 177 75 177 75 177 57 c 128,-1,46
 177 39 177 39 172.5 25 c 128,-1,47
 168 11 168 11 156.5 2.5 c 128,-1,48
 145 -6 145 -6 122 -6 c 0,49,50
 92 -6 92 -6 75 14 c 128,-1,51
 58 34 58 34 58 75 c 0,52,53
 58 120 58 120 82.5 145 c 128,-1,54
 107 170 107 170 138 176 c 1,55,56
 137 189 137 189 137 198 c 128,-1,57
 137 216 l 0,58,59
 137 235 137 235 140 250.5 c 128,-1,60
 143 266 143 266 146.5 279 c 128,-1,61
 150 292 150 292 153 303.5 c 128,-1,62
 156 315 156 315 156 326 c 0,63,64
 156 349 156 349 147 360.5 c 128,-1,65
 138 372 138 372 123 372 c 0,66,67
 106 372 106 372 96 361 c 128,-1,68
 86 350 86 350 86 335 c 256,69,70
 86 320 86 320 93 309 c 128,-1,71
 100 298 100 298 115 298 c 2,72,-1
 137 298 l 1,73,-1
 137 282 l 1,0,-1
142 92 m 0,74,75
 142 99 142 99 141 114.5 c 128,-1,76
 140 130 140 130 139 147 c 1,77,78
 122 142 122 142 108 124.5 c 128,-1,79
 94 107 94 107 94 77 c 0,80,81
 94 55 94 55 102.5 42.5 c 128,-1,82
 111 30 111 30 122 30 c 0,83,84
 131 30 131 30 135.5 35 c 128,-1,85
 140 40 140 40 141.5 48.5 c 128,-1,86
 143 57 143 57 142.5 68.5 c 128,-1,87
 142 80 142 80 142 92 c 0,74,75
EndSplineSet
EndChar
StartChar: uni0E22
Encoding: 3618 3618 247
Width: 419
Flags: W
Fore
63 136 m 2,0,1
 63 171 63 171 76 187 c 128,-1,2
 89 203 89 203 100 211 c 1,3,4
 93 215 93 215 84 224 c 128,-1,5
 75 233 75 233 67.5 246 c 128,-1,6
 60 259 60 259 55 277 c 128,-1,7
 50 295 50 295 50 317 c 0,8,9
 50 353 50 353 71.5 380 c 128,-1,10
 93 407 93 407 134 407 c 0,11,12
 164 407 164 407 181.5 388 c 128,-1,13
 199 369 199 369 199 339 c 0,14,15
 199 310 199 310 180.5 292 c 128,-1,16
 162 274 162 274 132 274 c 1,17,-1
 103 291 l 1,18,-1
 103 309 l 1,19,-1
 132 309 l 2,20,21
 148 309 148 309 155.5 318.5 c 128,-1,22
 163 328 163 328 163 339 c 0,23,24
 163 353 163 353 155.5 362 c 128,-1,25
 148 371 148 371 134 371 c 0,26,27
 119 371 119 371 110 366 c 128,-1,28
 101 361 101 361 96.5 352.5 c 128,-1,29
 92 344 92 344 91 332.5 c 128,-1,30
 90 321 90 321 90 308 c 0,31,32
 90 258 90 258 126 238 c 128,-1,33
 162 218 162 218 217 218 c 0,34,35
 221 218 221 218 219 212.5 c 128,-1,36
 217 207 217 207 212.5 200 c 128,-1,37
 208 193 208 193 202.5 187.5 c 128,-1,38
 197 182 197 182 195 182 c 0,39,40
 191 182 191 182 182 184.5 c 128,-1,41
 173 187 173 187 163 189.5 c 128,-1,42
 153 192 153 192 143.5 194.5 c 128,-1,43
 134 197 134 197 127 197 c 0,44,45
 118 197 118 197 109.5 183 c 128,-1,46
 101 169 101 169 101 145 c 2,47,-1
 101 116 l 2,48,49
 101 92 101 92 103.5 79.5 c 128,-1,50
 106 67 106 67 115 56 c 0,51,52
 128 42 128 42 155 35.5 c 128,-1,53
 182 29 182 29 213 29 c 256,54,55
 244 29 244 29 271 35.5 c 128,-1,56
 298 42 298 42 311 56 c 0,57,58
 319 65 319 65 322 78.5 c 128,-1,59
 325 92 325 92 325 109.5 c 128,-1,60
 325 127 325 127 324 148.5 c 128,-1,61
 323 170 323 170 323 197 c 2,62,-1
 323 400 l 1,63,-1
 363 400 l 1,64,-1
 363 197 l 2,65,66
 363 166 363 166 363.5 141.5 c 128,-1,67
 364 117 364 117 362.5 97.5 c 128,-1,68
 361 78 361 78 356.5 62.5 c 128,-1,69
 352 47 352 47 341 35 c 0,70,71
 329 22 329 22 312.5 13.5 c 128,-1,72
 296 5 296 5 278.5 1 c 128,-1,73
 261 -3 261 -3 244 -4.5 c 128,-1,74
 227 -6 227 -6 213 -6 c 0,75,76
 200 -6 200 -6 182.5 -4.5 c 128,-1,77
 165 -3 165 -3 147.5 1 c 128,-1,78
 130 5 130 5 113.5 13.5 c 128,-1,79
 97 22 97 22 85 35 c 0,80,81
 71 51 71 51 67 68.5 c 128,-1,82
 63 86 63 86 63 117 c 2,83,-1
 63 136 l 2,0,1
EndSplineSet
EndChar
StartChar: uni0E23
Encoding: 3619 3619 248
Width: 360
Flags: W
Fore
215 104 m 2,0,1
 199 104 199 104 190.5 93 c 128,-1,2
 182 82 182 82 182 66 c 0,3,4
 182 51 182 51 191.5 40 c 128,-1,5
 201 29 201 29 218 29 c 0,6,7
 239 29 239 29 247 43 c 128,-1,8
 255 57 255 57 255 80 c 2,9,-1
 255 161 l 2,10,11
 255 184 255 184 242.5 196.5 c 128,-1,12
 230 209 230 209 210 215 c 128,-1,13
 190 221 190 221 166 223 c 128,-1,14
 142 225 142 225 120 226.5 c 128,-1,15
 98 228 98 228 79.5 230.5 c 128,-1,16
 61 233 61 233 53 240 c 0,17,18
 40 251 40 251 35 268.5 c 128,-1,19
 30 286 30 286 30 306 c 0,20,21
 30 347 30 347 54.5 373.5 c 128,-1,22
 79 400 79 400 118 400 c 0,23,24
 132 400 132 400 162.5 395.5 c 128,-1,25
 193 391 193 391 221 391 c 0,26,27
 239 391 239 391 255.5 393.5 c 128,-1,28
 272 396 272 396 284 400 c 0,29,30
 298 404 298 404 310 409 c 1,31,32
 312 402 312 402 315 395 c 0,33,34
 320 382 320 382 320 372 c 0,35,36
 320 366 320 366 311 362 c 1,37,38
 300 359 300 359 275 355 c 128,-1,39
 250 351 250 351 221 351 c 0,40,41
 190 351 190 351 160 357 c 128,-1,42
 130 363 130 363 118 363 c 0,43,44
 96 363 96 363 82 346.5 c 128,-1,45
 68 330 68 330 68 307 c 0,46,47
 68 296 68 296 70 285.5 c 128,-1,48
 72 275 72 275 79 270 c 0,49,50
 85 265 85 265 103.5 263.5 c 128,-1,51
 122 262 122 262 146 261 c 128,-1,52
 170 260 170 260 196.5 256 c 128,-1,53
 223 252 223 252 244.5 242 c 128,-1,54
 266 232 266 232 280.5 213 c 128,-1,55
 295 194 295 194 295 161 c 2,56,-1
 295 80 l 2,57,58
 295 40 295 40 277.5 17 c 128,-1,59
 260 -6 260 -6 218 -6 c 0,60,61
 188 -6 188 -6 167 15.5 c 128,-1,62
 146 37 146 37 146 66 c 0,63,64
 146 96 146 96 165.5 117.5 c 128,-1,65
 185 139 185 139 215 139 c 1,66,-1
 242 120 l 1,67,-1
 242 104 l 1,68,-1
 215 104 l 2,0,1
EndSplineSet
EndChar
StartChar: uni0E24
Encoding: 3620 3620 249
Width: 420
Flags: W
Fore
114 102 m 1,0,-1
 114 118 l 1,1,-1
 142 137 l 1,2,3
 171 137 171 137 190.5 116.5 c 128,-1,4
 210 96 210 96 210 66 c 256,5,6
 210 36 210 36 189.5 15 c 128,-1,7
 169 -6 169 -6 139 -6 c 0,8,9
 105 -6 105 -6 85.5 17.5 c 128,-1,10
 66 41 66 41 66 90 c 2,11,-1
 66 178 l 2,12,13
 66 216 66 216 73.5 233.5 c 128,-1,14
 81 251 81 251 98 268 c 1,15,16
 94 270 94 270 86 276 c 128,-1,17
 78 282 78 282 70 289.5 c 128,-1,18
 62 297 62 297 56 305 c 128,-1,19
 50 313 50 313 50 319 c 0,20,21
 50 328 50 328 61.5 343 c 128,-1,22
 73 358 73 358 94.5 372 c 128,-1,23
 116 386 116 386 145.5 396 c 128,-1,24
 175 406 175 406 211 406 c 0,25,26
 245 406 245 406 273.5 399 c 128,-1,27
 302 392 302 392 322 374 c 128,-1,28
 342 356 342 356 353.5 325.5 c 128,-1,29
 365 295 365 295 365 249 c 2,30,-1
 365 -150 l 1,31,-1
 325 -150 l 1,32,-1
 325 249 l 2,33,34
 325 288 325 288 317.5 311.5 c 128,-1,35
 310 335 310 335 295.5 348.5 c 128,-1,36
 281 362 281 362 260 366.5 c 128,-1,37
 239 371 239 371 211 371 c 0,38,39
 186 371 186 371 164 365 c 128,-1,40
 142 359 142 359 125.5 350.5 c 128,-1,41
 109 342 109 342 99 334 c 128,-1,42
 89 326 89 326 89 321 c 0,43,44
 89 318 89 318 92.5 312 c 128,-1,45
 96 306 96 306 101.5 300 c 128,-1,46
 107 294 107 294 112 289.5 c 128,-1,47
 117 285 117 285 120 285 c 0,48,49
 128 285 128 285 137 291.5 c 128,-1,50
 146 298 146 298 155 298 c 0,51,52
 158 298 158 298 162 293 c 128,-1,53
 166 288 166 288 169 282 c 128,-1,54
 172 276 172 276 172.5 271 c 128,-1,55
 173 266 173 266 169 266 c 0,56,57
 154 266 154 266 142.5 263 c 128,-1,58
 131 260 131 260 123 250.5 c 128,-1,59
 115 241 115 241 110.5 223.5 c 128,-1,60
 106 206 106 206 106 178 c 2,61,-1
 106 77 l 2,62,63
 106 54 106 54 115 41.5 c 128,-1,64
 124 29 124 29 139 29 c 0,65,66
 156 29 156 29 165 40 c 128,-1,67
 174 51 174 51 174 66 c 256,68,69
 174 81 174 81 165.5 91.5 c 128,-1,70
 157 102 157 102 142 102 c 2,71,-1
 114 102 l 1,0,-1
EndSplineSet
EndChar
